<svg version="1.1" viewBox="0.0 0.0 757.0 389.0" fill="none" stroke="none" stroke-linecap="square" stroke-miterlimit="10" width="757" height="389" xmlns:xlink="http://www.w3.org/1999/xlink" xmlns="http://www.w3.org/2000/svg"><path fill="#ffffff" d="M0 0L757.0 0L757.0 389.0L0 389.0L0 0Z" fill-rule="nonzero"/><path stroke="#cccccc" stroke-width="1.0" stroke-linecap="butt" d="M78.5 292.5L737.5 292.5" fill-rule="nonzero"/><path stroke="#cccccc" stroke-width="1.0" stroke-linecap="butt" d="M78.5 234.5L737.5 234.5" fill-rule="nonzero"/><path stroke="#cccccc" stroke-width="1.0" stroke-linecap="butt" d="M78.5 177.5L737.5 177.5" fill-rule="nonzero"/><path stroke="#cccccc" stroke-width="1.0" stroke-linecap="butt" d="M78.5 120.5L737.5 120.5" fill-rule="nonzero"/><path stroke="#cccccc" stroke-width="1.0" stroke-linecap="butt" d="M78.5 63.5L737.5 63.5" fill-rule="nonzero"/><clipPath id="id_0"><path d="M78.45 63.416668L737.55 63.416668L737.55 292.00113L78.45 292.00113L78.45 63.416668Z" clip-rule="nonzero"/></clipPath><path stroke="#4285f4" stroke-width="2.0" stroke-linecap="butt" stroke-dasharray="16.0,6.0,2.0,6.0" clip-path="url(#id_0)" d="M125.52857 177.7089C125.52857 177.7089 188.3 147.63199 219.68571 147.63199C251.07143 147.63199 282.45715 171.27779 313.84286 177.7089C345.22858 184.14 376.6143 186.04257 408.0 186.21863C439.3857 186.39468 470.77142 180.0349 502.15714 178.7652C533.54285 177.4955 564.9286 179.46167 596.3143 178.6004C627.7 177.73915 690.47144 173.59766 690.47144 173.59766" fill-rule="nonzero"/><path stroke="#ea4335" stroke-width="2.0" stroke-linecap="butt" stroke-dasharray="16.0,8.0" clip-path="url(#id_0)" d="M125.52857 177.7089C125.52857 177.7089 188.3 177.7089 219.68571 177.7089C251.07143 177.7089 282.45715 177.7089 313.84286 177.7089C345.22858 177.7089 376.6143 177.7089 408.0 177.7089C439.3857 177.7089 470.77142 177.7089 502.15714 177.7089C533.54285 177.7089 564.9286 177.7089 596.3143 177.7089C627.7 177.7089 690.47144 177.7089 690.47144 177.7089" fill-rule="nonzero"/><path fill="#4285f4" clip-path="url(#id_0)" d="M124.11436 176.29468L126.94279 176.29468L126.94279 179.12311L124.11436 179.12311Z" fill-rule="nonzero"/><path fill="#4285f4" clip-path="url(#id_0)" d="M218.2715 146.21777L221.09993 146.21777L221.09993 149.0462L218.2715 149.0462Z" fill-rule="nonzero"/><path fill="#4285f4" clip-path="url(#id_0)" d="M312.42865 176.29468L315.25708 176.29468L315.25708 179.12311L312.42865 179.12311Z" fill-rule="nonzero"/><path fill="#4285f4" clip-path="url(#id_0)" d="M406.5858 184.80441L409.4142 184.80441L409.4142 187.63284L406.5858 187.63284Z" fill-rule="nonzero"/><path fill="#4285f4" clip-path="url(#id_0)" d="M500.74292 177.35098L503.57135 177.35098L503.57135 180.17941L500.74292 180.17941Z" fill-rule="nonzero"/><path fill="#4285f4" clip-path="url(#id_0)" d="M594.9001 177.1862L597.7285 177.1862L597.7285 180.01462L594.9001 180.01462Z" fill-rule="nonzero"/><path fill="#4285f4" clip-path="url(#id_0)" d="M689.0572 172.18346L691.8856 172.18346L691.8856 175.01187L689.0572 175.01187Z" fill-rule="nonzero"/><path fill="#ea4335" clip-path="url(#id_0)" d="M125.52857 175.7089L127.26062 178.7089L123.796524 178.7089Z" fill-rule="nonzero"/><path fill="#ea4335" clip-path="url(#id_0)" d="M219.68571 175.7089L221.41777 178.7089L217.95366 178.7089Z" fill-rule="nonzero"/><path fill="#ea4335" clip-path="url(#id_0)" d="M313.84286 175.7089L315.57492 178.7089L312.1108 178.7089Z" fill-rule="nonzero"/><path fill="#ea4335" clip-path="url(#id_0)" d="M408.0 175.7089L409.73206 178.7089L406.26794 178.7089Z" fill-rule="nonzero"/><path fill="#ea4335" clip-path="url(#id_0)" d="M502.15714 175.7089L503.8892 178.7089L500.42508 178.7089Z" fill-rule="nonzero"/><path fill="#ea4335" clip-path="url(#id_0)" d="M596.3143 175.7089L598.0463 178.7089L594.5822 178.7089Z" fill-rule="nonzero"/><path fill="#ea4335" clip-path="url(#id_0)" d="M690.47144 175.7089L692.2035 178.7089L688.7394 178.7089Z" fill-rule="nonzero"/><path fill="#000000" d="M387.42188 341.00113L387.42188 332.40738L390.67188 332.40738Q391.51562 332.40738 391.96875 332.4855Q392.60938 332.59488 393.03125 332.89175Q393.46875 333.18863 393.71875 333.71988Q393.98438 334.25113 393.98438 334.89175Q393.98438 335.9855 393.28125 336.75113Q392.59375 337.50113 390.76562 337.50113L388.5625 337.50113L388.5625 341.00113L387.42188 341.00113ZM388.5625 336.50113L390.78125 336.50113Q391.89062 336.50113 392.34375 336.09488Q392.8125 335.673 392.8125 334.923Q392.8125 334.39175 392.53125 334.01675Q392.26562 333.62613 391.82812 333.50113Q391.53125 333.423 390.76562 333.423L388.5625 333.423L388.5625 336.50113ZM399.54688 339.00113L400.64062 339.12613Q400.39062 340.07925 399.6875 340.6105Q398.98438 341.14175 397.90625 341.14175Q396.54688 341.14175 395.73438 340.298Q394.9375 339.45425 394.9375 337.93863Q394.9375 336.37613 395.75 335.51675Q396.5625 334.64175 397.84375 334.64175Q399.09375 334.64175 399.875 335.4855Q400.67188 336.32925 400.67188 337.87613Q400.67188 337.96988 400.67188 338.15738L396.03125 338.15738Q396.09375 339.18863 396.60938 339.7355Q397.125 340.26675 397.90625 340.26675Q398.48438 340.26675 398.89062 339.96988Q399.3125 339.65738 399.54688 339.00113ZM396.09375 337.298L399.5625 337.298Q399.5 336.50113 399.17188 336.1105Q398.65625 335.50113 397.85938 335.50113Q397.125 335.50113 396.625 335.9855Q396.14062 336.46988 396.09375 337.298ZM402.28125 341.00113L402.28125 334.78238L403.23438 334.78238L403.23438 335.71988Q403.59375 335.06363 403.89062 334.8605Q404.20312 334.64175 404.57812 334.64175Q405.10938 334.64175 405.65625 334.96988L405.29688 335.95425Q404.90625 335.71988 404.53125 335.71988Q404.17188 335.71988 403.89062 335.93863Q403.625 336.14175 403.51562 336.51675Q403.32812 337.07925 403.32812 337.7355L403.32812 341.00113L402.28125 341.00113ZM406.29688 333.62613L406.29688 332.40738L407.35938 332.40738L407.35938 333.62613L406.29688 333.62613ZM406.29688 341.00113L406.29688 334.78238L407.35938 334.78238L407.35938 341.00113L406.29688 341.00113ZM408.90625 337.89175Q408.90625 336.15738 409.85938 335.32925Q410.65625 334.64175 411.8125 334.64175Q413.09375 334.64175 413.90625 335.4855Q414.73438 336.31363 414.73438 337.798Q414.73438 339.00113 414.375 339.68863Q414.01562 340.37613 413.3125 340.76675Q412.625 341.14175 411.8125 341.14175Q410.51562 341.14175 409.70312 340.31363Q408.90625 339.46988 408.90625 337.89175ZM409.98438 337.89175Q409.98438 339.07925 410.5 339.673Q411.03125 340.26675 411.8125 340.26675Q412.60938 340.26675 413.125 339.673Q413.64062 339.07925 413.64062 337.8605Q413.64062 336.70425 413.10938 336.1105Q412.59375 335.51675 411.8125 335.51675Q411.03125 335.51675 410.5 336.1105Q409.98438 336.68863 409.98438 337.89175ZM420.32812 341.00113L420.32812 340.21988Q419.73438 341.14175 418.59375 341.14175Q417.84375 341.14175 417.21875 340.7355Q416.59375 340.31363 416.25 339.57925Q415.90625 338.84488 415.90625 337.89175Q415.90625 336.96988 416.21875 336.20425Q416.53125 335.43863 417.15625 335.048Q417.78125 334.64175 418.54688 334.64175Q419.10938 334.64175 419.54688 334.87613Q419.98438 335.1105 420.26562 335.4855L420.26562 332.40738L421.3125 332.40738L421.3125 341.00113L420.32812 341.00113ZM417.0 337.89175Q417.0 339.09488 417.5 339.68863Q418.0 340.26675 418.6875 340.26675Q419.375 340.26675 419.85938 339.70425Q420.34375 339.14175 420.34375 337.9855Q420.34375 336.70425 419.84375 336.1105Q419.35938 335.51675 418.64062 335.51675Q417.9375 335.51675 417.46875 336.09488Q417.0 336.65738 417.0 337.89175ZM422.90625 337.89175Q422.90625 336.15738 423.85938 335.32925Q424.65625 334.64175 425.8125 334.64175Q427.09375 334.64175 427.90625 335.4855Q428.73438 336.31363 428.73438 337.798Q428.73438 339.00113 428.375 339.68863Q428.01562 340.37613 427.3125 340.76675Q426.625 341.14175 425.8125 341.14175Q424.51562 341.14175 423.70312 340.31363Q422.90625 339.46988 422.90625 337.89175ZM423.98438 337.89175Q423.98438 339.07925 424.5 339.673Q425.03125 340.26675 425.8125 340.26675Q426.60938 340.26675 427.125 339.673Q427.64062 339.07925 427.64062 337.8605Q427.64062 336.70425 427.10938 336.1105Q426.59375 335.51675 425.8125 335.51675Q425.03125 335.51675 424.5 336.1105Q423.98438 336.68863 423.98438 337.89175Z" fill-rule="nonzero"/><path fill="#000000" d="M30.450006 198.3339L21.856256 201.66202L21.856256 200.42764L28.106256 198.19327Q28.856256 197.92764 29.512506 197.74014Q28.809381 197.53702 28.106256 197.2714L21.856256 194.9589L21.856256 193.80264L30.450006 197.16202L30.450006 198.3339ZM29.684381 189.84952Q30.184381 190.44327 30.387506 190.99014Q30.590631 191.5214 30.590631 192.1464Q30.590631 193.17764 30.090631 193.72452Q29.590631 194.2714 28.809381 194.2714Q28.356256 194.2714 27.981256 194.06827Q27.590631 193.86514 27.371881 193.5214Q27.137506 193.17764 27.028131 192.75577Q26.934381 192.4589 26.856256 191.81827Q26.715631 190.55264 26.496881 189.94327Q26.278131 189.94327 26.231256 189.94327Q25.575006 189.94327 25.309381 190.24014Q24.965631 190.6464 24.965631 191.44327Q24.965631 192.17764 25.231256 192.53702Q25.481256 192.8964 26.137506 193.06827L25.996881 194.09952Q25.340631 193.9589 24.934381 193.63077Q24.528131 193.30264 24.309381 192.69327Q24.090631 192.0839 24.090631 191.28702Q24.090631 190.49014 24.278131 189.99014Q24.465631 189.49014 24.746881 189.25577Q25.028131 189.0214 25.465631 188.92764Q25.731256 188.88077 26.434381 188.88077L27.840631 188.88077Q29.309381 188.88077 29.700006 188.81827Q30.090631 188.74014 30.450006 188.53702L30.450006 189.6464Q30.121881 189.80264 29.684381 189.84952ZM27.325006 189.94327Q27.559381 190.5214 27.731256 191.66202Q27.825006 192.31827 27.950006 192.5839Q28.059381 192.84952 28.278131 193.00577Q28.496881 193.1464 28.778131 193.1464Q29.200006 193.1464 29.481256 192.8339Q29.762506 192.50577 29.762506 191.8964Q29.762506 191.28702 29.496881 190.81827Q29.231256 190.3339 28.762506 190.11514Q28.403131 189.94327 27.715631 189.94327L27.325006 189.94327ZM30.450006 186.94327L21.856256 186.94327L21.856256 185.88077L30.450006 185.88077L30.450006 186.94327ZM27.340631 184.30264Q25.606256 184.30264 24.778131 183.34952Q24.090631 182.55264 24.090631 181.3964Q24.090631 180.11514 24.934381 179.30264Q25.762506 178.47452 27.246881 178.47452Q28.450006 178.47452 29.137506 178.8339Q29.825006 179.19327 30.215631 179.8964Q30.590631 180.5839 30.590631 181.3964Q30.590631 182.69327 29.762506 183.50577Q28.918756 184.30264 27.340631 184.30264ZM27.340631 183.22452Q28.528131 183.22452 29.121881 182.7089Q29.715631 182.17764 29.715631 181.3964Q29.715631 180.59952 29.121881 180.0839Q28.528131 179.56827 27.309381 179.56827Q26.153131 179.56827 25.559381 180.09952Q24.965631 180.61514 24.965631 181.3964Q24.965631 182.17764 25.559381 182.7089Q26.137506 183.22452 27.340631 183.22452ZM30.450006 176.92764L24.231256 176.92764L24.231256 175.97452L25.168756 175.97452Q24.512506 175.61514 24.309381 175.31827Q24.090631 175.00577 24.090631 174.63077Q24.090631 174.09952 24.418756 173.55264L25.403131 173.91202Q25.168756 174.30264 25.168756 174.67764Q25.168756 175.03702 25.387506 175.31827Q25.590631 175.5839 25.965631 175.69327Q26.528131 175.88077 27.184381 175.88077L30.450006 175.88077L30.450006 176.92764ZM28.450006 168.66202L28.575006 167.56827Q29.528131 167.81827 30.059381 168.5214Q30.590631 169.22452 30.590631 170.30264Q30.590631 171.66202 29.746881 172.47452Q28.903131 173.2714 27.387506 173.2714Q25.825006 173.2714 24.965631 172.4589Q24.090631 171.6464 24.090631 170.36514Q24.090631 169.11514 24.934381 168.3339Q25.778131 167.53702 27.325006 167.53702Q27.418756 167.53702 27.606256 167.53702L27.606256 172.17764Q28.637506 172.11514 29.184381 171.59952Q29.715631 171.0839 29.715631 170.30264Q29.715631 169.72452 29.418756 169.31827Q29.106256 168.8964 28.450006 168.66202ZM26.746881 172.11514L26.746881 168.6464Q25.950006 168.7089 25.559381 169.03702Q24.950006 169.55264 24.950006 170.34952Q24.950006 171.0839 25.434381 171.5839Q25.918756 172.06827 26.746881 172.11514Z" fill-rule="nonzero"/><path fill="#000000" d="M67.575 291.34488Q66.91875 291.09488 66.59062 290.65738Q66.27812 290.20425 66.27812 289.59488Q66.27812 288.65738 66.95 288.01675Q67.6375 287.37613 68.74687 287.37613Q69.87187 287.37613 70.55937 288.03238Q71.24687 288.68863 71.24687 289.62613Q71.24687 290.21988 70.93437 290.65738Q70.62187 291.09488 69.98125 291.34488Q70.77812 291.59488 71.18437 292.173Q71.59062 292.75113 71.59062 293.548Q71.59062 294.64175 70.80937 295.39175Q70.04375 296.14175 68.7625 296.14175Q67.49687 296.14175 66.71562 295.39175Q65.93437 294.64175 65.93437 293.51675Q65.93437 292.673 66.35625 292.1105Q66.79375 291.548 67.575 291.34488ZM67.35625 289.548Q67.35625 290.15738 67.74687 290.548Q68.15312 290.93863 68.77812 290.93863Q69.3875 290.93863 69.77812 290.56363Q70.16875 290.173 70.16875 289.6105Q70.16875 289.03238 69.7625 288.64175Q69.35625 288.2355 68.7625 288.2355Q68.15312 288.2355 67.74687 288.62613Q67.35625 289.01675 67.35625 289.548ZM67.02812 293.51675Q67.02812 293.96988 67.23125 294.39175Q67.45 294.81363 67.87187 295.048Q68.29375 295.28238 68.77812 295.28238Q69.52812 295.28238 70.0125 294.798Q70.5125 294.31363 70.5125 293.56363Q70.5125 292.798 70.0125 292.298Q69.5125 291.798 68.74687 291.798Q67.99687 291.798 67.5125 292.298Q67.02812 292.78238 67.02812 293.51675Z" fill-rule="nonzero"/><path fill="#000000" d="M66.10625 236.87064L67.12187 236.77689Q67.24687 237.49564 67.60625 237.82376Q67.98125 238.13626 68.54375 238.13626Q69.02812 238.13626 69.3875 237.91751Q69.7625 237.68314 69.99687 237.32376Q70.23125 236.94876 70.3875 236.32376Q70.54375 235.68314 70.54375 235.02689Q70.54375 234.94876 70.54375 234.80814Q70.23125 235.30814 69.68437 235.63626Q69.1375 235.94876 68.49687 235.94876Q67.41875 235.94876 66.68437 235.18314Q65.95 234.40189 65.95 233.13626Q65.95 231.82376 66.71562 231.02689Q67.49687 230.23001 68.65312 230.23001Q69.48125 230.23001 70.16875 230.68314Q70.87187 231.13626 71.23125 231.98001Q71.59062 232.80814 71.59062 234.38626Q71.59062 236.02689 71.23125 237.01126Q70.8875 237.98001 70.16875 238.49564Q69.46562 238.99564 68.52812 238.99564Q67.5125 238.99564 66.87187 238.44876Q66.23125 237.88626 66.10625 236.87064ZM70.41875 233.07376Q70.41875 232.16751 69.93437 231.63626Q69.46562 231.10501 68.77812 231.10501Q68.075 231.10501 67.54375 231.68314Q67.02812 232.24564 67.02812 233.16751Q67.02812 233.98001 67.52812 234.49564Q68.02812 235.01126 68.74687 235.01126Q69.48125 235.01126 69.95 234.49564Q70.41875 233.98001 70.41875 233.07376Z" fill-rule="nonzero"/><path fill="#000000" d="M62.91875 181.7089L61.871876 181.7089L61.871876 174.99014Q61.48125 175.34952 60.85625 175.72452Q60.246876 176.0839 59.7625 176.25577L59.7625 175.24014Q60.6375 174.81827 61.29375 174.24014Q61.965626 173.6464 62.246876 173.0839L62.91875 173.0839L62.91875 181.7089ZM65.95 177.47452Q65.95 175.94327 66.2625 175.0214Q66.575 174.0839 67.18437 173.5839Q67.80937 173.0839 68.74687 173.0839Q69.43437 173.0839 69.95 173.36514Q70.48125 173.6464 70.825 174.17764Q71.16875 174.69327 71.35625 175.44327Q71.54375 176.19327 71.54375 177.47452Q71.54375 178.99014 71.23125 179.91202Q70.93437 180.8339 70.30937 181.34952Q69.7 181.84952 68.74687 181.84952Q67.5125 181.84952 66.79375 180.9589Q65.95 179.8964 65.95 177.47452ZM67.02812 177.47452Q67.02812 179.5839 67.52812 180.28702Q68.02812 180.99014 68.74687 180.99014Q69.48125 180.99014 69.96562 180.28702Q70.46562 179.5839 70.46562 177.47452Q70.46562 175.34952 69.96562 174.66202Q69.48125 173.9589 68.73125 173.9589Q68.0125 173.9589 67.575 174.56827Q67.02812 175.34952 67.02812 177.47452Z" fill-rule="nonzero"/><path fill="#000000" d="M62.91875 124.56278L61.871876 124.56278L61.871876 117.84403Q61.48125 118.20341 60.85625 118.57841Q60.246876 118.93778 59.7625 119.10966L59.7625 118.09403Q60.6375 117.67216 61.29375 117.09403Q61.965626 116.50028 62.246876 115.93778L62.91875 115.93778L62.91875 124.56278ZM69.91875 124.56278L68.87187 124.56278L68.87187 117.84403Q68.48125 118.20341 67.85625 118.57841Q67.24687 118.93778 66.7625 119.10966L66.7625 118.09403Q67.6375 117.67216 68.29375 117.09403Q68.96562 116.50028 69.24687 115.93778L69.91875 115.93778L69.91875 124.56278Z" fill-rule="nonzero"/><path fill="#000000" d="M62.91875 67.416664L61.871876 67.416664L61.871876 60.697914Q61.48125 61.05729 60.85625 61.43229Q60.246876 61.791664 59.7625 61.96354L59.7625 60.947914Q60.6375 60.52604 61.29375 59.947914Q61.965626 59.354164 62.246876 58.791664L62.91875 58.791664L62.91875 67.416664ZM71.49687 66.40104L71.49687 67.416664L65.80937 67.416664Q65.80937 67.041664 65.93437 66.68229Q66.15312 66.104164 66.62187 65.541664Q67.10625 64.979164 68.0125 64.24479Q69.41875 63.08854 69.90312 62.416664Q70.40312 61.74479 70.40312 61.15104Q70.40312 60.52604 69.95 60.104164Q69.49687 59.666664 68.77812 59.666664Q68.0125 59.666664 67.55937 60.11979Q67.10625 60.572914 67.09062 61.385414L66.0125 61.27604Q66.12187 60.05729 66.84062 59.43229Q67.575 58.791664 68.80937 58.791664Q70.04375 58.791664 70.7625 59.479164Q71.48125 60.166664 71.48125 61.18229Q71.48125 61.697914 71.2625 62.197914Q71.05937 62.68229 70.55937 63.24479Q70.075 63.791664 68.95 64.74479Q67.99687 65.541664 67.71562 65.83854Q67.45 66.11979 67.27812 66.40104L71.49687 66.40104Z" fill-rule="nonzero"/><path fill="#000000" d="M84.01295 309.00113L87.30982 300.40738L88.52857 300.40738L92.0442 309.00113L90.76295 309.00113L89.74732 306.39175L86.1692 306.39175L85.21607 309.00113L84.01295 309.00113ZM86.49732 305.46988L89.40357 305.46988L88.51295 303.09488Q88.09107 302.01675 87.90357 301.31363Q87.7317 302.14175 87.43482 302.95425L86.49732 305.46988ZM91.62232 309.51675L92.65357 309.673Q92.71607 310.14175 93.01295 310.3605Q93.40357 310.65738 94.07545 310.65738Q94.80982 310.65738 95.20045 310.3605Q95.6067 310.06363 95.74732 309.548Q95.84107 309.21988 95.82545 308.18863Q95.13795 309.00113 94.1067 309.00113Q92.82545 309.00113 92.12232 308.07925Q91.4192 307.14175 91.4192 305.8605Q91.4192 304.96988 91.7317 304.21988Q92.05982 303.45425 92.6692 303.048Q93.27857 302.64175 94.1067 302.64175Q95.21607 302.64175 95.93482 303.53238L95.93482 302.78238L96.90357 302.78238L96.90357 308.15738Q96.90357 309.6105 96.6067 310.21988Q96.30982 310.82925 95.6692 311.173Q95.02857 311.53238 94.09107 311.53238Q92.9817 311.53238 92.2942 311.03238Q91.6067 310.53238 91.62232 309.51675ZM92.49732 305.78238Q92.49732 307.00113 92.9817 307.56363Q93.46607 308.12613 94.20045 308.12613Q94.93482 308.12613 95.4192 307.56363Q95.9192 307.00113 95.9192 305.81363Q95.9192 304.673 95.40357 304.09488Q94.90357 303.51675 94.18482 303.51675Q93.4817 303.51675 92.9817 304.09488Q92.49732 304.65738 92.49732 305.78238ZM98.62232 309.51675L99.65357 309.673Q99.71607 310.14175 100.01295 310.3605Q100.40357 310.65738 101.07545 310.65738Q101.80982 310.65738 102.20045 310.3605Q102.6067 310.06363 102.74732 309.548Q102.84107 309.21988 102.82545 308.18863Q102.13795 309.00113 101.1067 309.00113Q99.82545 309.00113 99.12232 308.07925Q98.4192 307.14175 98.4192 305.8605Q98.4192 304.96988 98.7317 304.21988Q99.05982 303.45425 99.6692 303.048Q100.27857 302.64175 101.1067 302.64175Q102.21607 302.64175 102.93482 303.53238L102.93482 302.78238L103.90357 302.78238L103.90357 308.15738Q103.90357 309.6105 103.6067 310.21988Q103.30982 310.82925 102.6692 311.173Q102.02857 311.53238 101.09107 311.53238Q99.9817 311.53238 99.2942 311.03238Q98.6067 310.53238 98.62232 309.51675ZM99.49732 305.78238Q99.49732 307.00113 99.9817 307.56363Q100.46607 308.12613 101.20045 308.12613Q101.93482 308.12613 102.4192 307.56363Q102.9192 307.00113 102.9192 305.81363Q102.9192 304.673 102.40357 304.09488Q101.90357 303.51675 101.18482 303.51675Q100.4817 303.51675 99.9817 304.09488Q99.49732 304.65738 99.49732 305.78238ZM105.82545 301.62613L105.82545 300.40738L106.88795 300.40738L106.88795 301.62613L105.82545 301.62613ZM105.82545 309.00113L105.82545 302.78238L106.88795 302.78238L106.88795 309.00113L105.82545 309.00113ZM112.90357 309.00113L112.90357 308.07925Q112.1692 309.14175 110.9192 309.14175Q110.37232 309.14175 109.88795 308.93863Q109.4192 308.71988 109.18482 308.40738Q108.95045 308.07925 108.8567 307.6105Q108.7942 307.31363 108.7942 306.62613L108.7942 302.78238L109.8567 302.78238L109.8567 306.2355Q109.8567 307.048 109.9192 307.34488Q110.01295 307.75113 110.32545 308.00113Q110.65357 308.2355 111.13795 308.2355Q111.6067 308.2355 112.01295 308.00113Q112.43482 307.75113 112.6067 307.32925Q112.7942 306.90738 112.7942 306.1105L112.7942 302.78238L113.84107 302.78238L113.84107 309.00113L112.90357 309.00113ZM119.8567 309.00113L119.8567 308.21988Q119.26295 309.14175 118.12232 309.14175Q117.37232 309.14175 116.74732 308.7355Q116.12232 308.31363 115.77857 307.57925Q115.43482 306.84488 115.43482 305.89175Q115.43482 304.96988 115.74732 304.20425Q116.05982 303.43863 116.68482 303.048Q117.30982 302.64175 118.07545 302.64175Q118.63795 302.64175 119.07545 302.87613Q119.51295 303.1105 119.7942 303.4855L119.7942 300.40738L120.84107 300.40738L120.84107 309.00113L119.8567 309.00113ZM116.52857 305.89175Q116.52857 307.09488 117.02857 307.68863Q117.52857 308.26675 118.21607 308.26675Q118.90357 308.26675 119.38795 307.70425Q119.87232 307.14175 119.87232 305.9855Q119.87232 304.70425 119.37232 304.1105Q118.88795 303.51675 118.1692 303.51675Q117.46607 303.51675 116.99732 304.09488Q116.52857 304.65738 116.52857 305.89175ZM122.82545 301.62613L122.82545 300.40738L123.88795 300.40738L123.88795 301.62613L122.82545 301.62613ZM122.82545 309.00113L122.82545 302.78238L123.88795 302.78238L123.88795 309.00113L122.82545 309.00113ZM129.88794 306.71988L130.91919 306.8605Q130.74731 307.923 130.04419 308.53238Q129.34106 309.14175 128.32544 309.14175Q127.0442 309.14175 126.26295 308.31363Q125.49732 307.46988 125.49732 305.90738Q125.49732 304.90738 125.82545 304.15738Q126.1692 303.39175 126.84107 303.01675Q127.52857 302.64175 128.34106 302.64175Q129.34106 302.64175 129.98169 303.15738Q130.63794 303.65738 130.82544 304.6105L129.79419 304.76675Q129.65356 304.14175 129.27856 303.82925Q128.90356 303.50113 128.37231 303.50113Q127.57545 303.50113 127.07545 304.07925Q126.57545 304.64175 126.57545 305.87613Q126.57545 307.14175 127.05982 307.70425Q127.5442 308.26675 128.30981 308.26675Q128.93481 308.26675 129.34106 307.89175Q129.76294 307.51675 129.88794 306.71988ZM135.88794 308.2355Q135.29419 308.7355 134.74731 308.93863Q134.21606 309.14175 133.59106 309.14175Q132.55981 309.14175 132.01294 308.64175Q131.46606 308.14175 131.46606 307.3605Q131.46606 306.90738 131.66919 306.53238Q131.87231 306.14175 132.21606 305.923Q132.55981 305.68863 132.98169 305.57925Q133.27856 305.4855 133.91919 305.40738Q135.18481 305.26675 135.79419 305.048Q135.79419 304.82925 135.79419 304.78238Q135.79419 304.12613 135.49731 303.8605Q135.09106 303.51675 134.29419 303.51675Q133.55981 303.51675 133.20044 303.78238Q132.84106 304.03238 132.66919 304.68863L131.63794 304.548Q131.77856 303.89175 132.10669 303.4855Q132.43481 303.07925 133.04419 302.8605Q133.65356 302.64175 134.45044 302.64175Q135.24731 302.64175 135.74731 302.82925Q136.24731 303.01675 136.48169 303.298Q136.71606 303.57925 136.80981 304.01675Q136.85669 304.28238 136.85669 304.9855L136.85669 306.39175Q136.85669 307.8605 136.91919 308.25113Q136.99731 308.64175 137.20044 309.00113L136.09106 309.00113Q135.93481 308.673 135.88794 308.2355ZM135.79419 305.87613Q135.21606 306.1105 134.07544 306.28238Q133.41919 306.37613 133.15356 306.50113Q132.88794 306.6105 132.73169 306.82925Q132.59106 307.048 132.59106 307.32925Q132.59106 307.75113 132.90356 308.03238Q133.23169 308.31363 133.84106 308.31363Q134.45044 308.31363 134.91919 308.048Q135.40356 307.78238 135.62231 307.31363Q135.79419 306.95425 135.79419 306.26675L135.79419 305.87613ZM138.26294 309.00113L138.26294 308.14175L142.23169 303.59488Q141.54419 303.62613 141.02856 303.62613L138.49731 303.62613L138.49731 302.78238L143.59106 302.78238L143.59106 303.46988L140.21606 307.423L139.55981 308.14175Q140.27856 308.09488 140.88794 308.09488L143.77856 308.09488L143.77856 309.00113L138.26294 309.00113ZM143.82544 301.62613L143.82544 300.40738L144.88794 300.40738L144.88794 301.62613L143.82544 301.62613ZM143.82544 309.00113L143.82544 302.78238L144.88794 302.78238L144.88794 309.00113L143.82544 309.00113ZM146.43481 305.89175Q146.43481 304.15738 147.38794 303.32925Q148.18481 302.64175 149.34106 302.64175Q150.62231 302.64175 151.43481 303.4855Q152.26294 304.31363 152.26294 305.798Q152.26294 307.00113 151.90356 307.68863Q151.54419 308.37613 150.84106 308.76675Q150.15356 309.14175 149.34106 309.14175Q148.04419 309.14175 147.23169 308.31363Q146.43481 307.46988 146.43481 305.89175ZM147.51294 305.89175Q147.51294 307.07925 148.02856 307.673Q148.55981 308.26675 149.34106 308.26675Q150.13794 308.26675 150.65356 307.673Q151.16919 307.07925 151.16919 305.8605Q151.16919 304.70425 150.63794 304.1105Q150.12231 303.51675 149.34106 303.51675Q148.55981 303.51675 148.02856 304.1105Q147.51294 304.68863 147.51294 305.89175ZM153.82544 309.00113L153.82544 302.78238L154.76294 302.78238L154.76294 303.65738Q155.45044 302.64175 156.74731 302.64175Q157.30981 302.64175 157.77856 302.84488Q158.26294 303.048 158.49731 303.37613Q158.73169 303.70425 158.82544 304.14175Q158.87231 304.43863 158.87231 305.173L158.87231 309.00113L157.82544 309.00113L157.82544 305.21988Q157.82544 304.56363 157.70044 304.25113Q157.57544 303.93863 157.26294 303.75113Q156.95044 303.548 156.52856 303.548Q155.85669 303.548 155.35669 303.9855Q154.87231 304.40738 154.87231 305.59488L154.87231 309.00113L153.82544 309.00113ZM165.07544 307.00113L166.16919 307.12613Q165.91919 308.07925 165.21606 308.6105Q164.51294 309.14175 163.43481 309.14175Q162.07544 309.14175 161.26294 308.298Q160.46606 307.45425 160.46606 305.93863Q160.46606 304.37613 161.27856 303.51675Q162.09106 302.64175 163.37231 302.64175Q164.62231 302.64175 165.40356 303.4855Q166.20044 304.32925 166.20044 305.87613Q166.20044 305.96988 166.20044 306.15738L161.55981 306.15738Q161.62231 307.18863 162.13794 307.7355Q162.65356 308.26675 163.43481 308.26675Q164.01294 308.26675 164.41919 307.96988Q164.84106 307.65738 165.07544 307.00113ZM161.62231 305.298L165.09106 305.298Q165.02856 304.50113 164.70044 304.1105Q164.18481 303.50113 163.38794 303.50113Q162.65356 303.50113 162.15356 303.9855Q161.66919 304.46988 161.62231 305.298Z" fill-rule="nonzero"/><path fill="#000000" d="M199.23259 306.2355L200.29509 306.14175Q200.37321 306.798 200.65446 307.20425Q200.93571 307.6105 201.51384 307.87613Q202.10759 308.12613 202.84196 308.12613Q203.48259 308.12613 203.98259 307.93863Q204.48259 307.7355 204.71696 307.40738Q204.96696 307.06363 204.96696 306.673Q204.96696 306.26675 204.73259 305.96988Q204.49821 305.65738 203.96696 305.45425Q203.60759 305.31363 202.42009 305.03238Q201.24821 304.75113 200.77946 304.50113Q200.15446 304.173 199.85759 303.70425Q199.56071 303.21988 199.56071 302.62613Q199.56071 301.9855 199.92009 301.423Q200.29509 300.84488 200.99821 300.56363Q201.71696 300.26675 202.57634 300.26675Q203.52946 300.26675 204.26384 300.57925Q204.99821 300.87613 205.38884 301.4855Q205.77946 302.07925 205.81071 302.82925L204.71696 302.90738Q204.62321 302.09488 204.10759 301.68863Q203.60759 301.26675 202.62321 301.26675Q201.59196 301.26675 201.12321 301.64175Q200.65446 302.01675 200.65446 302.548Q200.65446 303.01675 200.98259 303.31363Q201.31071 303.6105 202.68571 303.923Q204.07634 304.2355 204.59196 304.46988Q205.34196 304.82925 205.70134 305.3605Q206.06071 305.87613 206.06071 306.57925Q206.06071 307.26675 205.67009 307.87613Q205.27946 308.46988 204.54509 308.81363Q203.81071 309.14175 202.88884 309.14175Q201.71696 309.14175 200.92009 308.81363Q200.13884 308.46988 199.68571 307.78238Q199.24821 307.09488 199.23259 306.2355ZM207.48259 311.39175L207.48259 302.78238L208.43571 302.78238L208.43571 303.57925Q208.77946 303.1105 209.20134 302.87613Q209.63884 302.64175 210.24821 302.64175Q211.04509 302.64175 211.65446 303.048Q212.26384 303.45425 212.56071 304.20425Q212.87321 304.95425 212.87321 305.84488Q212.87321 306.798 212.52946 307.56363Q212.20134 308.32925 211.54509 308.7355Q210.88884 309.14175 210.17009 309.14175Q209.63884 309.14175 209.21696 308.923Q208.79509 308.68863 208.52946 308.3605L208.52946 311.39175L207.48259 311.39175ZM208.43571 305.923Q208.43571 307.12613 208.92009 307.70425Q209.40446 308.26675 210.09196 308.26675Q210.79509 308.26675 211.29509 307.673Q211.79509 307.07925 211.79509 305.82925Q211.79509 304.64175 211.31071 304.06363Q210.82634 303.46988 210.13884 303.46988Q209.46696 303.46988 208.95134 304.09488Q208.43571 304.71988 208.43571 305.923ZM214.46696 309.00113L214.46696 302.78238L215.42009 302.78238L215.42009 303.71988Q215.77946 303.06363 216.07634 302.8605Q216.38884 302.64175 216.76384 302.64175Q217.29509 302.64175 217.84196 302.96988L217.48259 303.95425Q217.09196 303.71988 216.71696 303.71988Q216.35759 303.71988 216.07634 303.93863Q215.81071 304.14175 215.70134 304.51675Q215.51384 305.07925 215.51384 305.7355L215.51384 309.00113L214.46696 309.00113ZM218.48259 301.62613L218.48259 300.40738L219.54509 300.40738L219.54509 301.62613L218.48259 301.62613ZM218.48259 309.00113L218.48259 302.78238L219.54509 302.78238L219.54509 309.00113L218.48259 309.00113ZM221.48259 309.00113L221.48259 302.78238L222.42009 302.78238L222.42009 303.65738Q223.10759 302.64175 224.40446 302.64175Q224.96696 302.64175 225.43571 302.84488Q225.92009 303.048 226.15446 303.37613Q226.38884 303.70425 226.48259 304.14175Q226.52946 304.43863 226.52946 305.173L226.52946 309.00113L225.48259 309.00113L225.48259 305.21988Q225.48259 304.56363 225.35759 304.25113Q225.23259 303.93863 224.92009 303.75113Q224.60759 303.548 224.18571 303.548Q223.51384 303.548 223.01384 303.9855Q222.52946 304.40738 222.52946 305.59488L222.52946 309.00113L221.48259 309.00113ZM230.77946 308.06363L230.93571 308.9855Q230.48259 309.07925 230.13884 309.07925Q229.56071 309.07925 229.24821 308.90738Q228.93571 308.71988 228.79509 308.423Q228.67009 308.12613 228.67009 307.173L228.67009 303.59488L227.90446 303.59488L227.90446 302.78238L228.67009 302.78238L228.67009 301.2355L229.71696 300.6105L229.71696 302.78238L230.77946 302.78238L230.77946 303.59488L229.71696 303.59488L229.71696 307.2355Q229.71696 307.68863 229.76384 307.81363Q229.82634 307.93863 229.95134 308.01675Q230.07634 308.09488 230.31071 308.09488Q230.49821 308.09488 230.77946 308.06363ZM238.15446 309.00113L237.10759 309.00113L237.10759 302.28238Q236.71696 302.64175 236.09196 303.01675Q235.48259 303.37613 234.99821 303.548L234.99821 302.53238Q235.87321 302.1105 236.52946 301.53238Q237.20134 300.93863 237.48259 300.37613L238.15446 300.37613L238.15446 309.00113Z" fill-rule="nonzero"/><path fill="#000000" d="M293.38974 306.2355L294.45224 306.14175Q294.53036 306.798 294.8116 307.20425Q295.09286 307.6105 295.671 307.87613Q296.26474 308.12613 296.9991 308.12613Q297.63974 308.12613 298.13974 307.93863Q298.63974 307.7355 298.8741 307.40738Q299.1241 307.06363 299.1241 306.673Q299.1241 306.26675 298.88974 305.96988Q298.65536 305.65738 298.1241 305.45425Q297.76474 305.31363 296.57724 305.03238Q295.40536 304.75113 294.9366 304.50113Q294.3116 304.173 294.01474 303.70425Q293.71786 303.21988 293.71786 302.62613Q293.71786 301.9855 294.07724 301.423Q294.45224 300.84488 295.15536 300.56363Q295.8741 300.26675 296.7335 300.26675Q297.6866 300.26675 298.421 300.57925Q299.15536 300.87613 299.546 301.4855Q299.9366 302.07925 299.96786 302.82925L298.8741 302.90738Q298.78036 302.09488 298.26474 301.68863Q297.76474 301.26675 296.78036 301.26675Q295.7491 301.26675 295.28036 301.64175Q294.8116 302.01675 294.8116 302.548Q294.8116 303.01675 295.13974 303.31363Q295.46786 303.6105 296.84286 303.923Q298.2335 304.2355 298.7491 304.46988Q299.4991 304.82925 299.8585 305.3605Q300.21786 305.87613 300.21786 306.57925Q300.21786 307.26675 299.82724 307.87613Q299.4366 308.46988 298.70224 308.81363Q297.96786 309.14175 297.046 309.14175Q295.8741 309.14175 295.07724 308.81363Q294.296 308.46988 293.84286 307.78238Q293.40536 307.09488 293.38974 306.2355ZM301.63974 311.39175L301.63974 302.78238L302.59286 302.78238L302.59286 303.57925Q302.9366 303.1105 303.3585 302.87613Q303.796 302.64175 304.40536 302.64175Q305.20224 302.64175 305.8116 303.048Q306.421 303.45425 306.71786 304.20425Q307.03036 304.95425 307.03036 305.84488Q307.03036 306.798 306.6866 307.56363Q306.3585 308.32925 305.70224 308.7355Q305.046 309.14175 304.32724 309.14175Q303.796 309.14175 303.3741 308.923Q302.95224 308.68863 302.6866 308.3605L302.6866 311.39175L301.63974 311.39175ZM302.59286 305.923Q302.59286 307.12613 303.07724 307.70425Q303.5616 308.26675 304.2491 308.26675Q304.95224 308.26675 305.45224 307.673Q305.95224 307.07925 305.95224 305.82925Q305.95224 304.64175 305.46786 304.06363Q304.9835 303.46988 304.296 303.46988Q303.6241 303.46988 303.1085 304.09488Q302.59286 304.71988 302.59286 305.923ZM308.6241 309.00113L308.6241 302.78238L309.57724 302.78238L309.57724 303.71988Q309.9366 303.06363 310.2335 302.8605Q310.546 302.64175 310.921 302.64175Q311.45224 302.64175 311.9991 302.96988L311.63974 303.95425Q311.2491 303.71988 310.8741 303.71988Q310.51474 303.71988 310.2335 303.93863Q309.96786 304.14175 309.8585 304.51675Q309.671 305.07925 309.671 305.7355L309.671 309.00113L308.6241 309.00113ZM312.63974 301.62613L312.63974 300.40738L313.70224 300.40738L313.70224 301.62613L312.63974 301.62613ZM312.63974 309.00113L312.63974 302.78238L313.70224 302.78238L313.70224 309.00113L312.63974 309.00113ZM315.63974 309.00113L315.63974 302.78238L316.57724 302.78238L316.57724 303.65738Q317.26474 302.64175 318.5616 302.64175Q319.1241 302.64175 319.59286 302.84488Q320.07724 303.048 320.3116 303.37613Q320.546 303.70425 320.63974 304.14175Q320.6866 304.43863 320.6866 305.173L320.6866 309.00113L319.63974 309.00113L319.63974 305.21988Q319.63974 304.56363 319.51474 304.25113Q319.38974 303.93863 319.07724 303.75113Q318.76474 303.548 318.34286 303.548Q317.671 303.548 317.171 303.9855Q316.6866 304.40738 316.6866 305.59488L316.6866 309.00113L315.63974 309.00113ZM324.9366 308.06363L325.09286 308.9855Q324.63974 309.07925 324.296 309.07925Q323.71786 309.07925 323.40536 308.90738Q323.09286 308.71988 322.95224 308.423Q322.82724 308.12613 322.82724 307.173L322.82724 303.59488L322.0616 303.59488L322.0616 302.78238L322.82724 302.78238L322.82724 301.2355L323.8741 300.6105L323.8741 302.78238L324.9366 302.78238L324.9366 303.59488L323.8741 303.59488L323.8741 307.2355Q323.8741 307.68863 323.921 307.81363Q323.9835 307.93863 324.1085 308.01675Q324.2335 308.09488 324.46786 308.09488Q324.65536 308.09488 324.9366 308.06363ZM333.88974 307.9855L333.88974 309.00113L328.20224 309.00113Q328.20224 308.62613 328.32724 308.26675Q328.546 307.68863 329.01474 307.12613Q329.4991 306.56363 330.40536 305.82925Q331.8116 304.673 332.296 304.00113Q332.796 303.32925 332.796 302.7355Q332.796 302.1105 332.34286 301.68863Q331.88974 301.25113 331.171 301.25113Q330.40536 301.25113 329.95224 301.70425Q329.4991 302.15738 329.4835 302.96988L328.40536 302.8605Q328.51474 301.64175 329.2335 301.01675Q329.96786 300.37613 331.20224 300.37613Q332.4366 300.37613 333.15536 301.06363Q333.8741 301.75113 333.8741 302.76675Q333.8741 303.28238 333.65536 303.78238Q333.45224 304.26675 332.95224 304.82925Q332.46786 305.37613 331.34286 306.32925Q330.38974 307.12613 330.1085 307.423Q329.84286 307.70425 329.671 307.9855L333.88974 307.9855Z" fill-rule="nonzero"/><path fill="#000000" d="M387.54688 306.2355L388.60938 306.14175Q388.6875 306.798 388.96875 307.20425Q389.25 307.6105 389.82812 307.87613Q390.42188 308.12613 391.15625 308.12613Q391.79688 308.12613 392.29688 307.93863Q392.79688 307.7355 393.03125 307.40738Q393.28125 307.06363 393.28125 306.673Q393.28125 306.26675 393.04688 305.96988Q392.8125 305.65738 392.28125 305.45425Q391.92188 305.31363 390.73438 305.03238Q389.5625 304.75113 389.09375 304.50113Q388.46875 304.173 388.17188 303.70425Q387.875 303.21988 387.875 302.62613Q387.875 301.9855 388.23438 301.423Q388.60938 300.84488 389.3125 300.56363Q390.03125 300.26675 390.89062 300.26675Q391.84375 300.26675 392.57812 300.57925Q393.3125 300.87613 393.70312 301.4855Q394.09375 302.07925 394.125 302.82925L393.03125 302.90738Q392.9375 302.09488 392.42188 301.68863Q391.92188 301.26675 390.9375 301.26675Q389.90625 301.26675 389.4375 301.64175Q388.96875 302.01675 388.96875 302.548Q388.96875 303.01675 389.29688 303.31363Q389.625 303.6105 391.0 303.923Q392.39062 304.2355 392.90625 304.46988Q393.65625 304.82925 394.01562 305.3605Q394.375 305.87613 394.375 306.57925Q394.375 307.26675 393.98438 307.87613Q393.59375 308.46988 392.85938 308.81363Q392.125 309.14175 391.20312 309.14175Q390.03125 309.14175 389.23438 308.81363Q388.45312 308.46988 388.0 307.78238Q387.5625 307.09488 387.54688 306.2355ZM395.79688 311.39175L395.79688 302.78238L396.75 302.78238L396.75 303.57925Q397.09375 303.1105 397.51562 302.87613Q397.95312 302.64175 398.5625 302.64175Q399.35938 302.64175 399.96875 303.048Q400.57812 303.45425 400.875 304.20425Q401.1875 304.95425 401.1875 305.84488Q401.1875 306.798 400.84375 307.56363Q400.51562 308.32925 399.85938 308.7355Q399.20312 309.14175 398.48438 309.14175Q397.95312 309.14175 397.53125 308.923Q397.10938 308.68863 396.84375 308.3605L396.84375 311.39175L395.79688 311.39175ZM396.75 305.923Q396.75 307.12613 397.23438 307.70425Q397.71875 308.26675 398.40625 308.26675Q399.10938 308.26675 399.60938 307.673Q400.10938 307.07925 400.10938 305.82925Q400.10938 304.64175 399.625 304.06363Q399.14062 303.46988 398.45312 303.46988Q397.78125 303.46988 397.26562 304.09488Q396.75 304.71988 396.75 305.923ZM402.78125 309.00113L402.78125 302.78238L403.73438 302.78238L403.73438 303.71988Q404.09375 303.06363 404.39062 302.8605Q404.70312 302.64175 405.07812 302.64175Q405.60938 302.64175 406.15625 302.96988L405.79688 303.95425Q405.40625 303.71988 405.03125 303.71988Q404.67188 303.71988 404.39062 303.93863Q404.125 304.14175 404.01562 304.51675Q403.82812 305.07925 403.82812 305.7355L403.82812 309.00113L402.78125 309.00113ZM406.79688 301.62613L406.79688 300.40738L407.85938 300.40738L407.85938 301.62613L406.79688 301.62613ZM406.79688 309.00113L406.79688 302.78238L407.85938 302.78238L407.85938 309.00113L406.79688 309.00113ZM409.79688 309.00113L409.79688 302.78238L410.73438 302.78238L410.73438 303.65738Q411.42188 302.64175 412.71875 302.64175Q413.28125 302.64175 413.75 302.84488Q414.23438 303.048 414.46875 303.37613Q414.70312 303.70425 414.79688 304.14175Q414.84375 304.43863 414.84375 305.173L414.84375 309.00113L413.79688 309.00113L413.79688 305.21988Q413.79688 304.56363 413.67188 304.25113Q413.54688 303.93863 413.23438 303.75113Q412.92188 303.548 412.5 303.548Q411.82812 303.548 411.32812 303.9855Q410.84375 304.40738 410.84375 305.59488L410.84375 309.00113L409.79688 309.00113ZM419.09375 308.06363L419.25 308.9855Q418.79688 309.07925 418.45312 309.07925Q417.875 309.07925 417.5625 308.90738Q417.25 308.71988 417.10938 308.423Q416.98438 308.12613 416.98438 307.173L416.98438 303.59488L416.21875 303.59488L416.21875 302.78238L416.98438 302.78238L416.98438 301.2355L418.03125 300.6105L418.03125 302.78238L419.09375 302.78238L419.09375 303.59488L418.03125 303.59488L418.03125 307.2355Q418.03125 307.68863 418.07812 307.81363Q418.14062 307.93863 418.26562 308.01675Q418.39062 308.09488 418.625 308.09488Q418.8125 308.09488 419.09375 308.06363ZM422.5 306.7355L423.5625 306.59488Q423.73438 307.4855 424.17188 307.89175Q424.60938 308.28238 425.23438 308.28238Q425.98438 308.28238 426.5 307.76675Q427.01562 307.25113 427.01562 306.4855Q427.01562 305.76675 426.53125 305.298Q426.0625 304.81363 425.32812 304.81363Q425.03125 304.81363 424.57812 304.93863L424.70312 304.00113Q424.8125 304.01675 424.875 304.01675Q425.54688 304.01675 426.07812 303.673Q426.625 303.31363 426.625 302.57925Q426.625 302.00113 426.23438 301.62613Q425.84375 301.2355 425.21875 301.2355Q424.60938 301.2355 424.1875 301.62613Q423.78125 302.01675 423.67188 302.78238L422.60938 302.59488Q422.79688 301.548 423.48438 300.96988Q424.17188 300.37613 425.1875 300.37613Q425.89062 300.37613 426.48438 300.68863Q427.07812 300.9855 427.39062 301.50113Q427.70312 302.01675 427.70312 302.6105Q427.70312 303.15738 427.40625 303.62613Q427.10938 304.07925 426.53125 304.34488Q427.28125 304.51675 427.70312 305.07925Q428.125 305.62613 428.125 306.46988Q428.125 307.59488 427.29688 308.37613Q426.48438 309.15738 425.23438 309.15738Q424.10938 309.15738 423.35938 308.4855Q422.60938 307.798 422.5 306.7355Z" fill-rule="nonzero"/><path fill="#000000" d="M481.704 306.2355L482.7665 306.14175Q482.84464 306.798 483.1259 307.20425Q483.40714 307.6105 483.98526 307.87613Q484.579 308.12613 485.3134 308.12613Q485.954 308.12613 486.454 307.93863Q486.954 307.7355 487.1884 307.40738Q487.4384 307.06363 487.4384 306.673Q487.4384 306.26675 487.204 305.96988Q486.96964 305.65738 486.4384 305.45425Q486.079 305.31363 484.8915 305.03238Q483.71964 304.75113 483.2509 304.50113Q482.6259 304.173 482.329 303.70425Q482.03214 303.21988 482.03214 302.62613Q482.03214 301.9855 482.3915 301.423Q482.7665 300.84488 483.46964 300.56363Q484.1884 300.26675 485.04776 300.26675Q486.0009 300.26675 486.73526 300.57925Q487.46964 300.87613 487.86026 301.4855Q488.2509 302.07925 488.28214 302.82925L487.1884 302.90738Q487.09464 302.09488 486.579 301.68863Q486.079 301.26675 485.09464 301.26675Q484.0634 301.26675 483.59464 301.64175Q483.1259 302.01675 483.1259 302.548Q483.1259 303.01675 483.454 303.31363Q483.78214 303.6105 485.15714 303.923Q486.54776 304.2355 487.0634 304.46988Q487.8134 304.82925 488.17276 305.3605Q488.53214 305.87613 488.53214 306.57925Q488.53214 307.26675 488.1415 307.87613Q487.7509 308.46988 487.0165 308.81363Q486.28214 309.14175 485.36026 309.14175Q484.1884 309.14175 483.3915 308.81363Q482.61026 308.46988 482.15714 307.78238Q481.71964 307.09488 481.704 306.2355ZM489.954 311.39175L489.954 302.78238L490.90714 302.78238L490.90714 303.57925Q491.2509 303.1105 491.67276 302.87613Q492.11026 302.64175 492.71964 302.64175Q493.5165 302.64175 494.1259 303.048Q494.73526 303.45425 495.03214 304.20425Q495.34464 304.95425 495.34464 305.84488Q495.34464 306.798 495.0009 307.56363Q494.67276 308.32925 494.0165 308.7355Q493.36026 309.14175 492.6415 309.14175Q492.11026 309.14175 491.6884 308.923Q491.2665 308.68863 491.0009 308.3605L491.0009 311.39175L489.954 311.39175ZM490.90714 305.923Q490.90714 307.12613 491.3915 307.70425Q491.8759 308.26675 492.5634 308.26675Q493.2665 308.26675 493.7665 307.673Q494.2665 307.07925 494.2665 305.82925Q494.2665 304.64175 493.78214 304.06363Q493.29776 303.46988 492.61026 303.46988Q491.9384 303.46988 491.42276 304.09488Q490.90714 304.71988 490.90714 305.923ZM496.9384 309.00113L496.9384 302.78238L497.8915 302.78238L497.8915 303.71988Q498.2509 303.06363 498.54776 302.8605Q498.86026 302.64175 499.23526 302.64175Q499.7665 302.64175 500.3134 302.96988L499.954 303.95425Q499.5634 303.71988 499.1884 303.71988Q498.829 303.71988 498.54776 303.93863Q498.28214 304.14175 498.17276 304.51675Q497.98526 305.07925 497.98526 305.7355L497.98526 309.00113L496.9384 309.00113ZM500.954 301.62613L500.954 300.40738L502.0165 300.40738L502.0165 301.62613L500.954 301.62613ZM500.954 309.00113L500.954 302.78238L502.0165 302.78238L502.0165 309.00113L500.954 309.00113ZM503.954 309.00113L503.954 302.78238L504.8915 302.78238L504.8915 303.65738Q505.579 302.64175 506.8759 302.64175Q507.4384 302.64175 507.90714 302.84488Q508.3915 303.048 508.6259 303.37613Q508.86026 303.70425 508.954 304.14175Q509.0009 304.43863 509.0009 305.173L509.0009 309.00113L507.954 309.00113L507.954 305.21988Q507.954 304.56363 507.829 304.25113Q507.704 303.93863 507.3915 303.75113Q507.079 303.548 506.65714 303.548Q505.98526 303.548 505.48526 303.9855Q505.0009 304.40738 505.0009 305.59488L505.0009 309.00113L503.954 309.00113ZM513.25085 308.06363L513.4071 308.9855Q512.954 309.07925 512.6102 309.07925Q512.0321 309.07925 511.71964 308.90738Q511.40714 308.71988 511.2665 308.423Q511.1415 308.12613 511.1415 307.173L511.1415 303.59488L510.3759 303.59488L510.3759 302.78238L511.1415 302.78238L511.1415 301.2355L512.18835 300.6105L512.18835 302.78238L513.25085 302.78238L513.25085 303.59488L512.18835 303.59488L512.18835 307.2355Q512.18835 307.68863 512.2352 307.81363Q512.2977 307.93863 512.4227 308.01675Q512.5477 308.09488 512.7821 308.09488Q512.9696 308.09488 513.25085 308.06363ZM520.0321 309.00113L520.0321 306.93863L516.31335 306.93863L516.31335 305.96988L520.2352 300.40738L521.0946 300.40738L521.0946 305.96988L522.25085 305.96988L522.25085 306.93863L521.0946 306.93863L521.0946 309.00113L520.0321 309.00113ZM520.0321 305.96988L520.0321 302.1105L517.3446 305.96988L520.0321 305.96988Z" fill-rule="nonzero"/><path fill="#000000" d="M575.86115 306.2355L576.92365 306.14175Q577.0018 306.798 577.283 307.20425Q577.5643 307.6105 578.1424 307.87613Q578.73615 308.12613 579.4705 308.12613Q580.11115 308.12613 580.61115 307.93863Q581.11115 307.7355 581.3455 307.40738Q581.5955 307.06363 581.5955 306.673Q581.5955 306.26675 581.36115 305.96988Q581.1268 305.65738 580.5955 305.45425Q580.23615 305.31363 579.04865 305.03238Q577.8768 304.75113 577.408 304.50113Q576.783 304.173 576.48615 303.70425Q576.1893 303.21988 576.1893 302.62613Q576.1893 301.9855 576.54865 301.423Q576.92365 300.84488 577.6268 300.56363Q578.3455 300.26675 579.2049 300.26675Q580.158 300.26675 580.8924 300.57925Q581.6268 300.87613 582.0174 301.4855Q582.408 302.07925 582.4393 302.82925L581.3455 302.90738Q581.2518 302.09488 580.73615 301.68863Q580.23615 301.26675 579.2518 301.26675Q578.2205 301.26675 577.7518 301.64175Q577.283 302.01675 577.283 302.548Q577.283 303.01675 577.61115 303.31363Q577.9393 303.6105 579.3143 303.923Q580.7049 304.2355 581.2205 304.46988Q581.9705 304.82925 582.3299 305.3605Q582.6893 305.87613 582.6893 306.57925Q582.6893 307.26675 582.29865 307.87613Q581.908 308.46988 581.17365 308.81363Q580.4393 309.14175 579.5174 309.14175Q578.3455 309.14175 577.54865 308.81363Q576.7674 308.46988 576.3143 307.78238Q575.8768 307.09488 575.86115 306.2355ZM584.11115 311.39175L584.11115 302.78238L585.0643 302.78238L585.0643 303.57925Q585.408 303.1105 585.8299 302.87613Q586.2674 302.64175 586.8768 302.64175Q587.67365 302.64175 588.283 303.048Q588.8924 303.45425 589.1893 304.20425Q589.5018 304.95425 589.5018 305.84488Q589.5018 306.798 589.158 307.56363Q588.8299 308.32925 588.17365 308.7355Q587.5174 309.14175 586.79865 309.14175Q586.2674 309.14175 585.8455 308.923Q585.42365 308.68863 585.158 308.3605L585.158 311.39175L584.11115 311.39175ZM585.0643 305.923Q585.0643 307.12613 585.54865 307.70425Q586.033 308.26675 586.7205 308.26675Q587.42365 308.26675 587.92365 307.673Q588.42365 307.07925 588.42365 305.82925Q588.42365 304.64175 587.9393 304.06363Q587.4549 303.46988 586.7674 303.46988Q586.0955 303.46988 585.5799 304.09488Q585.0643 304.71988 585.0643 305.923ZM591.0955 309.00113L591.0955 302.78238L592.04865 302.78238L592.04865 303.71988Q592.408 303.06363 592.7049 302.8605Q593.0174 302.64175 593.3924 302.64175Q593.92365 302.64175 594.4705 302.96988L594.11115 303.95425Q593.7205 303.71988 593.3455 303.71988Q592.98615 303.71988 592.7049 303.93863Q592.4393 304.14175 592.3299 304.51675Q592.1424 305.07925 592.1424 305.7355L592.1424 309.00113L591.0955 309.00113ZM595.11115 301.62613L595.11115 300.40738L596.17365 300.40738L596.17365 301.62613L595.11115 301.62613ZM595.11115 309.00113L595.11115 302.78238L596.17365 302.78238L596.17365 309.00113L595.11115 309.00113ZM598.11115 309.00113L598.11115 302.78238L599.04865 302.78238L599.04865 303.65738Q599.73615 302.64175 601.033 302.64175Q601.5955 302.64175 602.0643 302.84488Q602.54865 303.048 602.783 303.37613Q603.0174 303.70425 603.11115 304.14175Q603.158 304.43863 603.158 305.173L603.158 309.00113L602.11115 309.00113L602.11115 305.21988Q602.11115 304.56363 601.98615 304.25113Q601.86115 303.93863 601.54865 303.75113Q601.23615 303.548 600.8143 303.548Q600.1424 303.548 599.6424 303.9855Q599.158 304.40738 599.158 305.59488L599.158 309.00113L598.11115 309.00113ZM607.408 308.06363L607.5643 308.9855Q607.11115 309.07925 606.7674 309.07925Q606.1893 309.07925 605.8768 308.90738Q605.5643 308.71988 605.42365 308.423Q605.29865 308.12613 605.29865 307.173L605.29865 303.59488L604.533 303.59488L604.533 302.78238L605.29865 302.78238L605.29865 301.2355L606.3455 300.6105L606.3455 302.78238L607.408 302.78238L607.408 303.59488L606.3455 303.59488L606.3455 307.2355Q606.3455 307.68863 606.3924 307.81363Q606.4549 307.93863 606.5799 308.01675Q606.7049 308.09488 606.9393 308.09488Q607.1268 308.09488 607.408 308.06363ZM610.8143 306.75113L611.92365 306.65738Q612.04865 307.46988 612.48615 307.87613Q612.9393 308.28238 613.5799 308.28238Q614.3299 308.28238 614.86115 307.70425Q615.3924 307.12613 615.3924 306.18863Q615.3924 305.28238 614.8768 304.76675Q614.3768 304.2355 613.54865 304.2355Q613.04865 304.2355 612.6268 304.46988Q612.2205 304.70425 611.98615 305.06363L611.0018 304.93863L611.8299 300.53238L616.11115 300.53238L616.11115 301.53238L612.67365 301.53238L612.2205 303.84488Q612.98615 303.298 613.8299 303.298Q614.9549 303.298 615.7205 304.07925Q616.5018 304.8605 616.5018 306.09488Q616.5018 307.25113 615.8299 308.1105Q615.0018 309.14175 613.5799 309.14175Q612.408 309.14175 611.658 308.4855Q610.92365 307.82925 610.8143 306.75113Z" fill-rule="nonzero"/><path fill="#000000" d="M670.0183 306.2355L671.0808 306.14175Q671.15894 306.798 671.4402 307.20425Q671.72144 307.6105 672.29956 307.87613Q672.8933 308.12613 673.6277 308.12613Q674.2683 308.12613 674.7683 307.93863Q675.2683 307.7355 675.5027 307.40738Q675.7527 307.06363 675.7527 306.673Q675.7527 306.26675 675.5183 305.96988Q675.28394 305.65738 674.7527 305.45425Q674.3933 305.31363 673.2058 305.03238Q672.03394 304.75113 671.5652 304.50113Q670.9402 304.173 670.6433 303.70425Q670.34644 303.21988 670.34644 302.62613Q670.34644 301.9855 670.7058 301.423Q671.0808 300.84488 671.78394 300.56363Q672.5027 300.26675 673.36206 300.26675Q674.3152 300.26675 675.04956 300.57925Q675.78394 300.87613 676.17456 301.4855Q676.5652 302.07925 676.59644 302.82925L675.5027 302.90738Q675.40894 302.09488 674.8933 301.68863Q674.3933 301.26675 673.40894 301.26675Q672.3777 301.26675 671.90894 301.64175Q671.4402 302.01675 671.4402 302.548Q671.4402 303.01675 671.7683 303.31363Q672.09644 303.6105 673.47144 303.923Q674.86206 304.2355 675.3777 304.46988Q676.1277 304.82925 676.48706 305.3605Q676.84644 305.87613 676.84644 306.57925Q676.84644 307.26675 676.4558 307.87613Q676.0652 308.46988 675.3308 308.81363Q674.59644 309.14175 673.67456 309.14175Q672.5027 309.14175 671.7058 308.81363Q670.92456 308.46988 670.47144 307.78238Q670.03394 307.09488 670.0183 306.2355ZM678.2683 311.39175L678.2683 302.78238L679.22144 302.78238L679.22144 303.57925Q679.5652 303.1105 679.98706 302.87613Q680.42456 302.64175 681.03394 302.64175Q681.8308 302.64175 682.4402 303.048Q683.04956 303.45425 683.34644 304.20425Q683.65894 304.95425 683.65894 305.84488Q683.65894 306.798 683.3152 307.56363Q682.98706 308.32925 682.3308 308.7355Q681.67456 309.14175 680.9558 309.14175Q680.42456 309.14175 680.0027 308.923Q679.5808 308.68863 679.3152 308.3605L679.3152 311.39175L678.2683 311.39175ZM679.22144 305.923Q679.22144 307.12613 679.7058 307.70425Q680.1902 308.26675 680.8777 308.26675Q681.5808 308.26675 682.0808 307.673Q682.5808 307.07925 682.5808 305.82925Q682.5808 304.64175 682.09644 304.06363Q681.61206 303.46988 680.92456 303.46988Q680.2527 303.46988 679.73706 304.09488Q679.22144 304.71988 679.22144 305.923ZM685.2527 309.00113L685.2527 302.78238L686.2058 302.78238L686.2058 303.71988Q686.5652 303.06363 686.86206 302.8605Q687.17456 302.64175 687.54956 302.64175Q688.0808 302.64175 688.6277 302.96988L688.2683 303.95425Q687.8777 303.71988 687.5027 303.71988Q687.1433 303.71988 686.86206 303.93863Q686.59644 304.14175 686.48706 304.51675Q686.29956 305.07925 686.29956 305.7355L686.29956 309.00113L685.2527 309.00113ZM689.2683 301.62613L689.2683 300.40738L690.3308 300.40738L690.3308 301.62613L689.2683 301.62613ZM689.2683 309.00113L689.2683 302.78238L690.3308 302.78238L690.3308 309.00113L689.2683 309.00113ZM692.2683 309.00113L692.2683 302.78238L693.2058 302.78238L693.2058 303.65738Q693.8933 302.64175 695.1902 302.64175Q695.7527 302.64175 696.22144 302.84488Q696.7058 303.048 696.9402 303.37613Q697.17456 303.70425 697.2683 304.14175Q697.3152 304.43863 697.3152 305.173L697.3152 309.00113L696.2683 309.00113L696.2683 305.21988Q696.2683 304.56363 696.1433 304.25113Q696.0183 303.93863 695.7058 303.75113Q695.3933 303.548 694.97144 303.548Q694.29956 303.548 693.79956 303.9855Q693.3152 304.40738 693.3152 305.59488L693.3152 309.00113L692.2683 309.00113ZM701.5652 308.06363L701.72144 308.9855Q701.2683 309.07925 700.92456 309.07925Q700.34644 309.07925 700.03394 308.90738Q699.72144 308.71988 699.5808 308.423Q699.4558 308.12613 699.4558 307.173L699.4558 303.59488L698.6902 303.59488L698.6902 302.78238L699.4558 302.78238L699.4558 301.2355L700.5027 300.6105L700.5027 302.78238L701.5652 302.78238L701.5652 303.59488L700.5027 303.59488L700.5027 307.2355Q700.5027 307.68863 700.54956 307.81363Q700.61206 307.93863 700.73706 308.01675Q700.86206 308.09488 701.09644 308.09488Q701.28394 308.09488 701.5652 308.06363ZM710.4402 302.51675L709.3933 302.59488Q709.2527 301.96988 709.0027 301.68863Q708.5652 301.2355 707.9402 301.2355Q707.4402 301.2355 707.04956 301.51675Q706.5652 301.89175 706.2683 302.59488Q705.98706 303.28238 705.97144 304.56363Q706.34644 303.9855 706.8933 303.70425Q707.4558 303.423 708.0652 303.423Q709.11206 303.423 709.84644 304.20425Q710.59644 304.9855 710.59644 306.20425Q710.59644 307.01675 710.23706 307.71988Q709.8933 308.40738 709.28394 308.78238Q708.67456 309.14175 707.90894 309.14175Q706.5808 309.14175 705.7527 308.173Q704.92456 307.20425 704.92456 304.9855Q704.92456 302.4855 705.84644 301.3605Q706.6433 300.37613 708.0027 300.37613Q709.0183 300.37613 709.65894 300.95425Q710.3152 301.51675 710.4402 302.51675ZM706.1433 306.21988Q706.1433 306.76675 706.36206 307.26675Q706.59644 307.75113 707.0027 308.01675Q707.42456 308.28238 707.8933 308.28238Q708.54956 308.28238 709.03394 307.75113Q709.5183 307.20425 709.5183 306.28238Q709.5183 305.39175 709.03394 304.87613Q708.5652 304.3605 707.84644 304.3605Q707.1277 304.3605 706.6277 304.87613Q706.1433 305.39175 706.1433 306.21988Z" fill-rule="nonzero"/><path fill="#4285f4" d="M330.11563 358.67664L338.60092 358.67664L338.60092 367.16193L330.11563 367.16193Z" fill-rule="nonzero"/><path fill="#1a1a1a" d="M351.46765 366.91928L351.46765 359.34116L348.63953 359.34116L348.63953 358.32553L355.45203 358.32553L355.45203 359.34116L352.60828 359.34116L352.60828 366.91928L351.46765 366.91928ZM356.3114 366.91928L356.3114 358.32553L362.51453 358.32553L362.51453 359.34116L357.45203 359.34116L357.45203 361.96616L362.20203 361.96616L362.20203 362.98178L357.45203 362.98178L357.45203 365.90366L362.71765 365.90366L362.71765 366.91928L356.3114 366.91928ZM363.34265 366.91928L366.63953 358.32553L367.85828 358.32553L371.3739 366.91928L370.09265 366.91928L369.07703 364.3099L365.4989 364.3099L364.54578 366.91928L363.34265 366.91928ZM365.82703 363.38803L368.73328 363.38803L367.84265 361.01303Q367.42078 359.9349 367.23328 359.23178Q367.0614 360.0599 366.76453 360.8724L365.82703 363.38803ZM377.42078 363.90366L378.54578 364.20053Q378.1864 365.59116 377.26453 366.32553Q376.34265 367.0599 374.9989 367.0599Q373.60828 367.0599 372.73328 366.4974Q371.85828 365.9349 371.40515 364.8724Q370.95203 363.79428 370.95203 362.5599Q370.95203 361.21616 371.46765 360.21616Q371.98328 359.21616 372.92078 358.70053Q373.8739 358.1849 375.01453 358.1849Q376.29578 358.1849 377.17078 358.84116Q378.0614 359.4974 378.40515 360.6849L377.28015 360.95053Q376.98328 360.01303 376.40515 359.59116Q375.84265 359.15366 374.98328 359.15366Q373.9989 359.15366 373.32703 359.63803Q372.67078 360.10678 372.38953 360.90366Q372.1239 361.70053 372.1239 362.5599Q372.1239 363.65366 372.4364 364.46616Q372.76453 365.27866 373.4364 365.6849Q374.10828 366.09116 374.90515 366.09116Q375.85828 366.09116 376.51453 365.54428Q377.1864 364.9974 377.42078 363.90366Z" fill-rule="nonzero"/><path fill="#ea4335" d="M401.35828 356.91928L406.55444 365.91928L396.16214 365.91928Z" fill-rule="nonzero"/><path fill="#1a1a1a" d="M416.28015 366.91928L416.28015 358.32553L419.2489 358.32553Q420.2489 358.32553 420.78015 358.45053Q421.51453 358.6224 422.03015 359.0599Q422.71765 359.63803 423.04578 360.54428Q423.38953 361.4349 423.38953 362.57553Q423.38953 363.5599 423.15515 364.3099Q422.9364 365.0599 422.57703 365.5599Q422.21765 366.0599 421.78015 366.34116Q421.35828 366.6224 420.76453 366.77866Q420.17078 366.91928 419.38953 366.91928L416.28015 366.91928ZM417.42078 365.90366L419.2489 365.90366Q420.10828 365.90366 420.59265 365.7474Q421.07703 365.59116 421.35828 365.29428Q421.76453 364.90366 421.98328 364.21616Q422.21765 363.52866 422.21765 362.5599Q422.21765 361.21616 421.76453 360.4974Q421.32703 359.76303 420.70203 359.51303Q420.23328 359.34116 419.23328 359.34116L417.42078 359.34116L417.42078 365.90366ZM429.23328 366.91928L429.23328 365.9974Q428.4989 367.0599 427.2489 367.0599Q426.70203 367.0599 426.21765 366.85678Q425.7489 366.63803 425.51453 366.32553Q425.28015 365.9974 425.1864 365.52866Q425.1239 365.23178 425.1239 364.54428L425.1239 360.70053L426.1864 360.70053L426.1864 364.15366Q426.1864 364.96616 426.2489 365.26303Q426.34265 365.66928 426.65515 365.91928Q426.98328 366.15366 427.46765 366.15366Q427.9364 366.15366 428.34265 365.91928Q428.76453 365.66928 428.9364 365.2474Q429.1239 364.82553 429.1239 364.02866L429.1239 360.70053L430.17078 360.70053L430.17078 366.91928L429.23328 366.91928ZM432.13953 366.91928L432.13953 360.70053L433.09265 360.70053L433.09265 361.63803Q433.45203 360.98178 433.7489 360.77866Q434.0614 360.5599 434.4364 360.5599Q434.96765 360.5599 435.51453 360.88803L435.15515 361.8724Q434.76453 361.63803 434.38953 361.63803Q434.03015 361.63803 433.7489 361.85678Q433.48328 362.0599 433.3739 362.4349Q433.1864 362.9974 433.1864 363.65366L433.1864 366.91928L432.13953 366.91928ZM440.21765 366.15366Q439.6239 366.65366 439.07703 366.85678Q438.54578 367.0599 437.92078 367.0599Q436.88953 367.0599 436.34265 366.5599Q435.79578 366.0599 435.79578 365.27866Q435.79578 364.82553 435.9989 364.45053Q436.20203 364.0599 436.54578 363.84116Q436.88953 363.60678 437.3114 363.4974Q437.60828 363.40366 438.2489 363.32553Q439.51453 363.1849 440.1239 362.96616Q440.1239 362.7474 440.1239 362.70053Q440.1239 362.04428 439.82703 361.77866Q439.42078 361.4349 438.6239 361.4349Q437.88953 361.4349 437.53015 361.70053Q437.17078 361.95053 436.9989 362.60678L435.96765 362.46616Q436.10828 361.8099 436.4364 361.40366Q436.76453 360.9974 437.3739 360.77866Q437.98328 360.5599 438.78015 360.5599Q439.57703 360.5599 440.07703 360.7474Q440.57703 360.9349 440.8114 361.21616Q441.04578 361.4974 441.13953 361.9349Q441.1864 362.20053 441.1864 362.90366L441.1864 364.3099Q441.1864 365.77866 441.2489 366.16928Q441.32703 366.5599 441.53015 366.91928L440.42078 366.91928Q440.26453 366.59116 440.21765 366.15366ZM440.1239 363.79428Q439.54578 364.02866 438.40515 364.20053Q437.7489 364.29428 437.48328 364.41928Q437.21765 364.52866 437.0614 364.7474Q436.92078 364.96616 436.92078 365.2474Q436.92078 365.66928 437.23328 365.95053Q437.5614 366.23178 438.17078 366.23178Q438.78015 366.23178 439.2489 365.96616Q439.73328 365.70053 439.95203 365.23178Q440.1239 364.8724 440.1239 364.1849L440.1239 363.79428ZM445.45203 365.98178L445.60828 366.90366Q445.15515 366.9974 444.8114 366.9974Q444.23328 366.9974 443.92078 366.82553Q443.60828 366.63803 443.46765 366.34116Q443.34265 366.04428 443.34265 365.09116L443.34265 361.51303L442.57703 361.51303L442.57703 360.70053L443.34265 360.70053L443.34265 359.15366L444.38953 358.52866L444.38953 360.70053L445.45203 360.70053L445.45203 361.51303L444.38953 361.51303L444.38953 365.15366Q444.38953 365.60678 444.4364 365.73178Q444.4989 365.85678 444.6239 365.9349Q444.7489 366.01303 444.98328 366.01303Q445.17078 366.01303 445.45203 365.98178ZM450.21765 366.15366Q449.6239 366.65366 449.07703 366.85678Q448.54578 367.0599 447.92078 367.0599Q446.88953 367.0599 446.34265 366.5599Q445.79578 366.0599 445.79578 365.27866Q445.79578 364.82553 445.9989 364.45053Q446.20203 364.0599 446.54578 363.84116Q446.88953 363.60678 447.3114 363.4974Q447.60828 363.40366 448.2489 363.32553Q449.51453 363.1849 450.1239 362.96616Q450.1239 362.7474 450.1239 362.70053Q450.1239 362.04428 449.82703 361.77866Q449.42078 361.4349 448.6239 361.4349Q447.88953 361.4349 447.53015 361.70053Q447.17078 361.95053 446.9989 362.60678L445.96765 362.46616Q446.10828 361.8099 446.4364 361.40366Q446.76453 360.9974 447.3739 360.77866Q447.98328 360.5599 448.78015 360.5599Q449.57703 360.5599 450.07703 360.7474Q450.57703 360.9349 450.8114 361.21616Q451.04578 361.4974 451.13953 361.9349Q451.1864 362.20053 451.1864 362.90366L451.1864 364.3099Q451.1864 365.77866 451.2489 366.16928Q451.32703 366.5599 451.53015 366.91928L450.42078 366.91928Q450.26453 366.59116 450.21765 366.15366ZM450.1239 363.79428Q449.54578 364.02866 448.40515 364.20053Q447.7489 364.29428 447.48328 364.41928Q447.21765 364.52866 447.0614 364.7474Q446.92078 364.96616 446.92078 365.2474Q446.92078 365.66928 447.23328 365.95053Q447.5614 366.23178 448.17078 366.23178Q448.78015 366.23178 449.2489 365.96616Q449.73328 365.70053 449.95203 365.23178Q450.1239 364.8724 450.1239 364.1849L450.1239 363.79428ZM456.28015 366.91928L456.28015 358.32553L459.53015 358.32553Q460.3739 358.32553 460.82703 358.40366Q461.46765 358.51303 461.88953 358.8099Q462.32703 359.10678 462.57703 359.63803Q462.84265 360.16928 462.84265 360.8099Q462.84265 361.90366 462.13953 362.66928Q461.45203 363.41928 459.6239 363.41928L457.42078 363.41928L457.42078 366.91928L456.28015 366.91928ZM457.42078 362.41928L459.63953 362.41928Q460.7489 362.41928 461.20203 362.01303Q461.67078 361.59116 461.67078 360.84116Q461.67078 360.3099 461.38953 359.9349Q461.1239 359.54428 460.6864 359.41928Q460.38953 359.34116 459.6239 359.34116L457.42078 359.34116L457.42078 362.41928ZM464.15515 359.54428L464.15515 358.32553L465.21765 358.32553L465.21765 359.54428L464.15515 359.54428ZM464.15515 366.91928L464.15515 360.70053L465.21765 360.70053L465.21765 366.91928L464.15515 366.91928ZM471.21765 366.15366Q470.6239 366.65366 470.07703 366.85678Q469.54578 367.0599 468.92078 367.0599Q467.88953 367.0599 467.34265 366.5599Q466.79578 366.0599 466.79578 365.27866Q466.79578 364.82553 466.9989 364.45053Q467.20203 364.0599 467.54578 363.84116Q467.88953 363.60678 468.3114 363.4974Q468.60828 363.40366 469.2489 363.32553Q470.51453 363.1849 471.1239 362.96616Q471.1239 362.7474 471.1239 362.70053Q471.1239 362.04428 470.82703 361.77866Q470.42078 361.4349 469.6239 361.4349Q468.88953 361.4349 468.53015 361.70053Q468.17078 361.95053 467.9989 362.60678L466.96765 362.46616Q467.10828 361.8099 467.4364 361.40366Q467.76453 360.9974 468.3739 360.77866Q468.98328 360.5599 469.78015 360.5599Q470.57703 360.5599 471.07703 360.7474Q471.57703 360.9349 471.8114 361.21616Q472.04578 361.4974 472.13953 361.9349Q472.1864 362.20053 472.1864 362.90366L472.1864 364.3099Q472.1864 365.77866 472.2489 366.16928Q472.32703 366.5599 472.53015 366.91928L471.42078 366.91928Q471.26453 366.59116 471.21765 366.15366ZM471.1239 363.79428Q470.54578 364.02866 469.40515 364.20053Q468.7489 364.29428 468.48328 364.41928Q468.21765 364.52866 468.0614 364.7474Q467.92078 364.96616 467.92078 365.2474Q467.92078 365.66928 468.23328 365.95053Q468.5614 366.23178 469.17078 366.23178Q469.78015 366.23178 470.2489 365.96616Q470.73328 365.70053 470.95203 365.23178Q471.1239 364.8724 471.1239 364.1849L471.1239 363.79428ZM474.15515 366.91928L474.15515 360.70053L475.09265 360.70053L475.09265 361.57553Q475.78015 360.5599 477.07703 360.5599Q477.63953 360.5599 478.10828 360.76303Q478.59265 360.96616 478.82703 361.29428Q479.0614 361.6224 479.15515 362.0599Q479.20203 362.35678 479.20203 363.09116L479.20203 366.91928L478.15515 366.91928L478.15515 363.13803Q478.15515 362.48178 478.03015 362.16928Q477.90515 361.85678 477.59265 361.66928Q477.28015 361.46616 476.85828 361.46616Q476.1864 361.46616 475.6864 361.90366Q475.20203 362.32553 475.20203 363.51303L475.20203 366.91928L474.15515 366.91928ZM481.15515 359.54428L481.15515 358.32553L482.21765 358.32553L482.21765 359.54428L481.15515 359.54428ZM481.15515 366.91928L481.15515 360.70053L482.21765 360.70053L482.21765 366.91928L481.15515 366.91928ZM484.40515 366.91928L484.40515 361.51303L483.46765 361.51303L483.46765 360.70053L484.40515 360.70053L484.40515 360.02866Q484.40515 359.40366 484.51453 359.10678Q484.67078 358.6849 485.04578 358.4349Q485.4364 358.1849 486.1239 358.1849Q486.57703 358.1849 487.10828 358.29428L486.95203 359.20053Q486.6239 359.15366 486.32703 359.15366Q485.84265 359.15366 485.63953 359.35678Q485.45203 359.5599 485.45203 360.1224L485.45203 360.70053L486.67078 360.70053L486.67078 361.51303L485.45203 361.51303L485.45203 366.91928L484.40515 366.91928ZM487.15515 359.54428L487.15515 358.32553L488.21765 358.32553L488.21765 359.54428L487.15515 359.54428ZM487.15515 366.91928L487.15515 360.70053L488.21765 360.70053L488.21765 366.91928L487.15515 366.91928ZM494.21765 364.63803L495.2489 364.77866Q495.07703 365.84116 494.3739 366.45053Q493.67078 367.0599 492.65515 367.0599Q491.3739 367.0599 490.59265 366.23178Q489.82703 365.38803 489.82703 363.82553Q489.82703 362.82553 490.15515 362.07553Q490.4989 361.3099 491.17078 360.9349Q491.85828 360.5599 492.67078 360.5599Q493.67078 360.5599 494.3114 361.07553Q494.96765 361.57553 495.15515 362.52866L494.1239 362.6849Q493.98328 362.0599 493.60828 361.7474Q493.23328 361.41928 492.70203 361.41928Q491.90515 361.41928 491.40515 361.9974Q490.90515 362.5599 490.90515 363.79428Q490.90515 365.0599 491.38953 365.6224Q491.8739 366.1849 492.63953 366.1849Q493.26453 366.1849 493.67078 365.8099Q494.09265 365.4349 494.21765 364.63803ZM500.21765 366.15366Q499.6239 366.65366 499.07703 366.85678Q498.54578 367.0599 497.92078 367.0599Q496.88953 367.0599 496.34265 366.5599Q495.79578 366.0599 495.79578 365.27866Q495.79578 364.82553 495.9989 364.45053Q496.20203 364.0599 496.54578 363.84116Q496.88953 363.60678 497.3114 363.4974Q497.60828 363.40366 498.2489 363.32553Q499.51453 363.1849 500.1239 362.96616Q500.1239 362.7474 500.1239 362.70053Q500.1239 362.04428 499.82703 361.77866Q499.42078 361.4349 498.6239 361.4349Q497.88953 361.4349 497.53015 361.70053Q497.17078 361.95053 496.9989 362.60678L495.96765 362.46616Q496.10828 361.8099 496.4364 361.40366Q496.76453 360.9974 497.3739 360.77866Q497.98328 360.5599 498.78015 360.5599Q499.57703 360.5599 500.07703 360.7474Q500.57703 360.9349 500.8114 361.21616Q501.04578 361.4974 501.13953 361.9349Q501.1864 362.20053 501.1864 362.90366L501.1864 364.3099Q501.1864 365.77866 501.2489 366.16928Q501.32703 366.5599 501.53015 366.91928L500.42078 366.91928Q500.26453 366.59116 500.21765 366.15366ZM500.1239 363.79428Q499.54578 364.02866 498.40515 364.20053Q497.7489 364.29428 497.48328 364.41928Q497.21765 364.52866 497.0614 364.7474Q496.92078 364.96616 496.92078 365.2474Q496.92078 365.66928 497.23328 365.95053Q497.5614 366.23178 498.17078 366.23178Q498.78015 366.23178 499.2489 365.96616Q499.73328 365.70053 499.95203 365.23178Q500.1239 364.8724 500.1239 364.1849L500.1239 363.79428ZM505.45203 365.98178L505.60828 366.90366Q505.15515 366.9974 504.8114 366.9974Q504.23328 366.9974 503.92078 366.82553Q503.60828 366.63803 503.46765 366.34116Q503.34265 366.04428 503.34265 365.09116L503.34265 361.51303L502.57703 361.51303L502.57703 360.70053L503.34265 360.70053L503.34265 359.15366L504.38953 358.52866L504.38953 360.70053L505.45203 360.70053L505.45203 361.51303L504.38953 361.51303L504.38953 365.15366Q504.38953 365.60678 504.4364 365.73178Q504.4989 365.85678 504.6239 365.9349Q504.7489 366.01303 504.98328 366.01303Q505.17078 366.01303 505.45203 365.98178ZM510.21765 366.15366Q509.6239 366.65366 509.07703 366.85678Q508.54578 367.0599 507.92078 367.0599Q506.88953 367.0599 506.34265 366.5599Q505.79578 366.0599 505.79578 365.27866Q505.79578 364.82553 505.9989 364.45053Q506.20203 364.0599 506.54578 363.84116Q506.88953 363.60678 507.3114 363.4974Q507.60828 363.40366 508.2489 363.32553Q509.51453 363.1849 510.1239 362.96616Q510.1239 362.7474 510.1239 362.70053Q510.1239 362.04428 509.82703 361.77866Q509.42078 361.4349 508.6239 361.4349Q507.88953 361.4349 507.53015 361.70053Q507.17078 361.95053 506.9989 362.60678L505.96765 362.46616Q506.10828 361.8099 506.4364 361.40366Q506.76453 360.9974 507.3739 360.77866Q507.98328 360.5599 508.78015 360.5599Q509.57703 360.5599 510.07703 360.7474Q510.57703 360.9349 510.8114 361.21616Q511.04578 361.4974 511.13953 361.9349Q511.1864 362.20053 511.1864 362.90366L511.1864 364.3099Q511.1864 365.77866 511.2489 366.16928Q511.32703 366.5599 511.53015 366.91928L510.42078 366.91928Q510.26453 366.59116 510.21765 366.15366ZM510.1239 363.79428Q509.54578 364.02866 508.40515 364.20053Q507.7489 364.29428 507.48328 364.41928Q507.21765 364.52866 507.0614 364.7474Q506.92078 364.96616 506.92078 365.2474Q506.92078 365.66928 507.23328 365.95053Q507.5614 366.23178 508.17078 366.23178Q508.78015 366.23178 509.2489 365.96616Q509.73328 365.70053 509.95203 365.23178Q510.1239 364.8724 510.1239 364.1849L510.1239 363.79428Z" fill-rule="nonzero"/><path fill="#757575" d="M20.934376 38.45L20.934376 24.1375L23.79375 24.1375L27.16875 34.2625Q27.6375 35.684376 27.85625 36.3875Q28.10625 35.60625 28.621876 34.090626L32.04375 24.1375L34.590626 24.1375L34.590626 38.45L32.778126 38.45L32.778126 26.465626L28.60625 38.45L26.903126 38.45L22.7625 26.2625L22.7625 38.45L20.934376 38.45ZM37.996876 38.45L37.996876 24.1375L43.3875 24.1375Q44.825 24.1375 45.575 24.2625Q46.621876 24.45 47.340626 24.95Q48.059376 25.434376 48.48125 26.325Q48.91875 27.215626 48.91875 28.278126Q48.91875 30.10625 47.746876 31.371876Q46.590626 32.621876 43.559376 32.621876L39.8875 32.621876L39.8875 38.45L37.996876 38.45ZM39.8875 30.934376L43.590626 30.934376Q45.41875 30.934376 46.184376 30.2625Q46.965626 29.575 46.965626 28.325Q46.965626 27.434376 46.5125 26.79375Q46.059376 26.153126 45.325 25.95Q44.840626 25.825 43.54375 25.825L39.8875 25.825L39.8875 30.934376ZM61.215626 33.434376L63.10625 33.903126Q62.5125 36.246876 60.965626 37.48125Q59.41875 38.7 57.16875 38.7Q54.85625 38.7 53.403126 37.7625Q51.965626 36.809376 51.2 35.028126Q50.45 33.23125 50.45 31.184376Q50.45 28.95 51.29375 27.29375Q52.153126 25.621876 53.73125 24.7625Q55.309376 23.8875 57.2 23.8875Q59.35625 23.8875 60.809376 24.98125Q62.278126 26.075 62.85625 28.059376L60.996876 28.496876Q60.496876 26.934376 59.54375 26.23125Q58.60625 25.5125 57.16875 25.5125Q55.5125 25.5125 54.403126 26.309376Q53.29375 27.090626 52.840626 28.434376Q52.403126 29.7625 52.403126 31.16875Q52.403126 32.996876 52.934376 34.371876Q53.465626 35.73125 54.590626 36.403126Q55.715626 37.075 57.0125 37.075Q58.60625 37.075 59.715626 36.153126Q60.825 35.23125 61.215626 33.434376ZM64.27812 31.3875Q64.27812 28.85625 64.79375 27.309376Q65.325 25.746876 66.35625 24.91875Q67.3875 24.075 68.95 24.075Q70.10625 24.075 70.96562 24.54375Q71.84062 24.996876 72.40312 25.871876Q72.96562 26.746876 73.29375 28.0125Q73.62187 29.2625 73.62187 31.3875Q73.62187 33.903126 73.09062 35.45Q72.575 36.996876 71.54375 37.85625Q70.52812 38.7 68.95 38.7Q66.87187 38.7 65.7 37.215626Q64.27812 35.41875 64.27812 31.3875ZM66.09062 31.3875Q66.09062 34.91875 66.90312 36.090626Q67.73125 37.246876 68.95 37.246876Q70.15312 37.246876 70.98125 36.075Q71.80937 34.903126 71.80937 31.3875Q71.80937 27.85625 70.98125 26.7Q70.15312 25.528126 68.93437 25.528126Q67.71562 25.528126 66.99687 26.559376Q66.09062 27.85625 66.09062 31.3875ZM77.98125 30.684376Q76.8875 30.278126 76.35625 29.54375Q75.84062 28.79375 75.84062 27.7625Q75.84062 26.2 76.96562 25.1375Q78.09062 24.075 79.95 24.075Q81.825 24.075 82.96562 25.16875Q84.10625 26.246876 84.10625 27.809376Q84.10625 28.809376 83.575 29.54375Q83.05937 30.278126 81.99687 30.684376Q83.325 31.121876 84.0125 32.075Q84.7 33.028126 84.7 34.35625Q84.7 36.2 83.3875 37.45Q82.09062 38.7 79.98125 38.7Q77.85625 38.7 76.55937 37.45Q75.2625 36.184376 75.2625 34.309376Q75.2625 32.91875 75.96562 31.98125Q76.68437 31.028126 77.98125 30.684376ZM77.6375 27.7Q77.6375 28.715626 78.29375 29.371876Q78.95 30.0125 79.98125 30.0125Q80.99687 30.0125 81.65312 29.371876Q82.30937 28.73125 82.30937 27.809376Q82.30937 26.840626 81.6375 26.184376Q80.96562 25.5125 79.96562 25.5125Q78.96562 25.5125 78.29375 26.16875Q77.6375 26.809376 77.6375 27.7ZM77.075 34.325Q77.075 35.075 77.41875 35.778126Q77.77812 36.48125 78.48125 36.871876Q79.18437 37.246876 79.99687 37.246876Q81.2625 37.246876 82.075 36.434376Q82.90312 35.621876 82.90312 34.371876Q82.90312 33.10625 82.05937 32.278126Q81.21562 31.45 79.93437 31.45Q78.7 31.45 77.8875 32.278126Q77.075 33.090626 77.075 34.325ZM92.09062 34.153126L92.09062 32.3875L97.48125 32.3875L97.48125 34.153126L92.09062 34.153126ZM109.6375 38.45L109.6375 25.825L104.91875 25.825L104.91875 24.1375L116.2625 24.1375L116.2625 25.825L111.52812 25.825L111.52812 38.45L109.6375 38.45ZM117.77812 26.153126L117.77812 24.1375L119.54375 24.1375L119.54375 26.153126L117.77812 26.153126ZM117.77812 38.45L117.77812 28.075L119.54375 28.075L119.54375 38.45L117.77812 38.45ZM121.7625 38.45L121.7625 28.075L123.34062 28.075L123.34062 29.528126Q123.825 28.778126 124.6375 28.309376Q125.45 27.840626 126.48125 27.840626Q127.6375 27.840626 128.37187 28.325Q129.10625 28.79375 129.41875 29.653126Q130.65312 27.840626 132.62187 27.840626Q134.16875 27.840626 134.99687 28.7Q135.825 29.559376 135.825 31.325L135.825 38.45L134.075 38.45L134.075 31.91875Q134.075 30.85625 133.90312 30.403126Q133.73125 29.934376 133.27812 29.653126Q132.84062 29.371876 132.23125 29.371876Q131.1375 29.371876 130.40312 30.10625Q129.68437 30.825 129.68437 32.41875L129.68437 38.45L127.93437 38.45L127.93437 31.715626Q127.93437 30.54375 127.49687 29.965626Q127.075 29.371876 126.09062 29.371876Q125.35625 29.371876 124.71562 29.7625Q124.09062 30.153126 123.80937 30.903126Q123.52812 31.653126 123.52812 33.075L123.52812 38.45L121.7625 38.45ZM144.87187 35.10625L146.68437 35.340626Q146.2625 36.91875 145.09062 37.809376Q143.93437 38.684376 142.12187 38.684376Q139.85625 38.684376 138.5125 37.29375Q137.18437 35.8875 137.18437 33.35625Q137.18437 30.73125 138.52812 29.29375Q139.87187 27.840626 142.02812 27.840626Q144.10625 27.840626 145.41875 29.2625Q146.74687 30.66875 146.74687 33.246876Q146.74687 33.403126 146.73125 33.715626L138.99687 33.715626Q139.09062 35.41875 139.96562 36.325Q140.84062 37.23125 142.1375 37.23125Q143.10625 37.23125 143.77812 36.73125Q144.46562 36.215626 144.87187 35.10625ZM139.09062 32.2625L144.8875 32.2625Q144.77812 30.965626 144.23125 30.309376Q143.3875 29.29375 142.04375 29.29375Q140.84062 29.29375 140.0125 30.10625Q139.18437 30.903126 139.09062 32.2625ZM155.02812 38.45L155.02812 24.1375L165.3875 24.1375L165.3875 25.825L156.93437 25.825L156.93437 30.2L164.84062 30.2L164.84062 31.8875L156.93437 31.8875L156.93437 36.7625L165.71562 36.7625L165.71562 38.45L155.02812 38.45ZM167.05937 35.35625L168.80937 35.075Q168.95 36.121876 169.62187 36.684376Q170.29375 37.23125 171.49687 37.23125Q172.7 37.23125 173.27812 36.746876Q173.87187 36.246876 173.87187 35.590626Q173.87187 34.996876 173.35625 34.653126Q172.99687 34.41875 171.55937 34.059376Q169.62187 33.559376 168.87187 33.215626Q168.1375 32.85625 167.74687 32.23125Q167.35625 31.590626 167.35625 30.825Q167.35625 30.1375 167.66875 29.54375Q167.99687 28.95 168.54375 28.559376Q168.95 28.2625 169.65312 28.059376Q170.37187 27.840626 171.18437 27.840626Q172.40312 27.840626 173.325 28.2Q174.24687 28.54375 174.68437 29.153126Q175.12187 29.746876 175.29375 30.746876L173.575 30.98125Q173.45 30.184376 172.8875 29.746876Q172.325 29.29375 171.30937 29.29375Q170.09062 29.29375 169.575 29.7Q169.05937 30.090626 169.05937 30.621876Q169.05937 30.965626 169.27812 31.246876Q169.48125 31.528126 169.95 31.715626Q170.21562 31.809376 171.49687 32.153126Q173.37187 32.653126 174.10625 32.98125Q174.84062 33.29375 175.2625 33.903126Q175.68437 34.496876 175.68437 35.403126Q175.68437 36.278126 175.16875 37.059376Q174.65312 37.840626 173.68437 38.2625Q172.71562 38.684376 171.49687 38.684376Q169.48125 38.684376 168.41875 37.840626Q167.35625 36.996876 167.05937 35.35625ZM181.60625 36.871876L181.85625 38.434376Q181.12187 38.590626 180.52812 38.590626Q179.575 38.590626 179.04375 38.29375Q178.52812 37.98125 178.30937 37.496876Q178.09062 36.996876 178.09062 35.41875L178.09062 29.45L176.80937 29.45L176.80937 28.075L178.09062 28.075L178.09062 25.5125L179.84062 24.45L179.84062 28.075L181.60625 28.075L181.60625 29.45L179.84062 29.45L179.84062 35.5125Q179.84062 36.2625 179.93437 36.48125Q180.02812 36.684376 180.23125 36.825Q180.45 36.95 180.84062 36.95Q181.12187 36.95 181.60625 36.871876ZM183.77812 26.153126L183.77812 24.1375L185.54375 24.1375L185.54375 26.153126L183.77812 26.153126ZM183.77812 38.45L183.77812 28.075L185.54375 28.075L185.54375 38.45L183.77812 38.45ZM187.7625 38.45L187.7625 28.075L189.34062 28.075L189.34062 29.528126Q189.825 28.778126 190.6375 28.309376Q191.45 27.840626 192.48125 27.840626Q193.6375 27.840626 194.37187 28.325Q195.10625 28.79375 195.41875 29.653126Q196.65312 27.840626 198.62187 27.840626Q200.16875 27.840626 200.99687 28.7Q201.825 29.559376 201.825 31.325L201.825 38.45L200.075 38.45L200.075 31.91875Q200.075 30.85625 199.90312 30.403126Q199.73125 29.934376 199.27812 29.653126Q198.84062 29.371876 198.23125 29.371876Q197.1375 29.371876 196.40312 30.10625Q195.68437 30.825 195.68437 32.41875L195.68437 38.45L193.93437 38.45L193.93437 31.715626Q193.93437 30.54375 193.49687 29.965626Q193.075 29.371876 192.09062 29.371876Q191.35625 29.371876 190.71562 29.7625Q190.09062 30.153126 189.80937 30.903126Q189.52812 31.653126 189.52812 33.075L189.52812 38.45L187.7625 38.45ZM210.54375 37.16875Q209.55937 37.996876 208.65312 38.340626Q207.74687 38.684376 206.71562 38.684376Q205.0125 38.684376 204.09062 37.85625Q203.16875 37.0125 203.16875 35.715626Q203.16875 34.95 203.5125 34.325Q203.87187 33.7 204.43437 33.325Q204.99687 32.934376 205.7 32.73125Q206.21562 32.60625 207.2625 32.465626Q209.3875 32.215626 210.3875 31.871876Q210.40312 31.5125 210.40312 31.403126Q210.40312 30.340626 209.90312 29.8875Q209.23125 29.29375 207.90312 29.29375Q206.65312 29.29375 206.05937 29.73125Q205.48125 30.16875 205.2 31.278126L203.48125 31.04375Q203.71562 29.934376 204.24687 29.2625Q204.77812 28.575 205.79375 28.215626Q206.80937 27.840626 208.15312 27.840626Q209.48125 27.840626 210.30937 28.153126Q211.1375 28.465626 211.52812 28.95Q211.91875 29.41875 212.075 30.1375Q212.16875 30.590626 212.16875 31.7625L212.16875 34.10625Q212.16875 36.559376 212.27812 37.215626Q212.3875 37.85625 212.73125 38.45L210.8875 38.45Q210.62187 37.903126 210.54375 37.16875ZM210.3875 33.246876Q209.43437 33.6375 207.5125 33.903126Q206.43437 34.059376 205.98125 34.2625Q205.54375 34.45 205.29375 34.825Q205.04375 35.2 205.04375 35.66875Q205.04375 36.371876 205.575 36.840626Q206.10625 37.309376 207.1375 37.309376Q208.15312 37.309376 208.93437 36.871876Q209.73125 36.41875 210.10625 35.653126Q210.3875 35.04375 210.3875 33.8875L210.3875 33.246876ZM218.60625 36.871876L218.85625 38.434376Q218.12187 38.590626 217.52812 38.590626Q216.575 38.590626 216.04375 38.29375Q215.52812 37.98125 215.30937 37.496876Q215.09062 36.996876 215.09062 35.41875L215.09062 29.45L213.80937 29.45L213.80937 28.075L215.09062 28.075L215.09062 25.5125L216.84062 24.45L216.84062 28.075L218.60625 28.075L218.60625 29.45L216.84062 29.45L216.84062 35.5125Q216.84062 36.2625 216.93437 36.48125Q217.02812 36.684376 217.23125 36.825Q217.45 36.95 217.84062 36.95Q218.12187 36.95 218.60625 36.871876ZM227.87187 35.10625L229.68437 35.340626Q229.2625 36.91875 228.09062 37.809376Q226.93437 38.684376 225.12187 38.684376Q222.85625 38.684376 221.5125 37.29375Q220.18437 35.8875 220.18437 33.35625Q220.18437 30.73125 221.52812 29.29375Q222.87187 27.840626 225.02812 27.840626Q227.10625 27.840626 228.41875 29.2625Q229.74687 30.66875 229.74687 33.246876Q229.74687 33.403126 229.73125 33.715626L221.99687 33.715626Q222.09062 35.41875 222.96562 36.325Q223.84062 37.23125 225.1375 37.23125Q226.10625 37.23125 226.77812 36.73125Q227.46562 36.215626 227.87187 35.10625ZM222.09062 32.2625L227.8875 32.2625Q227.77812 30.965626 227.23125 30.309376Q226.3875 29.29375 225.04375 29.29375Q223.84062 29.29375 223.0125 30.10625Q222.18437 30.903126 222.09062 32.2625ZM236.41875 38.45L241.91875 24.1375L243.96562 24.1375L249.825 38.45L247.66875 38.45L245.99687 34.10625L240.0125 34.10625L238.43437 38.45L236.41875 38.45ZM240.55937 32.575L245.40312 32.575L243.91875 28.60625Q243.23125 26.79375 242.90312 25.6375Q242.62187 27.0125 242.12187 28.371876L240.55937 32.575ZM254.60625 36.871876L254.85625 38.434376Q254.12187 38.590626 253.52812 38.590626Q252.575 38.590626 252.04375 38.29375Q251.52812 37.98125 251.30937 37.496876Q251.09062 36.996876 251.09062 35.41875L251.09062 29.45L249.80937 29.45L249.80937 28.075L251.09062 28.075L251.09062 25.5125L252.84062 24.45L252.84062 28.075L254.60625 28.075L254.60625 29.45L252.84062 29.45L252.84062 35.5125Q252.84062 36.2625 252.93437 36.48125Q253.02812 36.684376 253.23125 36.825Q253.45 36.95 253.84062 36.95Q254.12187 36.95 254.60625 36.871876ZM273.21564 33.434376L275.10626 33.903126Q274.5125 36.246876 272.96564 37.48125Q271.41876 38.7 269.16876 38.7Q266.85626 38.7 265.40314 37.7625Q263.96564 36.809376 263.2 35.028126Q262.45 33.23125 262.45 31.184376Q262.45 28.95 263.29376 27.29375Q264.15314 25.621876 265.73126 24.7625Q267.3094 23.8875 269.2 23.8875Q271.35626 23.8875 272.8094 24.98125Q274.27814 26.075 274.85626 28.059376L272.9969 28.496876Q272.4969 26.934376 271.54376 26.23125Q270.60626 25.5125 269.16876 25.5125Q267.5125 25.5125 266.40314 26.309376Q265.29376 27.090626 264.84064 28.434376Q264.40314 29.7625 264.40314 31.16875Q264.40314 32.996876 264.9344 34.371876Q265.46564 35.73125 266.59064 36.403126Q267.71564 37.075 269.0125 37.075Q270.60626 37.075 271.71564 36.153126Q272.825 35.23125 273.21564 33.434376ZM276.1219 33.2625Q276.1219 30.3875 277.71564 28.996876Q279.0594 27.840626 280.98126 27.840626Q283.1219 27.840626 284.46564 29.246876Q285.825 30.653126 285.825 33.121876Q285.825 35.121876 285.23126 36.278126Q284.6375 37.41875 283.48126 38.059376Q282.34064 38.684376 280.98126 38.684376Q278.79376 38.684376 277.45 37.29375Q276.1219 35.8875 276.1219 33.2625ZM277.91876 33.2625Q277.91876 35.2625 278.77814 36.246876Q279.65314 37.23125 280.98126 37.23125Q282.29376 37.23125 283.15314 36.246876Q284.02814 35.246876 284.02814 33.2Q284.02814 31.278126 283.15314 30.29375Q282.27814 29.29375 280.98126 29.29375Q279.65314 29.29375 278.77814 30.29375Q277.91876 31.278126 277.91876 33.2625ZM287.7625 38.45L287.7625 28.075L289.34064 28.075L289.34064 29.528126Q289.825 28.778126 290.6375 28.309376Q291.45 27.840626 292.48126 27.840626Q293.6375 27.840626 294.3719 28.325Q295.10626 28.79375 295.41876 29.653126Q296.65314 27.840626 298.6219 27.840626Q300.16876 27.840626 300.9969 28.7Q301.825 29.559376 301.825 31.325L301.825 38.45L300.075 38.45L300.075 31.91875Q300.075 30.85625 299.90314 30.403126Q299.73126 29.934376 299.27814 29.653126Q298.84064 29.371876 298.23126 29.371876Q297.1375 29.371876 296.40314 30.10625Q295.6844 30.825 295.6844 32.41875L295.6844 38.45L293.9344 38.45L293.9344 31.715626Q293.9344 30.54375 293.4969 29.965626Q293.075 29.371876 292.09064 29.371876Q291.35626 29.371876 290.71564 29.7625Q290.09064 30.153126 289.8094 30.903126Q289.52814 31.653126 289.52814 33.075L289.52814 38.45L287.7625 38.45ZM303.7625 42.41875L303.7625 28.075L305.3719 28.075L305.3719 29.41875Q305.9344 28.6375 306.6375 28.246876Q307.35626 27.840626 308.3719 27.840626Q309.7 27.840626 310.71564 28.528126Q311.73126 29.215626 312.2469 30.465626Q312.77814 31.7 312.77814 33.184376Q312.77814 34.778126 312.2 36.059376Q311.6375 37.325 310.54376 38.0125Q309.45 38.684376 308.2469 38.684376Q307.3719 38.684376 306.66876 38.309376Q305.98126 37.934376 305.52814 37.371876L305.52814 42.41875L303.7625 42.41875ZM305.35626 33.325Q305.35626 35.325 306.16876 36.278126Q306.98126 37.23125 308.1375 37.23125Q309.3094 37.23125 310.1375 36.246876Q310.98126 35.2625 310.98126 33.16875Q310.98126 31.2 310.15314 30.215626Q309.34064 29.215626 308.21564 29.215626Q307.09064 29.215626 306.21564 30.278126Q305.35626 31.325 305.35626 33.325ZM314.73126 38.45L314.73126 24.1375L316.48126 24.1375L316.48126 38.45L314.73126 38.45ZM325.8719 35.10625L327.6844 35.340626Q327.2625 36.91875 326.09064 37.809376Q324.9344 38.684376 323.1219 38.684376Q320.85626 38.684376 319.5125 37.29375Q318.1844 35.8875 318.1844 33.35625Q318.1844 30.73125 319.52814 29.29375Q320.8719 27.840626 323.02814 27.840626Q325.10626 27.840626 326.41876 29.2625Q327.7469 30.66875 327.7469 33.246876Q327.7469 33.403126 327.73126 33.715626L319.9969 33.715626Q320.09064 35.41875 320.96564 36.325Q321.84064 37.23125 323.1375 37.23125Q324.10626 37.23125 324.77814 36.73125Q325.46564 36.215626 325.8719 35.10625ZM320.09064 32.2625L325.8875 32.2625Q325.77814 30.965626 325.23126 30.309376Q324.3875 29.29375 323.04376 29.29375Q321.84064 29.29375 321.0125 30.10625Q320.1844 30.903126 320.09064 32.2625ZM333.60626 36.871876L333.85626 38.434376Q333.1219 38.590626 332.52814 38.590626Q331.575 38.590626 331.04376 38.29375Q330.52814 37.98125 330.3094 37.496876Q330.09064 36.996876 330.09064 35.41875L330.09064 29.45L328.8094 29.45L328.8094 28.075L330.09064 28.075L330.09064 25.5125L331.84064 24.45L331.84064 28.075L333.60626 28.075L333.60626 29.45L331.84064 29.45L331.84064 35.5125Q331.84064 36.2625 331.9344 36.48125Q332.02814 36.684376 332.23126 36.825Q332.45 36.95 332.84064 36.95Q333.1219 36.95 333.60626 36.871876ZM335.77814 26.153126L335.77814 24.1375L337.54376 24.1375L337.54376 26.153126L335.77814 26.153126ZM335.77814 38.45L335.77814 28.075L337.54376 28.075L337.54376 38.45L335.77814 38.45ZM339.1219 33.2625Q339.1219 30.3875 340.71564 28.996876Q342.0594 27.840626 343.98126 27.840626Q346.1219 27.840626 347.46564 29.246876Q348.825 30.653126 348.825 33.121876Q348.825 35.121876 348.23126 36.278126Q347.6375 37.41875 346.48126 38.059376Q345.34064 38.684376 343.98126 38.684376Q341.79376 38.684376 340.45 37.29375Q339.1219 35.8875 339.1219 33.2625ZM340.91876 33.2625Q340.91876 35.2625 341.77814 36.246876Q342.65314 37.23125 343.98126 37.23125Q345.29376 37.23125 346.15314 36.246876Q347.02814 35.246876 347.02814 33.2Q347.02814 31.278126 346.15314 30.29375Q345.27814 29.29375 343.98126 29.29375Q342.65314 29.29375 341.77814 30.29375Q340.91876 31.278126 340.91876 33.2625ZM350.7625 38.45L350.7625 28.075L352.35626 28.075L352.35626 29.559376Q353.4969 27.840626 355.65314 27.840626Q356.59064 27.840626 357.3719 28.184376Q358.16876 28.5125 358.5594 29.059376Q358.95 29.60625 359.10626 30.35625Q359.2 30.85625 359.2 32.075L359.2 38.45L357.4344 38.45L357.4344 32.1375Q357.4344 31.059376 357.23126 30.528126Q357.02814 29.996876 356.4969 29.684376Q355.98126 29.371876 355.27814 29.371876Q354.15314 29.371876 353.34064 30.090626Q352.52814 30.79375 352.52814 32.778126L352.52814 38.45L350.7625 38.45ZM370.1219 42.653126Q368.66876 40.825 367.66876 38.371876Q366.66876 35.903126 366.66876 33.2625Q366.66876 30.934376 367.41876 28.809376Q368.29376 26.340626 370.1219 23.8875L371.3875 23.8875Q370.2 25.91875 369.825 26.79375Q369.23126 28.1375 368.8875 29.60625Q368.46564 31.434376 368.46564 33.278126Q368.46564 37.965626 371.3875 42.653126L370.1219 42.653126ZM377.6375 38.45L377.6375 25.825L372.91876 25.825L372.91876 24.1375L384.2625 24.1375L384.2625 25.825L379.52814 25.825L379.52814 38.45L377.6375 38.45ZM386.02814 38.45L386.02814 24.1375L396.3875 24.1375L396.3875 25.825L387.9344 25.825L387.9344 30.2L395.84064 30.2L395.84064 31.8875L387.9344 31.8875L387.9344 36.7625L396.71564 36.7625L396.71564 38.45L386.02814 38.45ZM397.41876 38.45L402.91876 24.1375L404.96564 24.1375L410.825 38.45L408.66876 38.45L406.9969 34.10625L401.0125 34.10625L399.4344 38.45L397.41876 38.45ZM401.5594 32.575L406.40314 32.575L404.91876 28.60625Q404.23126 26.79375 403.90314 25.6375Q403.6219 27.0125 403.1219 28.371876L401.5594 32.575ZM422.21564 33.434376L424.10626 33.903126Q423.5125 36.246876 421.96564 37.48125Q420.41876 38.7 418.16876 38.7Q415.85626 38.7 414.40314 37.7625Q412.96564 36.809376 412.2 35.028126Q411.45 33.23125 411.45 31.184376Q411.45 28.95 412.29376 27.29375Q413.15314 25.621876 414.73126 24.7625Q416.3094 23.8875 418.2 23.8875Q420.35626 23.8875 421.8094 24.98125Q423.27814 26.075 423.85626 28.059376L421.9969 28.496876Q421.4969 26.934376 420.54376 26.23125Q419.60626 25.5125 418.16876 25.5125Q416.5125 25.5125 415.40314 26.309376Q414.29376 27.090626 413.84064 28.434376Q413.40314 29.7625 413.40314 31.16875Q413.40314 32.996876 413.9344 34.371876Q414.46564 35.73125 415.59064 36.403126Q416.71564 37.075 418.0125 37.075Q419.60626 37.075 420.71564 36.153126Q421.825 35.23125 422.21564 33.434376ZM426.91876 42.653126L425.66876 42.653126Q428.575 37.965626 428.575 33.278126Q428.575 31.434376 428.16876 29.6375Q427.825 28.16875 427.23126 26.825Q426.85626 25.934376 425.66876 23.8875L426.91876 23.8875Q428.7625 26.340626 429.6375 28.809376Q430.3875 30.934376 430.3875 33.2625Q430.3875 35.903126 429.3719 38.371876Q428.3719 40.825 426.91876 42.653126Z" fill-rule="nonzero"/></svg>