<svg version="1.1" viewBox="0.0 0.0 757.0 389.0" fill="none" stroke="none" stroke-linecap="square" stroke-miterlimit="10" width="757" height="389" xmlns:xlink="http://www.w3.org/1999/xlink" xmlns="http://www.w3.org/2000/svg"><path fill="#ffffff" d="M0 0L757.0 0L757.0 389.0L0 389.0L0 0Z" fill-rule="nonzero"/><path stroke="#333333" stroke-width="1.0" stroke-linecap="butt" d="M109.5 293.5L737.5 293.5" fill-rule="nonzero"/><path stroke="#cccccc" stroke-width="1.0" stroke-linecap="butt" d="M109.5 235.5L737.5 235.5" fill-rule="nonzero"/><path stroke="#cccccc" stroke-width="1.0" stroke-linecap="butt" d="M109.5 178.5L737.5 178.5" fill-rule="nonzero"/><path stroke="#cccccc" stroke-width="1.0" stroke-linecap="butt" d="M109.5 120.5L737.5 120.5" fill-rule="nonzero"/><path stroke="#cccccc" stroke-width="1.0" stroke-linecap="butt" d="M109.5 62.5L737.5 62.5" fill-rule="nonzero"/><path stroke="#000000" stroke-width="1.0" stroke-linecap="butt" d="M737.5 293.5L109.5 293.5" fill-rule="nonzero"/><path stroke="#000000" stroke-width="1.0" stroke-linecap="butt" d="M109.5 293.5L109.5 62.5" fill-rule="nonzero"/><clipPath id="id_0"><path d="M109.414246 62.5L737.57764 62.5L737.57764 293.67227L109.414246 293.67227L109.414246 62.5Z" clip-rule="nonzero"/></clipPath><path stroke="#4285f4" stroke-width="2.0" stroke-linecap="butt" stroke-dasharray="8.0,6.0" clip-path="url(#id_0)" d="M154.28307 293.67227C154.28307 293.67227 214.10815 235.87921 244.02069 235.87921C273.93323 235.87921 303.8458 303.30447 333.75833 293.67227C363.67087 284.0401 393.5834 178.08614 423.49594 178.08614C453.4085 178.08614 483.32104 274.40793 513.2336 293.67227C543.1461 312.93665 573.05865 293.67227 602.9712 293.67227C632.8838 293.67227 692.70886 293.67227 692.70886 293.67227" fill-rule="nonzero"/><path stroke="#ea4335" stroke-width="2.0" stroke-linecap="butt" stroke-dasharray="8.0,6.0" clip-path="url(#id_0)" d="M154.28307 293.67227C154.28307 293.67227 214.10815 235.87921 244.02069 235.87921C273.93323 235.87921 303.8458 284.0401 333.75833 293.67227C363.67087 303.30447 393.5834 293.67227 423.49594 293.67227C453.4085 293.67227 483.32104 293.67227 513.2336 293.67227C543.1461 293.67227 573.05865 293.67227 602.9712 293.67227C632.8838 293.67227 692.70886 293.67227 692.70886 293.67227" fill-rule="nonzero"/><path stroke="#fbbc04" stroke-width="2.0" stroke-linecap="butt" clip-path="url(#id_0)" d="M154.28307 293.67227C154.28307 293.67227 214.10815 187.71832 244.02069 178.08614C273.93323 168.45396 303.8458 216.61485 333.75833 235.87921C363.67087 255.14357 393.5834 284.0401 423.49594 293.67227C453.4085 303.30447 483.32104 293.67227 513.2336 293.67227C543.1461 293.67227 573.05865 293.67227 602.9712 293.67227C632.8838 293.67227 692.70886 293.67227 692.70886 293.67227" fill-rule="nonzero"/><path stroke="#34a853" stroke-width="2.0" stroke-linecap="butt" clip-path="url(#id_0)" d="M154.28307 293.67227C154.28307 293.67227 214.10815 245.51138 244.02069 235.87921C273.93323 226.24704 303.8458 226.24704 333.75833 235.87921C363.67087 245.51138 393.5834 284.0401 423.49594 293.67227C453.4085 303.30447 483.32104 293.67227 513.2336 293.67227C543.1461 293.67227 573.05865 293.67227 602.9712 293.67227C632.8838 293.67227 692.70886 293.67227 692.70886 293.67227" fill-rule="nonzero"/><path stroke="#ff6d01" stroke-width="2.0" stroke-linecap="butt" clip-path="url(#id_0)" d="M154.28307 293.67227C154.28307 293.67227 214.10815 245.51138 244.02069 235.87921C273.93323 226.24704 303.8458 226.24704 333.75833 235.87921C363.67087 245.51138 393.5834 284.0401 423.49594 293.67227C453.4085 303.30447 483.32104 293.67227 513.2336 293.67227C543.1461 293.67227 573.05865 293.67227 602.9712 293.67227C632.8838 293.67227 692.70886 293.67227 692.70886 293.67227" fill-rule="nonzero"/><path fill="#4285f4" clip-path="url(#id_0)" d="M158.78307 293.67227C158.78307 296.15756 156.76834 298.17227 154.28307 298.17227C151.79778 298.17227 149.78307 296.15756 149.78307 293.67227C149.78307 291.187 151.79778 289.17227 154.28307 289.17227C156.76834 289.17227 158.78307 291.187 158.78307 293.67227Z" fill-rule="nonzero"/><path fill="#4285f4" clip-path="url(#id_0)" d="M248.52069 235.87921C248.52069 238.36449 246.50598 240.37921 244.02069 240.37921C241.53542 240.37921 239.52069 238.36449 239.52069 235.87921C239.52069 233.39394 241.53542 231.37921 244.02069 231.37921C246.50598 231.37921 248.52069 233.39394 248.52069 235.87921Z" fill-rule="nonzero"/><path fill="#4285f4" clip-path="url(#id_0)" d="M338.25833 293.67227C338.25833 296.15756 336.2436 298.17227 333.75833 298.17227C331.27304 298.17227 329.25833 296.15756 329.25833 293.67227C329.25833 291.187 331.27304 289.17227 333.75833 289.17227C336.2436 289.17227 338.25833 291.187 338.25833 293.67227Z" fill-rule="nonzero"/><path fill="#4285f4" clip-path="url(#id_0)" d="M427.99594 178.08614C427.99594 180.57143 425.98123 182.58614 423.49594 182.58614C421.01068 182.58614 418.99594 180.57143 418.99594 178.08614C418.99594 175.60086 421.01068 173.58614 423.49594 173.58614C425.98123 173.58614 427.99594 175.60086 427.99594 178.08614Z" fill-rule="nonzero"/><path fill="#4285f4" clip-path="url(#id_0)" d="M517.7336 293.67227C517.7336 296.15756 515.7189 298.17227 513.2336 298.17227C510.7483 298.17227 508.73358 296.15756 508.73358 293.67227C508.73358 291.187 510.7483 289.17227 513.2336 289.17227C515.7189 289.17227 517.7336 291.187 517.7336 293.67227Z" fill-rule="nonzero"/><path fill="#4285f4" clip-path="url(#id_0)" d="M607.4712 293.67227C607.4712 296.15756 605.4565 298.17227 602.9712 298.17227C600.48596 298.17227 598.4712 296.15756 598.4712 293.67227C598.4712 291.187 600.48596 289.17227 602.9712 289.17227C605.4565 289.17227 607.4712 291.187 607.4712 293.67227Z" fill-rule="nonzero"/><path fill="#4285f4" clip-path="url(#id_0)" d="M697.20886 293.67227C697.20886 296.15756 695.19415 298.17227 692.70886 298.17227C690.2236 298.17227 688.20886 296.15756 688.20886 293.67227C688.20886 291.187 690.2236 289.17227 692.70886 289.17227C695.19415 289.17227 697.20886 291.187 697.20886 293.67227Z" fill-rule="nonzero"/><path fill="#ea4335" clip-path="url(#id_0)" d="M154.28307 289.17227L158.18018 291.42227L158.18018 295.92227L154.28307 298.17227L150.38594 295.92227L150.38594 291.42227Z" fill-rule="nonzero"/><path fill="#ea4335" clip-path="url(#id_0)" d="M244.02069 231.37921L247.9178 233.62921L247.9178 238.12921L244.02069 240.37921L240.12358 238.12921L240.12358 233.62921Z" fill-rule="nonzero"/><path fill="#ea4335" clip-path="url(#id_0)" d="M333.75833 289.17227L337.65543 291.42227L337.65543 295.92227L333.75833 298.17227L329.8612 295.92227L329.8612 291.42227Z" fill-rule="nonzero"/><path fill="#ea4335" clip-path="url(#id_0)" d="M423.49594 289.17227L427.39307 291.42227L427.39307 295.92227L423.49594 298.17227L419.59885 295.92227L419.59885 291.42227Z" fill-rule="nonzero"/><path fill="#ea4335" clip-path="url(#id_0)" d="M513.2336 289.17227L517.1307 291.42227L517.1307 295.92227L513.2336 298.17227L509.33646 295.92227L509.33646 291.42227Z" fill-rule="nonzero"/><path fill="#ea4335" clip-path="url(#id_0)" d="M602.9712 289.17227L606.86835 291.42227L606.86835 295.92227L602.9712 298.17227L599.0741 295.92227L599.0741 291.42227Z" fill-rule="nonzero"/><path fill="#ea4335" clip-path="url(#id_0)" d="M692.70886 289.17227L696.60596 291.42227L696.60596 295.92227L692.70886 298.17227L688.8117 295.92227L688.8117 291.42227Z" fill-rule="nonzero"/><path fill="#fbbc04" clip-path="url(#id_0)" d="M156.28307 293.67227C156.28307 294.77686 155.38763 295.67227 154.28307 295.67227C153.1785 295.67227 152.28307 294.77686 152.28307 293.67227C152.28307 292.56772 153.1785 291.67227 154.28307 291.67227C155.38763 291.67227 156.28307 292.56772 156.28307 293.67227Z" fill-rule="nonzero"/><path fill="#fbbc04" clip-path="url(#id_0)" d="M246.02069 178.08614C246.02069 179.1907 245.12526 180.08614 244.02069 180.08614C242.91612 180.08614 242.02069 179.1907 242.02069 178.08614C242.02069 176.98157 242.91612 176.08614 244.02069 176.08614C245.12526 176.08614 246.02069 176.98157 246.02069 178.08614Z" fill-rule="nonzero"/><path fill="#fbbc04" clip-path="url(#id_0)" d="M335.75833 235.87921C335.75833 236.98378 334.86288 237.87921 333.75833 237.87921C332.65375 237.87921 331.75833 236.98378 331.75833 235.87921C331.75833 234.77464 332.65375 233.87921 333.75833 233.87921C334.86288 233.87921 335.75833 234.77464 335.75833 235.87921Z" fill-rule="nonzero"/><path fill="#fbbc04" clip-path="url(#id_0)" d="M425.49594 293.67227C425.49594 294.77686 424.60052 295.67227 423.49594 295.67227C422.3914 295.67227 421.49594 294.77686 421.49594 293.67227C421.49594 292.56772 422.3914 291.67227 423.49594 291.67227C424.60052 291.67227 425.49594 292.56772 425.49594 293.67227Z" fill-rule="nonzero"/><path fill="#fbbc04" clip-path="url(#id_0)" d="M515.2336 293.67227C515.2336 294.77686 514.33813 295.67227 513.2336 295.67227C512.129 295.67227 511.23358 294.77686 511.23358 293.67227C511.23358 292.56772 512.129 291.67227 513.2336 291.67227C514.33813 291.67227 515.2336 292.56772 515.2336 293.67227Z" fill-rule="nonzero"/><path fill="#fbbc04" clip-path="url(#id_0)" d="M604.9712 293.67227C604.9712 294.77686 604.0758 295.67227 602.9712 295.67227C601.86664 295.67227 600.9712 294.77686 600.9712 293.67227C600.9712 292.56772 601.86664 291.67227 602.9712 291.67227C604.0758 291.67227 604.9712 292.56772 604.9712 293.67227Z" fill-rule="nonzero"/><path fill="#fbbc04" clip-path="url(#id_0)" d="M694.70886 293.67227C694.70886 294.77686 693.8134 295.67227 692.70886 295.67227C691.60425 295.67227 690.70886 294.77686 690.70886 293.67227C690.70886 292.56772 691.60425 291.67227 692.70886 291.67227C693.8134 291.67227 694.70886 292.56772 694.70886 293.67227Z" fill-rule="nonzero"/><path fill="#000000" fill-opacity="0.0" clip-path="url(#id_0)" d="M157.28307 293.67227C157.28307 295.32913 155.93991 296.67227 154.28307 296.67227C152.6262 296.67227 151.28307 295.32913 151.28307 293.67227C151.28307 292.01544 152.6262 290.67227 154.28307 290.67227C155.93991 290.67227 157.28307 292.01544 157.28307 293.67227Z" fill-rule="nonzero"/><path fill="#000000" fill-opacity="0.0" clip-path="url(#id_0)" d="M247.02069 235.87921C247.02069 237.53607 245.67755 238.87921 244.02069 238.87921C242.36385 238.87921 241.02069 237.53607 241.02069 235.87921C241.02069 234.22235 242.36385 232.87921 244.02069 232.87921C245.67755 232.87921 247.02069 234.22235 247.02069 235.87921Z" fill-rule="nonzero"/><path fill="#000000" fill-opacity="0.0" clip-path="url(#id_0)" d="M336.75833 235.87921C336.75833 237.53607 335.4152 238.87921 333.75833 238.87921C332.10147 238.87921 330.75833 237.53607 330.75833 235.87921C330.75833 234.22235 332.10147 232.87921 333.75833 232.87921C335.4152 232.87921 336.75833 234.22235 336.75833 235.87921Z" fill-rule="nonzero"/><path fill="#000000" fill-opacity="0.0" clip-path="url(#id_0)" d="M426.49594 293.67227C426.49594 295.32913 425.1528 296.67227 423.49594 296.67227C421.8391 296.67227 420.49594 295.32913 420.49594 293.67227C420.49594 292.01544 421.8391 290.67227 423.49594 290.67227C425.1528 290.67227 426.49594 292.01544 426.49594 293.67227Z" fill-rule="nonzero"/><path fill="#000000" fill-opacity="0.0" clip-path="url(#id_0)" d="M516.2336 293.67227C516.2336 295.32913 514.89044 296.67227 513.2336 296.67227C511.57672 296.67227 510.23358 295.32913 510.23358 293.67227C510.23358 292.01544 511.57672 290.67227 513.2336 290.67227C514.89044 290.67227 516.2336 292.01544 516.2336 293.67227Z" fill-rule="nonzero"/><path fill="#000000" fill-opacity="0.0" clip-path="url(#id_0)" d="M605.9712 293.67227C605.9712 295.32913 604.62805 296.67227 602.9712 296.67227C601.3144 296.67227 599.9712 295.32913 599.9712 293.67227C599.9712 292.01544 601.3144 290.67227 602.9712 290.67227C604.62805 290.67227 605.9712 292.01544 605.9712 293.67227Z" fill-rule="nonzero"/><path fill="#000000" fill-opacity="0.0" clip-path="url(#id_0)" d="M695.70886 293.67227C695.70886 295.32913 694.3657 296.67227 692.70886 296.67227C691.052 296.67227 689.70886 295.32913 689.70886 293.67227C689.70886 292.01544 691.052 290.67227 692.70886 290.67227C694.3657 290.67227 695.70886 292.01544 695.70886 293.67227Z" fill-rule="nonzero"/><path fill="#000000" fill-opacity="0.0" clip-path="url(#id_0)" d="M157.28307 293.67227C157.28307 295.32913 155.93991 296.67227 154.28307 296.67227C152.6262 296.67227 151.28307 295.32913 151.28307 293.67227C151.28307 292.01544 152.6262 290.67227 154.28307 290.67227C155.93991 290.67227 157.28307 292.01544 157.28307 293.67227Z" fill-rule="nonzero"/><path fill="#000000" fill-opacity="0.0" clip-path="url(#id_0)" d="M247.02069 235.87921C247.02069 237.53607 245.67755 238.87921 244.02069 238.87921C242.36385 238.87921 241.02069 237.53607 241.02069 235.87921C241.02069 234.22235 242.36385 232.87921 244.02069 232.87921C245.67755 232.87921 247.02069 234.22235 247.02069 235.87921Z" fill-rule="nonzero"/><path fill="#000000" fill-opacity="0.0" clip-path="url(#id_0)" d="M336.75833 235.87921C336.75833 237.53607 335.4152 238.87921 333.75833 238.87921C332.10147 238.87921 330.75833 237.53607 330.75833 235.87921C330.75833 234.22235 332.10147 232.87921 333.75833 232.87921C335.4152 232.87921 336.75833 234.22235 336.75833 235.87921Z" fill-rule="nonzero"/><path fill="#000000" fill-opacity="0.0" clip-path="url(#id_0)" d="M426.49594 293.67227C426.49594 295.32913 425.1528 296.67227 423.49594 296.67227C421.8391 296.67227 420.49594 295.32913 420.49594 293.67227C420.49594 292.01544 421.8391 290.67227 423.49594 290.67227C425.1528 290.67227 426.49594 292.01544 426.49594 293.67227Z" fill-rule="nonzero"/><path fill="#000000" fill-opacity="0.0" clip-path="url(#id_0)" d="M516.2336 293.67227C516.2336 295.32913 514.89044 296.67227 513.2336 296.67227C511.57672 296.67227 510.23358 295.32913 510.23358 293.67227C510.23358 292.01544 511.57672 290.67227 513.2336 290.67227C514.89044 290.67227 516.2336 292.01544 516.2336 293.67227Z" fill-rule="nonzero"/><path fill="#000000" fill-opacity="0.0" clip-path="url(#id_0)" d="M605.9712 293.67227C605.9712 295.32913 604.62805 296.67227 602.9712 296.67227C601.3144 296.67227 599.9712 295.32913 599.9712 293.67227C599.9712 292.01544 601.3144 290.67227 602.9712 290.67227C604.62805 290.67227 605.9712 292.01544 605.9712 293.67227Z" fill-rule="nonzero"/><path fill="#000000" fill-opacity="0.0" clip-path="url(#id_0)" d="M695.70886 293.67227C695.70886 295.32913 694.3657 296.67227 692.70886 296.67227C691.052 296.67227 689.70886 295.32913 689.70886 293.67227C689.70886 292.01544 691.052 290.67227 692.70886 290.67227C694.3657 290.67227 695.70886 292.01544 695.70886 293.67227Z" fill-rule="nonzero"/><path stroke="#000000" stroke-width="1.0" stroke-linecap="butt" d="M154.5 299.5L154.5 287.5" fill-rule="nonzero"/><path stroke="#000000" stroke-width="1.0" stroke-linecap="butt" d="M244.5 299.5L244.5 287.5" fill-rule="nonzero"/><path stroke="#000000" stroke-width="1.0" stroke-linecap="butt" d="M333.5 299.5L333.5 287.5" fill-rule="nonzero"/><path stroke="#000000" stroke-width="1.0" stroke-linecap="butt" d="M423.5 299.5L423.5 287.5" fill-rule="nonzero"/><path stroke="#000000" stroke-width="1.0" stroke-linecap="butt" d="M513.5 299.5L513.5 287.5" fill-rule="nonzero"/><path stroke="#000000" stroke-width="1.0" stroke-linecap="butt" d="M602.5 299.5L602.5 287.5" fill-rule="nonzero"/><path stroke="#000000" stroke-width="1.0" stroke-linecap="butt" d="M692.5 299.5L692.5 287.5" fill-rule="nonzero"/><path fill="#000000" d="M402.91782 344.84232L402.91782 336.24857L406.16782 336.24857Q407.01157 336.24857 407.4647 336.3267Q408.10532 336.43607 408.5272 336.73294Q408.9647 337.02982 409.2147 337.56107Q409.48032 338.09232 409.48032 338.73294Q409.48032 339.8267 408.7772 340.59232Q408.0897 341.34232 406.26157 341.34232L404.05844 341.34232L404.05844 344.84232L402.91782 344.84232ZM404.05844 340.34232L406.2772 340.34232Q407.38657 340.34232 407.8397 339.93607Q408.30844 339.5142 408.30844 338.7642Q408.30844 338.23294 408.0272 337.85794Q407.76157 337.46732 407.32407 337.34232Q407.0272 337.2642 406.26157 337.2642L404.05844 337.2642L404.05844 340.34232ZM415.04282 342.84232L416.13657 342.96732Q415.88657 343.92044 415.18344 344.4517Q414.48032 344.98294 413.4022 344.98294Q412.04282 344.98294 411.23032 344.1392Q410.43344 343.29544 410.43344 341.77982Q410.43344 340.21732 411.24594 339.35794Q412.05844 338.48294 413.3397 338.48294Q414.5897 338.48294 415.37094 339.3267Q416.16782 340.17044 416.16782 341.71732Q416.16782 341.81107 416.16782 341.99857L411.5272 341.99857Q411.5897 343.02982 412.10532 343.5767Q412.62094 344.10794 413.4022 344.10794Q413.98032 344.10794 414.38657 343.81107Q414.80844 343.49857 415.04282 342.84232ZM411.5897 341.1392L415.05844 341.1392Q414.99594 340.34232 414.66782 339.9517Q414.1522 339.34232 413.35532 339.34232Q412.62094 339.34232 412.12094 339.8267Q411.63657 340.31107 411.5897 341.1392ZM417.7772 344.84232L417.7772 338.62357L418.73032 338.62357L418.73032 339.56107Q419.0897 338.90482 419.38657 338.7017Q419.69907 338.48294 420.07407 338.48294Q420.60532 338.48294 421.1522 338.81107L420.79282 339.79544Q420.4022 339.56107 420.0272 339.56107Q419.66782 339.56107 419.38657 339.77982Q419.12094 339.98294 419.01157 340.35794Q418.82407 340.92044 418.82407 341.5767L418.82407 344.84232L417.7772 344.84232ZM421.79282 337.46732L421.79282 336.24857L422.85532 336.24857L422.85532 337.46732L421.79282 337.46732ZM421.79282 344.84232L421.79282 338.62357L422.85532 338.62357L422.85532 344.84232L421.79282 344.84232ZM424.4022 341.73294Q424.4022 339.99857 425.35532 339.17044Q426.1522 338.48294 427.30844 338.48294Q428.5897 338.48294 429.4022 339.3267Q430.23032 340.15482 430.23032 341.6392Q430.23032 342.84232 429.87094 343.52982Q429.51157 344.21732 428.80844 344.60794Q428.12094 344.98294 427.30844 344.98294Q426.01157 344.98294 425.19907 344.15482Q424.4022 343.31107 424.4022 341.73294ZM425.48032 341.73294Q425.48032 342.92044 425.99594 343.5142Q426.5272 344.10794 427.30844 344.10794Q428.10532 344.10794 428.62094 343.5142Q429.13657 342.92044 429.13657 341.7017Q429.13657 340.54544 428.60532 339.9517Q428.0897 339.35794 427.30844 339.35794Q426.5272 339.35794 425.99594 339.9517Q425.48032 340.52982 425.48032 341.73294ZM435.82407 344.84232L435.82407 344.06107Q435.23032 344.98294 434.0897 344.98294Q433.3397 344.98294 432.7147 344.5767Q432.0897 344.15482 431.74594 343.42044Q431.4022 342.68607 431.4022 341.73294Q431.4022 340.81107 431.7147 340.04544Q432.0272 339.27982 432.6522 338.8892Q433.2772 338.48294 434.04282 338.48294Q434.60532 338.48294 435.04282 338.71732Q435.48032 338.9517 435.76157 339.3267L435.76157 336.24857L436.80844 336.24857L436.80844 344.84232L435.82407 344.84232ZM432.49594 341.73294Q432.49594 342.93607 432.99594 343.52982Q433.49594 344.10794 434.18344 344.10794Q434.87094 344.10794 435.35532 343.54544Q435.8397 342.98294 435.8397 341.8267Q435.8397 340.54544 435.3397 339.9517Q434.85532 339.35794 434.13657 339.35794Q433.43344 339.35794 432.9647 339.93607Q432.49594 340.49857 432.49594 341.73294ZM438.4022 341.73294Q438.4022 339.99857 439.35532 339.17044Q440.1522 338.48294 441.30844 338.48294Q442.5897 338.48294 443.4022 339.3267Q444.23032 340.15482 444.23032 341.6392Q444.23032 342.84232 443.87094 343.52982Q443.51157 344.21732 442.80844 344.60794Q442.12094 344.98294 441.30844 344.98294Q440.01157 344.98294 439.19907 344.15482Q438.4022 343.31107 438.4022 341.73294ZM439.48032 341.73294Q439.48032 342.92044 439.99594 343.5142Q440.5272 344.10794 441.30844 344.10794Q442.10532 344.10794 442.62094 343.5142Q443.13657 342.92044 443.13657 341.7017Q443.13657 340.54544 442.60532 339.9517Q442.0897 339.35794 441.30844 339.35794Q440.5272 339.35794 439.99594 339.9517Q439.48032 340.52982 439.48032 341.73294Z" fill-rule="nonzero"/><path fill="#000000" d="M30.450006 204.07956L21.856256 207.40768L21.856256 206.17331L28.106256 203.93893Q28.856256 203.67331 29.512506 203.48581Q28.809381 203.28268 28.106256 203.01706L21.856256 200.70456L21.856256 199.54831L30.450006 202.90768L30.450006 204.07956ZM29.684381 195.59518Q30.184381 196.18893 30.387506 196.73581Q30.590631 197.26706 30.590631 197.89206Q30.590631 198.92331 30.090631 199.47018Q29.590631 200.01706 28.809381 200.01706Q28.356256 200.01706 27.981256 199.81393Q27.590631 199.61081 27.371881 199.26706Q27.137506 198.92331 27.028131 198.50143Q26.934381 198.20456 26.856256 197.56393Q26.715631 196.29831 26.496881 195.68893Q26.278131 195.68893 26.231256 195.68893Q25.575006 195.68893 25.309381 195.98581Q24.965631 196.39206 24.965631 197.18893Q24.965631 197.92331 25.231256 198.28268Q25.481256 198.64206 26.137506 198.81393L25.996881 199.84518Q25.340631 199.70456 24.934381 199.37643Q24.528131 199.04831 24.309381 198.43893Q24.090631 197.82956 24.090631 197.03268Q24.090631 196.23581 24.278131 195.73581Q24.465631 195.23581 24.746881 195.00143Q25.028131 194.76706 25.465631 194.67331Q25.731256 194.62643 26.434381 194.62643L27.840631 194.62643Q29.309381 194.62643 29.700006 194.56393Q30.090631 194.48581 30.450006 194.28268L30.450006 195.39206Q30.121881 195.54831 29.684381 195.59518ZM27.325006 195.68893Q27.559381 196.26706 27.731256 197.40768Q27.825006 198.06393 27.950006 198.32956Q28.059381 198.59518 28.278131 198.75143Q28.496881 198.89206 28.778131 198.89206Q29.200006 198.89206 29.481256 198.57956Q29.762506 198.25143 29.762506 197.64206Q29.762506 197.03268 29.496881 196.56393Q29.231256 196.07956 28.762506 195.86081Q28.403131 195.68893 27.715631 195.68893L27.325006 195.68893ZM30.450006 192.68893L21.856256 192.68893L21.856256 191.62643L30.450006 191.62643L30.450006 192.68893ZM27.340631 190.04831Q25.606256 190.04831 24.778131 189.09518Q24.090631 188.29831 24.090631 187.14206Q24.090631 185.86081 24.934381 185.04831Q25.762506 184.22018 27.246881 184.22018Q28.450006 184.22018 29.137506 184.57956Q29.825006 184.93893 30.215631 185.64206Q30.590631 186.32956 30.590631 187.14206Q30.590631 188.43893 29.762506 189.25143Q28.918756 190.04831 27.340631 190.04831ZM27.340631 188.97018Q28.528131 188.97018 29.121881 188.45456Q29.715631 187.92331 29.715631 187.14206Q29.715631 186.34518 29.121881 185.82956Q28.528131 185.31393 27.309381 185.31393Q26.153131 185.31393 25.559381 185.84518Q24.965631 186.36081 24.965631 187.14206Q24.965631 187.92331 25.559381 188.45456Q26.137506 188.97018 27.340631 188.97018ZM30.450006 182.67331L24.231256 182.67331L24.231256 181.72018L25.168756 181.72018Q24.512506 181.36081 24.309381 181.06393Q24.090631 180.75143 24.090631 180.37643Q24.090631 179.84518 24.418756 179.29831L25.403131 179.65768Q25.168756 180.04831 25.168756 180.42331Q25.168756 180.78268 25.387506 181.06393Q25.590631 181.32956 25.965631 181.43893Q26.528131 181.62643 27.184381 181.62643L30.450006 181.62643L30.450006 182.67331ZM28.450006 174.40768L28.575006 173.31393Q29.528131 173.56393 30.059381 174.26706Q30.590631 174.97018 30.590631 176.04831Q30.590631 177.40768 29.746881 178.22018Q28.903131 179.01706 27.387506 179.01706Q25.825006 179.01706 24.965631 178.20456Q24.090631 177.39206 24.090631 176.11081Q24.090631 174.86081 24.934381 174.07956Q25.778131 173.28268 27.325006 173.28268Q27.418756 173.28268 27.606256 173.28268L27.606256 177.92331Q28.637506 177.86081 29.184381 177.34518Q29.715631 176.82956 29.715631 176.04831Q29.715631 175.47018 29.418756 175.06393Q29.106256 174.64206 28.450006 174.40768ZM26.746881 177.86081L26.746881 174.39206Q25.950006 174.45456 25.559381 174.78268Q24.950006 175.29831 24.950006 176.09518Q24.950006 176.82956 25.434381 177.32956Q25.918756 177.81393 26.746881 177.86081Z" fill-rule="nonzero"/><path fill="#000000" d="M96.914246 293.4379Q96.914246 291.90665 97.226746 290.98477Q97.539246 290.04727 98.14862 289.54727Q98.77362 289.04727 99.71112 289.04727Q100.39862 289.04727 100.914246 289.32852Q101.445496 289.60977 101.789246 290.14102Q102.132996 290.65665 102.320496 291.40665Q102.507996 292.15665 102.507996 293.4379Q102.507996 294.95352 102.195496 295.8754Q101.89862 296.79727 101.27362 297.3129Q100.664246 297.8129 99.71112 297.8129Q98.476746 297.8129 97.757996 296.92227Q96.914246 295.85977 96.914246 293.4379ZM97.99237 293.4379Q97.99237 295.54727 98.49237 296.2504Q98.99237 296.95352 99.71112 296.95352Q100.445496 296.95352 100.92987 296.2504Q101.42987 295.54727 101.42987 293.4379Q101.42987 291.3129 100.92987 290.6254Q100.445496 289.92227 99.695496 289.92227Q98.976746 289.92227 98.539246 290.53165Q97.99237 291.3129 97.99237 293.4379Z" fill-rule="nonzero"/><path fill="#000000" d="M100.882996 239.87921L99.83612 239.87921L99.83612 233.16046Q99.445496 233.51984 98.820496 233.89484Q98.21112 234.25421 97.726746 234.42609L97.726746 233.41046Q98.601746 232.98859 99.257996 232.41046Q99.92987 231.81671 100.21112 231.25421L100.882996 231.25421L100.882996 239.87921Z" fill-rule="nonzero"/><path fill="#000000" d="M102.46112 181.07051L102.46112 182.08614L96.77362 182.08614Q96.77362 181.71114 96.89862 181.35176Q97.11737 180.77364 97.58612 180.21114Q98.070496 179.64864 98.976746 178.91426Q100.382996 177.75801 100.86737 177.08614Q101.36737 176.41426 101.36737 175.82051Q101.36737 175.19551 100.914246 174.77364Q100.46112 174.33614 99.74237 174.33614Q98.976746 174.33614 98.52362 174.78926Q98.070496 175.24239 98.05487 176.05489L96.976746 175.94551Q97.08612 174.72676 97.80487 174.10176Q98.539246 173.46114 99.77362 173.46114Q101.007996 173.46114 101.726746 174.14864Q102.445496 174.83614 102.445496 175.85176Q102.445496 176.36739 102.226746 176.86739Q102.02362 177.35176 101.52362 177.91426Q101.039246 178.46114 99.914246 179.41426Q98.96112 180.21114 98.67987 180.50801Q98.414246 180.78926 98.24237 181.07051L102.46112 181.07051Z" fill-rule="nonzero"/><path fill="#000000" d="M96.914246 122.02744L97.976746 121.88682Q98.14862 122.77744 98.58612 123.18369Q99.02362 123.57432 99.64862 123.57432Q100.39862 123.57432 100.914246 123.05869Q101.42987 122.54307 101.42987 121.77744Q101.42987 121.05869 100.945496 120.58994Q100.476746 120.10557 99.74237 120.10557Q99.445496 120.10557 98.99237 120.23057L99.11737 119.29307Q99.226746 119.30869 99.289246 119.30869Q99.96112 119.30869 100.49237 118.96494Q101.039246 118.60557 101.039246 117.87119Q101.039246 117.29307 100.64862 116.91807Q100.257996 116.52744 99.632996 116.52744Q99.02362 116.52744 98.601746 116.91807Q98.195496 117.30869 98.08612 118.07432L97.02362 117.88682Q97.21112 116.83994 97.89862 116.26182Q98.58612 115.66807 99.601746 115.66807Q100.30487 115.66807 100.89862 115.98057Q101.49237 116.27744 101.80487 116.79307Q102.11737 117.30869 102.11737 117.90244Q102.11737 118.44932 101.820496 118.91807Q101.52362 119.37119 100.945496 119.63682Q101.695496 119.80869 102.11737 120.37119Q102.539246 120.91807 102.539246 121.76182Q102.539246 122.88682 101.71112 123.66807Q100.89862 124.44932 99.64862 124.44932Q98.52362 124.44932 97.77362 123.77744Q97.02362 123.08994 96.914246 122.02744Z" fill-rule="nonzero"/><path fill="#000000" d="M100.289246 66.5L100.289246 64.4375L96.570496 64.4375L96.570496 63.46875L100.49237 57.90625L101.351746 57.90625L101.351746 63.46875L102.507996 63.46875L102.507996 64.4375L101.351746 64.4375L101.351746 66.5L100.289246 66.5ZM100.289246 63.46875L100.289246 59.609375L97.601746 63.46875L100.289246 63.46875Z" fill-rule="nonzero"/><path fill="#000000" d="M112.76743 316.67227L116.06431 308.07852L117.28306 308.07852L120.79868 316.67227L119.51743 316.67227L118.50181 314.0629L114.92368 314.0629L113.97056 316.67227L112.76743 316.67227ZM115.25181 313.14102L118.15806 313.14102L117.26743 310.76602Q116.84556 309.6879 116.65806 308.98477Q116.48618 309.8129 116.18931 310.6254L115.25181 313.14102ZM120.37681 317.1879L121.40806 317.34415Q121.47056 317.8129 121.76743 318.03165Q122.15806 318.32852 122.82993 318.32852Q123.56431 318.32852 123.95493 318.03165Q124.36118 317.73477 124.50181 317.21915Q124.59556 316.89102 124.57993 315.85977Q123.89243 316.67227 122.86118 316.67227Q121.57993 316.67227 120.87681 315.7504Q120.17368 314.8129 120.17368 313.53165Q120.17368 312.64102 120.48618 311.89102Q120.81431 311.1254 121.42368 310.71915Q122.03306 310.3129 122.86118 310.3129Q123.97056 310.3129 124.68931 311.20352L124.68931 310.45352L125.65806 310.45352L125.65806 315.82852Q125.65806 317.28165 125.36118 317.89102Q125.06431 318.5004 124.42368 318.84415Q123.78306 319.20352 122.84556 319.20352Q121.73618 319.20352 121.04868 318.70352Q120.36118 318.20352 120.37681 317.1879ZM121.25181 313.45352Q121.25181 314.67227 121.73618 315.23477Q122.22056 315.79727 122.95493 315.79727Q123.68931 315.79727 124.17368 315.23477Q124.67368 314.67227 124.67368 313.48477Q124.67368 312.34415 124.15806 311.76602Q123.65806 311.1879 122.93931 311.1879Q122.23618 311.1879 121.73618 311.76602Q121.25181 312.32852 121.25181 313.45352ZM127.37681 317.1879L128.40805 317.34415Q128.47055 317.8129 128.76743 318.03165Q129.15805 318.32852 129.82993 318.32852Q130.5643 318.32852 130.95493 318.03165Q131.36118 317.73477 131.5018 317.21915Q131.59555 316.89102 131.57993 315.85977Q130.89243 316.67227 129.86118 316.67227Q128.57993 316.67227 127.87681 315.7504Q127.17368 314.8129 127.17368 313.53165Q127.17368 312.64102 127.48618 311.89102Q127.81431 311.1254 128.42368 310.71915Q129.03305 310.3129 129.86118 310.3129Q130.97055 310.3129 131.6893 311.20352L131.6893 310.45352L132.65805 310.45352L132.65805 315.82852Q132.65805 317.28165 132.36118 317.89102Q132.0643 318.5004 131.42368 318.84415Q130.78305 319.20352 129.84555 319.20352Q128.73618 319.20352 128.04868 318.70352Q127.36118 318.20352 127.37681 317.1879ZM128.2518 313.45352Q128.2518 314.67227 128.73618 315.23477Q129.22055 315.79727 129.95493 315.79727Q130.6893 315.79727 131.17368 315.23477Q131.67368 314.67227 131.67368 313.48477Q131.67368 312.34415 131.15805 311.76602Q130.65805 311.1879 129.9393 311.1879Q129.23618 311.1879 128.73618 311.76602Q128.2518 312.32852 128.2518 313.45352ZM134.57993 309.29727L134.57993 308.07852L135.64243 308.07852L135.64243 309.29727L134.57993 309.29727ZM134.57993 316.67227L134.57993 310.45352L135.64243 310.45352L135.64243 316.67227L134.57993 316.67227ZM141.65805 316.67227L141.65805 315.7504Q140.92368 316.8129 139.67368 316.8129Q139.1268 316.8129 138.64243 316.60977Q138.17368 316.39102 137.9393 316.07852Q137.70493 315.7504 137.61118 315.28165Q137.54868 314.98477 137.54868 314.29727L137.54868 310.45352L138.61118 310.45352L138.61118 313.90665Q138.61118 314.71915 138.67368 315.01602Q138.76743 315.42227 139.07993 315.67227Q139.40805 315.90665 139.89243 315.90665Q140.36118 315.90665 140.76743 315.67227Q141.1893 315.42227 141.36118 315.0004Q141.54868 314.57852 141.54868 313.78165L141.54868 310.45352L142.59555 310.45352L142.59555 316.67227L141.65805 316.67227ZM148.61118 316.67227L148.61118 315.89102Q148.01743 316.8129 146.8768 316.8129Q146.1268 316.8129 145.5018 316.40665Q144.8768 315.98477 144.53305 315.2504Q144.1893 314.51602 144.1893 313.5629Q144.1893 312.64102 144.5018 311.8754Q144.8143 311.10977 145.4393 310.71915Q146.0643 310.3129 146.82993 310.3129Q147.39243 310.3129 147.82993 310.54727Q148.26743 310.78165 148.54868 311.15665L148.54868 308.07852L149.59555 308.07852L149.59555 316.67227L148.61118 316.67227ZM145.28305 313.5629Q145.28305 314.76602 145.78305 315.35977Q146.28305 315.9379 146.97055 315.9379Q147.65805 315.9379 148.14243 315.3754Q148.6268 314.8129 148.6268 313.65665Q148.6268 312.3754 148.1268 311.78165Q147.64243 311.1879 146.92368 311.1879Q146.22055 311.1879 145.7518 311.76602Q145.28305 312.32852 145.28305 313.5629ZM151.57993 309.29727L151.57993 308.07852L152.64243 308.07852L152.64243 309.29727L151.57993 309.29727ZM151.57993 316.67227L151.57993 310.45352L152.64243 310.45352L152.64243 316.67227L151.57993 316.67227ZM158.64243 314.39102L159.67368 314.53165Q159.5018 315.59415 158.79868 316.20352Q158.09555 316.8129 157.07993 316.8129Q155.79868 316.8129 155.01743 315.98477Q154.2518 315.14102 154.2518 313.57852Q154.2518 312.57852 154.57993 311.82852Q154.92368 311.0629 155.59555 310.6879Q156.28305 310.3129 157.09555 310.3129Q158.09555 310.3129 158.73618 310.82852Q159.39243 311.32852 159.57993 312.28165L158.54868 312.4379Q158.40805 311.8129 158.03305 311.5004Q157.65805 311.17227 157.1268 311.17227Q156.32993 311.17227 155.82993 311.7504Q155.32993 312.3129 155.32993 313.54727Q155.32993 314.8129 155.8143 315.3754Q156.29868 315.9379 157.0643 315.9379Q157.6893 315.9379 158.09555 315.5629Q158.51743 315.1879 158.64243 314.39102ZM164.64243 315.90665Q164.04868 316.40665 163.5018 316.60977Q162.97055 316.8129 162.34555 316.8129Q161.3143 316.8129 160.76743 316.3129Q160.22055 315.8129 160.22055 315.03165Q160.22055 314.57852 160.42368 314.20352Q160.6268 313.8129 160.97055 313.59415Q161.3143 313.35977 161.73618 313.2504Q162.03305 313.15665 162.67368 313.07852Q163.9393 312.9379 164.54868 312.71915Q164.54868 312.5004 164.54868 312.45352Q164.54868 311.79727 164.2518 311.53165Q163.84555 311.1879 163.04868 311.1879Q162.3143 311.1879 161.95493 311.45352Q161.59555 311.70352 161.42368 312.35977L160.39243 312.21915Q160.53305 311.5629 160.86118 311.15665Q161.1893 310.7504 161.79868 310.53165Q162.40805 310.3129 163.20493 310.3129Q164.0018 310.3129 164.5018 310.5004Q165.0018 310.6879 165.23618 310.96915Q165.47055 311.2504 165.5643 311.6879Q165.61118 311.95352 165.61118 312.65665L165.61118 314.0629Q165.61118 315.53165 165.67368 315.92227Q165.7518 316.3129 165.95493 316.67227L164.84555 316.67227Q164.6893 316.34415 164.64243 315.90665ZM164.54868 313.54727Q163.97055 313.78165 162.82993 313.95352Q162.17368 314.04727 161.90805 314.17227Q161.64243 314.28165 161.48618 314.5004Q161.34555 314.71915 161.34555 315.0004Q161.34555 315.42227 161.65805 315.70352Q161.98618 315.98477 162.59555 315.98477Q163.20493 315.98477 163.67368 315.71915Q164.15805 315.45352 164.3768 314.98477Q164.54868 314.6254 164.54868 313.9379L164.54868 313.54727ZM167.01743 316.67227L167.01743 315.8129L170.98618 311.26602Q170.29868 311.29727 169.78305 311.29727L167.2518 311.29727L167.2518 310.45352L172.34555 310.45352L172.34555 311.14102L168.97055 315.09415L168.3143 315.8129Q169.03305 315.76602 169.64243 315.76602L172.53305 315.76602L172.53305 316.67227L167.01743 316.67227ZM172.57993 309.29727L172.57993 308.07852L173.64243 308.07852L173.64243 309.29727L172.57993 309.29727ZM172.57993 316.67227L172.57993 310.45352L173.64243 310.45352L173.64243 316.67227L172.57993 316.67227ZM175.1893 313.5629Q175.1893 311.82852 176.14243 311.0004Q176.9393 310.3129 178.09555 310.3129Q179.3768 310.3129 180.1893 311.15665Q181.01743 311.98477 181.01743 313.46915Q181.01743 314.67227 180.65805 315.35977Q180.29868 316.04727 179.59555 316.4379Q178.90805 316.8129 178.09555 316.8129Q176.79868 316.8129 175.98618 315.98477Q175.1893 315.14102 175.1893 313.5629ZM176.26743 313.5629Q176.26743 314.7504 176.78305 315.34415Q177.3143 315.9379 178.09555 315.9379Q178.89243 315.9379 179.40805 315.34415Q179.92368 314.7504 179.92368 313.53165Q179.92368 312.3754 179.39243 311.78165Q178.8768 311.1879 178.09555 311.1879Q177.3143 311.1879 176.78305 311.78165Q176.26743 312.35977 176.26743 313.5629ZM182.57993 316.67227L182.57993 310.45352L183.51743 310.45352L183.51743 311.32852Q184.20493 310.3129 185.5018 310.3129Q186.0643 310.3129 186.53305 310.51602Q187.01743 310.71915 187.2518 311.04727Q187.48618 311.3754 187.57993 311.8129Q187.6268 312.10977 187.6268 312.84415L187.6268 316.67227L186.57993 316.67227L186.57993 312.89102Q186.57993 312.23477 186.45493 311.92227Q186.32993 311.60977 186.01743 311.42227Q185.70493 311.21915 185.28305 311.21915Q184.61118 311.21915 184.11118 311.65665Q183.6268 312.07852 183.6268 313.26602L183.6268 316.67227L182.57993 316.67227ZM193.82993 314.67227L194.92368 314.79727Q194.67368 315.7504 193.97055 316.28165Q193.26743 316.8129 192.1893 316.8129Q190.82993 316.8129 190.01743 315.96915Q189.22055 315.1254 189.22055 313.60977Q189.22055 312.04727 190.03305 311.1879Q190.84555 310.3129 192.1268 310.3129Q193.3768 310.3129 194.15805 311.15665Q194.95493 312.0004 194.95493 313.54727Q194.95493 313.64102 194.95493 313.82852L190.3143 313.82852Q190.3768 314.85977 190.89243 315.40665Q191.40805 315.9379 192.1893 315.9379Q192.76743 315.9379 193.17368 315.64102Q193.59555 315.32852 193.82993 314.67227ZM190.3768 312.96915L193.84555 312.96915Q193.78305 312.17227 193.45493 311.78165Q192.9393 311.17227 192.14243 311.17227Q191.40805 311.17227 190.90805 311.65665Q190.42368 312.14102 190.3768 312.96915Z" fill-rule="nonzero"/><path fill="#000000" d="M223.56757 313.90665L224.63007 313.8129Q224.70819 314.46915 224.98944 314.8754Q225.27069 315.28165 225.84882 315.54727Q226.44257 315.79727 227.17694 315.79727Q227.81757 315.79727 228.31757 315.60977Q228.81757 315.40665 229.05194 315.07852Q229.30194 314.73477 229.30194 314.34415Q229.30194 313.9379 229.06757 313.64102Q228.83319 313.32852 228.30194 313.1254Q227.94257 312.98477 226.75507 312.70352Q225.58319 312.42227 225.11444 312.17227Q224.48944 311.84415 224.19257 311.3754Q223.89569 310.89102 223.89569 310.29727Q223.89569 309.65665 224.25507 309.09415Q224.63007 308.51602 225.33319 308.23477Q226.05194 307.9379 226.91132 307.9379Q227.86444 307.9379 228.59882 308.2504Q229.33319 308.54727 229.72382 309.15665Q230.11444 309.7504 230.14569 310.5004L229.05194 310.57852Q228.95819 309.76602 228.44257 309.35977Q227.94257 308.9379 226.95819 308.9379Q225.92694 308.9379 225.45819 309.3129Q224.98944 309.6879 224.98944 310.21915Q224.98944 310.6879 225.31757 310.98477Q225.64569 311.28165 227.02069 311.59415Q228.41132 311.90665 228.92694 312.14102Q229.67694 312.5004 230.03632 313.03165Q230.39569 313.54727 230.39569 314.2504Q230.39569 314.9379 230.00507 315.54727Q229.61444 316.14102 228.88007 316.48477Q228.14569 316.8129 227.22382 316.8129Q226.05194 316.8129 225.25507 316.48477Q224.47382 316.14102 224.02069 315.45352Q223.58319 314.76602 223.56757 313.90665ZM231.81757 319.0629L231.81757 310.45352L232.77069 310.45352L232.77069 311.2504Q233.11444 310.78165 233.53632 310.54727Q233.97382 310.3129 234.58319 310.3129Q235.38007 310.3129 235.98944 310.71915Q236.59882 311.1254 236.89569 311.8754Q237.20819 312.6254 237.20819 313.51602Q237.20819 314.46915 236.86444 315.23477Q236.53632 316.0004 235.88007 316.40665Q235.22382 316.8129 234.50507 316.8129Q233.97382 316.8129 233.55194 316.59415Q233.13007 316.35977 232.86444 316.03165L232.86444 319.0629L231.81757 319.0629ZM232.77069 313.59415Q232.77069 314.79727 233.25507 315.3754Q233.73944 315.9379 234.42694 315.9379Q235.13007 315.9379 235.63007 315.34415Q236.13007 314.7504 236.13007 313.5004Q236.13007 312.3129 235.64569 311.73477Q235.16132 311.14102 234.47382 311.14102Q233.80194 311.14102 233.28632 311.76602Q232.77069 312.39102 232.77069 313.59415ZM238.80194 316.67227L238.80194 310.45352L239.75507 310.45352L239.75507 311.39102Q240.11444 310.73477 240.41132 310.53165Q240.72382 310.3129 241.09882 310.3129Q241.63007 310.3129 242.17694 310.64102L241.81757 311.6254Q241.42694 311.39102 241.05194 311.39102Q240.69257 311.39102 240.41132 311.60977Q240.14569 311.8129 240.03632 312.1879Q239.84882 312.7504 239.84882 313.40665L239.84882 316.67227L238.80194 316.67227ZM242.81757 309.29727L242.81757 308.07852L243.88007 308.07852L243.88007 309.29727L242.81757 309.29727ZM242.81757 316.67227L242.81757 310.45352L243.88007 310.45352L243.88007 316.67227L242.81757 316.67227ZM245.81757 316.67227L245.81757 310.45352L246.75507 310.45352L246.75507 311.32852Q247.44257 310.3129 248.73944 310.3129Q249.30194 310.3129 249.77069 310.51602Q250.25507 310.71915 250.48944 311.04727Q250.72382 311.3754 250.81757 311.8129Q250.86444 312.10977 250.86444 312.84415L250.86444 316.67227L249.81757 316.67227L249.81757 312.89102Q249.81757 312.23477 249.69257 311.92227Q249.56757 311.60977 249.25507 311.42227Q248.94257 311.21915 248.52069 311.21915Q247.84882 311.21915 247.34882 311.65665Q246.86444 312.07852 246.86444 313.26602L246.86444 316.67227L245.81757 316.67227ZM255.11444 315.73477L255.27069 316.65665Q254.81757 316.7504 254.47382 316.7504Q253.89569 316.7504 253.58319 316.57852Q253.27069 316.39102 253.13007 316.09415Q253.00507 315.79727 253.00507 314.84415L253.00507 311.26602L252.23944 311.26602L252.23944 310.45352L253.00507 310.45352L253.00507 308.90665L254.05194 308.28165L254.05194 310.45352L255.11444 310.45352L255.11444 311.26602L254.05194 311.26602L254.05194 314.90665Q254.05194 315.35977 254.09882 315.48477Q254.16132 315.60977 254.28632 315.6879Q254.41132 315.76602 254.64569 315.76602Q254.83319 315.76602 255.11444 315.73477ZM262.48944 316.67227L261.44257 316.67227L261.44257 309.95352Q261.05194 310.3129 260.42694 310.6879Q259.81757 311.04727 259.3332 311.21915L259.3332 310.20352Q260.2082 309.78165 260.86444 309.20352Q261.53632 308.60977 261.81757 308.04727L262.48944 308.04727L262.48944 316.67227Z" fill-rule="nonzero"/><path fill="#000000" d="M313.3052 313.90665L314.3677 313.8129Q314.44583 314.46915 314.72708 314.8754Q315.00833 315.28165 315.58646 315.54727Q316.1802 315.79727 316.91458 315.79727Q317.5552 315.79727 318.0552 315.60977Q318.5552 315.40665 318.78958 315.07852Q319.03958 314.73477 319.03958 314.34415Q319.03958 313.9379 318.8052 313.64102Q318.57083 313.32852 318.03958 313.1254Q317.6802 312.98477 316.4927 312.70352Q315.32083 312.42227 314.85208 312.17227Q314.22708 311.84415 313.9302 311.3754Q313.63333 310.89102 313.63333 310.29727Q313.63333 309.65665 313.9927 309.09415Q314.3677 308.51602 315.07083 308.23477Q315.78958 307.9379 316.64896 307.9379Q317.60208 307.9379 318.33646 308.2504Q319.07083 308.54727 319.46146 309.15665Q319.85208 309.7504 319.88333 310.5004L318.78958 310.57852Q318.69583 309.76602 318.1802 309.35977Q317.6802 308.9379 316.69583 308.9379Q315.66458 308.9379 315.19583 309.3129Q314.72708 309.6879 314.72708 310.21915Q314.72708 310.6879 315.0552 310.98477Q315.38333 311.28165 316.75833 311.59415Q318.14896 311.90665 318.66458 312.14102Q319.41458 312.5004 319.77396 313.03165Q320.13333 313.54727 320.13333 314.2504Q320.13333 314.9379 319.7427 315.54727Q319.35208 316.14102 318.6177 316.48477Q317.88333 316.8129 316.96146 316.8129Q315.78958 316.8129 314.9927 316.48477Q314.21146 316.14102 313.75833 315.45352Q313.32083 314.76602 313.3052 313.90665ZM321.5552 319.0629L321.5552 310.45352L322.50833 310.45352L322.50833 311.2504Q322.85208 310.78165 323.27396 310.54727Q323.71146 310.3129 324.32083 310.3129Q325.1177 310.3129 325.72708 310.71915Q326.33646 311.1254 326.63333 311.8754Q326.94583 312.6254 326.94583 313.51602Q326.94583 314.46915 326.60208 315.23477Q326.27396 316.0004 325.6177 316.40665Q324.96146 316.8129 324.2427 316.8129Q323.71146 316.8129 323.28958 316.59415Q322.8677 316.35977 322.60208 316.03165L322.60208 319.0629L321.5552 319.0629ZM322.50833 313.59415Q322.50833 314.79727 322.9927 315.3754Q323.47708 315.9379 324.16458 315.9379Q324.8677 315.9379 325.3677 315.34415Q325.8677 314.7504 325.8677 313.5004Q325.8677 312.3129 325.38333 311.73477Q324.89896 311.14102 324.21146 311.14102Q323.53958 311.14102 323.02396 311.76602Q322.50833 312.39102 322.50833 313.59415ZM328.53958 316.67227L328.53958 310.45352L329.4927 310.45352L329.4927 311.39102Q329.85208 310.73477 330.14896 310.53165Q330.46146 310.3129 330.83646 310.3129Q331.3677 310.3129 331.91458 310.64102L331.5552 311.6254Q331.16458 311.39102 330.78958 311.39102Q330.4302 311.39102 330.14896 311.60977Q329.88333 311.8129 329.77396 312.1879Q329.58646 312.7504 329.58646 313.40665L329.58646 316.67227L328.53958 316.67227ZM332.5552 309.29727L332.5552 308.07852L333.6177 308.07852L333.6177 309.29727L332.5552 309.29727ZM332.5552 316.67227L332.5552 310.45352L333.6177 310.45352L333.6177 316.67227L332.5552 316.67227ZM335.5552 316.67227L335.5552 310.45352L336.4927 310.45352L336.4927 311.32852Q337.1802 310.3129 338.47708 310.3129Q339.03958 310.3129 339.50833 310.51602Q339.9927 310.71915 340.22708 311.04727Q340.46146 311.3754 340.5552 311.8129Q340.60208 312.10977 340.60208 312.84415L340.60208 316.67227L339.5552 316.67227L339.5552 312.89102Q339.5552 312.23477 339.4302 311.92227Q339.3052 311.60977 338.9927 311.42227Q338.6802 311.21915 338.25833 311.21915Q337.58646 311.21915 337.08646 311.65665Q336.60208 312.07852 336.60208 313.26602L336.60208 316.67227L335.5552 316.67227ZM344.85208 315.73477L345.00833 316.65665Q344.5552 316.7504 344.21146 316.7504Q343.63333 316.7504 343.32083 316.57852Q343.00833 316.39102 342.8677 316.09415Q342.7427 315.79727 342.7427 314.84415L342.7427 311.26602L341.97708 311.26602L341.97708 310.45352L342.7427 310.45352L342.7427 308.90665L343.78958 308.28165L343.78958 310.45352L344.85208 310.45352L344.85208 311.26602L343.78958 311.26602L343.78958 314.90665Q343.78958 315.35977 343.83646 315.48477Q343.89896 315.60977 344.02396 315.6879Q344.14896 315.76602 344.38333 315.76602Q344.57083 315.76602 344.85208 315.73477ZM353.8052 315.65665L353.8052 316.67227L348.1177 316.67227Q348.1177 316.29727 348.2427 315.9379Q348.46146 315.35977 348.9302 314.79727Q349.41458 314.23477 350.32083 313.5004Q351.72708 312.34415 352.21146 311.67227Q352.71146 311.0004 352.71146 310.40665Q352.71146 309.78165 352.25833 309.35977Q351.8052 308.92227 351.08646 308.92227Q350.32083 308.92227 349.8677 309.3754Q349.41458 309.82852 349.39896 310.64102L348.32083 310.53165Q348.4302 309.3129 349.14896 308.6879Q349.88333 308.04727 351.1177 308.04727Q352.35208 308.04727 353.07083 308.73477Q353.78958 309.42227 353.78958 310.4379Q353.78958 310.95352 353.57083 311.45352Q353.3677 311.9379 352.8677 312.5004Q352.38333 313.04727 351.25833 314.0004Q350.3052 314.79727 350.02396 315.09415Q349.75833 315.3754 349.58646 315.65665L353.8052 315.65665Z" fill-rule="nonzero"/><path fill="#000000" d="M403.04282 313.90665L404.10532 313.8129Q404.18344 314.46915 404.4647 314.8754Q404.74594 315.28165 405.32407 315.54727Q405.91782 315.79727 406.6522 315.79727Q407.29282 315.79727 407.79282 315.60977Q408.29282 315.40665 408.5272 315.07852Q408.7772 314.73477 408.7772 314.34415Q408.7772 313.9379 408.54282 313.64102Q408.30844 313.32852 407.7772 313.1254Q407.41782 312.98477 406.23032 312.70352Q405.05844 312.42227 404.5897 312.17227Q403.9647 311.84415 403.66782 311.3754Q403.37094 310.89102 403.37094 310.29727Q403.37094 309.65665 403.73032 309.09415Q404.10532 308.51602 404.80844 308.23477Q405.5272 307.9379 406.38657 307.9379Q407.3397 307.9379 408.07407 308.2504Q408.80844 308.54727 409.19907 309.15665Q409.5897 309.7504 409.62094 310.5004L408.5272 310.57852Q408.43344 309.76602 407.91782 309.35977Q407.41782 308.9379 406.43344 308.9379Q405.4022 308.9379 404.93344 309.3129Q404.4647 309.6879 404.4647 310.21915Q404.4647 310.6879 404.79282 310.98477Q405.12094 311.28165 406.49594 311.59415Q407.88657 311.90665 408.4022 312.14102Q409.1522 312.5004 409.51157 313.03165Q409.87094 313.54727 409.87094 314.2504Q409.87094 314.9379 409.48032 315.54727Q409.0897 316.14102 408.35532 316.48477Q407.62094 316.8129 406.69907 316.8129Q405.5272 316.8129 404.73032 316.48477Q403.94907 316.14102 403.49594 315.45352Q403.05844 314.76602 403.04282 313.90665ZM411.29282 319.0629L411.29282 310.45352L412.24594 310.45352L412.24594 311.2504Q412.5897 310.78165 413.01157 310.54727Q413.44907 310.3129 414.05844 310.3129Q414.85532 310.3129 415.4647 310.71915Q416.07407 311.1254 416.37094 311.8754Q416.68344 312.6254 416.68344 313.51602Q416.68344 314.46915 416.3397 315.23477Q416.01157 316.0004 415.35532 316.40665Q414.69907 316.8129 413.98032 316.8129Q413.44907 316.8129 413.0272 316.59415Q412.60532 316.35977 412.3397 316.03165L412.3397 319.0629L411.29282 319.0629ZM412.24594 313.59415Q412.24594 314.79727 412.73032 315.3754Q413.2147 315.9379 413.9022 315.9379Q414.60532 315.9379 415.10532 315.34415Q415.60532 314.7504 415.60532 313.5004Q415.60532 312.3129 415.12094 311.73477Q414.63657 311.14102 413.94907 311.14102Q413.2772 311.14102 412.76157 311.76602Q412.24594 312.39102 412.24594 313.59415ZM418.2772 316.67227L418.2772 310.45352L419.23032 310.45352L419.23032 311.39102Q419.5897 310.73477 419.88657 310.53165Q420.19907 310.3129 420.57407 310.3129Q421.10532 310.3129 421.6522 310.64102L421.29282 311.6254Q420.9022 311.39102 420.5272 311.39102Q420.16782 311.39102 419.88657 311.60977Q419.62094 311.8129 419.51157 312.1879Q419.32407 312.7504 419.32407 313.40665L419.32407 316.67227L418.2772 316.67227ZM422.29282 309.29727L422.29282 308.07852L423.35532 308.07852L423.35532 309.29727L422.29282 309.29727ZM422.29282 316.67227L422.29282 310.45352L423.35532 310.45352L423.35532 316.67227L422.29282 316.67227ZM425.29282 316.67227L425.29282 310.45352L426.23032 310.45352L426.23032 311.32852Q426.91782 310.3129 428.2147 310.3129Q428.7772 310.3129 429.24594 310.51602Q429.73032 310.71915 429.9647 311.04727Q430.19907 311.3754 430.29282 311.8129Q430.3397 312.10977 430.3397 312.84415L430.3397 316.67227L429.29282 316.67227L429.29282 312.89102Q429.29282 312.23477 429.16782 311.92227Q429.04282 311.60977 428.73032 311.42227Q428.41782 311.21915 427.99594 311.21915Q427.32407 311.21915 426.82407 311.65665Q426.3397 312.07852 426.3397 313.26602L426.3397 316.67227L425.29282 316.67227ZM434.5897 315.73477L434.74594 316.65665Q434.29282 316.7504 433.94907 316.7504Q433.37094 316.7504 433.05844 316.57852Q432.74594 316.39102 432.60532 316.09415Q432.48032 315.79727 432.48032 314.84415L432.48032 311.26602L431.7147 311.26602L431.7147 310.45352L432.48032 310.45352L432.48032 308.90665L433.5272 308.28165L433.5272 310.45352L434.5897 310.45352L434.5897 311.26602L433.5272 311.26602L433.5272 314.90665Q433.5272 315.35977 433.57407 315.48477Q433.63657 315.60977 433.76157 315.6879Q433.88657 315.76602 434.12094 315.76602Q434.30844 315.76602 434.5897 315.73477ZM437.99594 314.40665L439.05844 314.26602Q439.23032 315.15665 439.66782 315.5629Q440.10532 315.95352 440.73032 315.95352Q441.48032 315.95352 441.99594 315.4379Q442.51157 314.92227 442.51157 314.15665Q442.51157 313.4379 442.0272 312.96915Q441.55844 312.48477 440.82407 312.48477Q440.5272 312.48477 440.07407 312.60977L440.19907 311.67227Q440.30844 311.6879 440.37094 311.6879Q441.04282 311.6879 441.57407 311.34415Q442.12094 310.98477 442.12094 310.2504Q442.12094 309.67227 441.73032 309.29727Q441.3397 308.90665 440.7147 308.90665Q440.10532 308.90665 439.68344 309.29727Q439.2772 309.6879 439.16782 310.45352L438.10532 310.26602Q438.29282 309.21915 438.98032 308.64102Q439.66782 308.04727 440.68344 308.04727Q441.38657 308.04727 441.98032 308.35977Q442.57407 308.65665 442.88657 309.17227Q443.19907 309.6879 443.19907 310.28165Q443.19907 310.82852 442.9022 311.29727Q442.60532 311.7504 442.0272 312.01602Q442.7772 312.1879 443.19907 312.7504Q443.62094 313.29727 443.62094 314.14102Q443.62094 315.26602 442.79282 316.04727Q441.98032 316.82852 440.73032 316.82852Q439.60532 316.82852 438.85532 316.15665Q438.10532 315.46915 437.99594 314.40665Z" fill-rule="nonzero"/><path fill="#000000" d="M492.78046 313.90665L493.84296 313.8129Q493.92108 314.46915 494.20233 314.8754Q494.48358 315.28165 495.0617 315.54727Q495.65546 315.79727 496.38983 315.79727Q497.03046 315.79727 497.53046 315.60977Q498.03046 315.40665 498.26483 315.07852Q498.51483 314.73477 498.51483 314.34415Q498.51483 313.9379 498.28046 313.64102Q498.04608 313.32852 497.51483 313.1254Q497.15546 312.98477 495.96796 312.70352Q494.79608 312.42227 494.32733 312.17227Q493.70233 311.84415 493.40546 311.3754Q493.10858 310.89102 493.10858 310.29727Q493.10858 309.65665 493.46796 309.09415Q493.84296 308.51602 494.54608 308.23477Q495.26483 307.9379 496.1242 307.9379Q497.07733 307.9379 497.8117 308.2504Q498.54608 308.54727 498.9367 309.15665Q499.32733 309.7504 499.35858 310.5004L498.26483 310.57852Q498.17108 309.76602 497.65546 309.35977Q497.15546 308.9379 496.17108 308.9379Q495.13983 308.9379 494.67108 309.3129Q494.20233 309.6879 494.20233 310.21915Q494.20233 310.6879 494.53046 310.98477Q494.85858 311.28165 496.23358 311.59415Q497.6242 311.90665 498.13983 312.14102Q498.88983 312.5004 499.2492 313.03165Q499.60858 313.54727 499.60858 314.2504Q499.60858 314.9379 499.21796 315.54727Q498.82733 316.14102 498.09296 316.48477Q497.35858 316.8129 496.4367 316.8129Q495.26483 316.8129 494.46796 316.48477Q493.6867 316.14102 493.23358 315.45352Q492.79608 314.76602 492.78046 313.90665ZM501.03046 319.0629L501.03046 310.45352L501.98358 310.45352L501.98358 311.2504Q502.32733 310.78165 502.7492 310.54727Q503.1867 310.3129 503.79608 310.3129Q504.59296 310.3129 505.20233 310.71915Q505.8117 311.1254 506.10858 311.8754Q506.42108 312.6254 506.42108 313.51602Q506.42108 314.46915 506.07733 315.23477Q505.7492 316.0004 505.09296 316.40665Q504.4367 316.8129 503.71796 316.8129Q503.1867 316.8129 502.76483 316.59415Q502.34296 316.35977 502.07733 316.03165L502.07733 319.0629L501.03046 319.0629ZM501.98358 313.59415Q501.98358 314.79727 502.46796 315.3754Q502.95233 315.9379 503.63983 315.9379Q504.34296 315.9379 504.84296 315.34415Q505.34296 314.7504 505.34296 313.5004Q505.34296 312.3129 504.85858 311.73477Q504.3742 311.14102 503.6867 311.14102Q503.01483 311.14102 502.4992 311.76602Q501.98358 312.39102 501.98358 313.59415ZM508.01483 316.67227L508.01483 310.45352L508.96796 310.45352L508.96796 311.39102Q509.32733 310.73477 509.6242 310.53165Q509.9367 310.3129 510.3117 310.3129Q510.84296 310.3129 511.38983 310.64102L511.03046 311.6254Q510.63983 311.39102 510.26483 311.39102Q509.90546 311.39102 509.6242 311.60977Q509.35858 311.8129 509.2492 312.1879Q509.0617 312.7504 509.0617 313.40665L509.0617 316.67227L508.01483 316.67227ZM512.03046 309.29727L512.03046 308.07852L513.09296 308.07852L513.09296 309.29727L512.03046 309.29727ZM512.03046 316.67227L512.03046 310.45352L513.09296 310.45352L513.09296 316.67227L512.03046 316.67227ZM515.03046 316.67227L515.03046 310.45352L515.96796 310.45352L515.96796 311.32852Q516.65546 310.3129 517.95233 310.3129Q518.51483 310.3129 518.9836 310.51602Q519.46796 310.71915 519.70233 311.04727Q519.9367 311.3754 520.03046 311.8129Q520.07733 312.10977 520.07733 312.84415L520.07733 316.67227L519.03046 316.67227L519.03046 312.89102Q519.03046 312.23477 518.90546 311.92227Q518.78046 311.60977 518.46796 311.42227Q518.15546 311.21915 517.7336 311.21915Q517.0617 311.21915 516.5617 311.65665Q516.07733 312.07852 516.07733 313.26602L516.07733 316.67227L515.03046 316.67227ZM524.32733 315.73477L524.4836 316.65665Q524.03046 316.7504 523.6867 316.7504Q523.1086 316.7504 522.7961 316.57852Q522.4836 316.39102 522.34296 316.09415Q522.21796 315.79727 522.21796 314.84415L522.21796 311.26602L521.45233 311.26602L521.45233 310.45352L522.21796 310.45352L522.21796 308.90665L523.26483 308.28165L523.26483 310.45352L524.32733 310.45352L524.32733 311.26602L523.26483 311.26602L523.26483 314.90665Q523.26483 315.35977 523.3117 315.48477Q523.3742 315.60977 523.4992 315.6879Q523.6242 315.76602 523.8586 315.76602Q524.0461 315.76602 524.32733 315.73477ZM531.1086 316.67227L531.1086 314.60977L527.38983 314.60977L527.38983 313.64102L531.3117 308.07852L532.1711 308.07852L532.1711 313.64102L533.32733 313.64102L533.32733 314.60977L532.1711 314.60977L532.1711 316.67227L531.1086 316.67227ZM531.1086 313.64102L531.1086 309.78165L528.4211 313.64102L531.1086 313.64102Z" fill-rule="nonzero"/><path fill="#000000" d="M582.51807 313.90665L583.58057 313.8129Q583.6587 314.46915 583.93994 314.8754Q584.2212 315.28165 584.7993 315.54727Q585.39307 315.79727 586.12744 315.79727Q586.76807 315.79727 587.26807 315.60977Q587.76807 315.40665 588.00244 315.07852Q588.25244 314.73477 588.25244 314.34415Q588.25244 313.9379 588.01807 313.64102Q587.7837 313.32852 587.25244 313.1254Q586.89307 312.98477 585.70557 312.70352Q584.5337 312.42227 584.06494 312.17227Q583.43994 311.84415 583.14307 311.3754Q582.8462 310.89102 582.8462 310.29727Q582.8462 309.65665 583.20557 309.09415Q583.58057 308.51602 584.2837 308.23477Q585.00244 307.9379 585.8618 307.9379Q586.81494 307.9379 587.5493 308.2504Q588.2837 308.54727 588.6743 309.15665Q589.06494 309.7504 589.0962 310.5004L588.00244 310.57852Q587.9087 309.76602 587.39307 309.35977Q586.89307 308.9379 585.9087 308.9379Q584.87744 308.9379 584.4087 309.3129Q583.93994 309.6879 583.93994 310.21915Q583.93994 310.6879 584.26807 310.98477Q584.5962 311.28165 585.9712 311.59415Q587.3618 311.90665 587.87744 312.14102Q588.62744 312.5004 588.9868 313.03165Q589.3462 313.54727 589.3462 314.2504Q589.3462 314.9379 588.95557 315.54727Q588.56494 316.14102 587.83057 316.48477Q587.0962 316.8129 586.1743 316.8129Q585.00244 316.8129 584.20557 316.48477Q583.4243 316.14102 582.9712 315.45352Q582.5337 314.76602 582.51807 313.90665ZM590.76807 319.0629L590.76807 310.45352L591.7212 310.45352L591.7212 311.2504Q592.06494 310.78165 592.4868 310.54727Q592.9243 310.3129 593.5337 310.3129Q594.33057 310.3129 594.93994 310.71915Q595.5493 311.1254 595.8462 311.8754Q596.1587 312.6254 596.1587 313.51602Q596.1587 314.46915 595.81494 315.23477Q595.4868 316.0004 594.83057 316.40665Q594.1743 316.8129 593.45557 316.8129Q592.9243 316.8129 592.50244 316.59415Q592.08057 316.35977 591.81494 316.03165L591.81494 319.0629L590.76807 319.0629ZM591.7212 313.59415Q591.7212 314.79727 592.20557 315.3754Q592.68994 315.9379 593.37744 315.9379Q594.08057 315.9379 594.58057 315.34415Q595.08057 314.7504 595.08057 313.5004Q595.08057 312.3129 594.5962 311.73477Q594.1118 311.14102 593.4243 311.14102Q592.75244 311.14102 592.2368 311.76602Q591.7212 312.39102 591.7212 313.59415ZM597.75244 316.67227L597.75244 310.45352L598.70557 310.45352L598.70557 311.39102Q599.06494 310.73477 599.3618 310.53165Q599.6743 310.3129 600.0493 310.3129Q600.58057 310.3129 601.12744 310.64102L600.76807 311.6254Q600.37744 311.39102 600.00244 311.39102Q599.64307 311.39102 599.3618 311.60977Q599.0962 311.8129 598.9868 312.1879Q598.7993 312.7504 598.7993 313.40665L598.7993 316.67227L597.75244 316.67227ZM601.76807 309.29727L601.76807 308.07852L602.83057 308.07852L602.83057 309.29727L601.76807 309.29727ZM601.76807 316.67227L601.76807 310.45352L602.83057 310.45352L602.83057 316.67227L601.76807 316.67227ZM604.76807 316.67227L604.76807 310.45352L605.70557 310.45352L605.70557 311.32852Q606.39307 310.3129 607.68994 310.3129Q608.25244 310.3129 608.7212 310.51602Q609.20557 310.71915 609.43994 311.04727Q609.6743 311.3754 609.76807 311.8129Q609.81494 312.10977 609.81494 312.84415L609.81494 316.67227L608.76807 316.67227L608.76807 312.89102Q608.76807 312.23477 608.64307 311.92227Q608.51807 311.60977 608.20557 311.42227Q607.89307 311.21915 607.4712 311.21915Q606.7993 311.21915 606.2993 311.65665Q605.81494 312.07852 605.81494 313.26602L605.81494 316.67227L604.76807 316.67227ZM614.06494 315.73477L614.2212 316.65665Q613.76807 316.7504 613.4243 316.7504Q612.8462 316.7504 612.5337 316.57852Q612.2212 316.39102 612.08057 316.09415Q611.95557 315.79727 611.95557 314.84415L611.95557 311.26602L611.18994 311.26602L611.18994 310.45352L611.95557 310.45352L611.95557 308.90665L613.00244 308.28165L613.00244 310.45352L614.06494 310.45352L614.06494 311.26602L613.00244 311.26602L613.00244 314.90665Q613.00244 315.35977 613.0493 315.48477Q613.1118 315.60977 613.2368 315.6879Q613.3618 315.76602 613.5962 315.76602Q613.7837 315.76602 614.06494 315.73477ZM617.4712 314.42227L618.58057 314.32852Q618.70557 315.14102 619.14307 315.54727Q619.5962 315.95352 620.2368 315.95352Q620.9868 315.95352 621.51807 315.3754Q622.0493 314.79727 622.0493 313.85977Q622.0493 312.95352 621.5337 312.4379Q621.0337 311.90665 620.20557 311.90665Q619.70557 311.90665 619.2837 312.14102Q618.87744 312.3754 618.64307 312.73477L617.6587 312.60977L618.4868 308.20352L622.76807 308.20352L622.76807 309.20352L619.33057 309.20352L618.87744 311.51602Q619.64307 310.96915 620.4868 310.96915Q621.6118 310.96915 622.37744 311.7504Q623.1587 312.53165 623.1587 313.76602Q623.1587 314.92227 622.4868 315.78165Q621.6587 316.8129 620.2368 316.8129Q619.06494 316.8129 618.31494 316.15665Q617.58057 315.5004 617.4712 314.42227Z" fill-rule="nonzero"/><path fill="#000000" d="M672.25574 313.90665L673.31824 313.8129Q673.39636 314.46915 673.6776 314.8754Q673.95886 315.28165 674.537 315.54727Q675.13074 315.79727 675.8651 315.79727Q676.50574 315.79727 677.00574 315.60977Q677.50574 315.40665 677.7401 315.07852Q677.9901 314.73477 677.9901 314.34415Q677.9901 313.9379 677.75574 313.64102Q677.52136 313.32852 676.9901 313.1254Q676.63074 312.98477 675.44324 312.70352Q674.27136 312.42227 673.8026 312.17227Q673.1776 311.84415 672.88074 311.3754Q672.58386 310.89102 672.58386 310.29727Q672.58386 309.65665 672.94324 309.09415Q673.31824 308.51602 674.02136 308.23477Q674.7401 307.9379 675.5995 307.9379Q676.5526 307.9379 677.287 308.2504Q678.02136 308.54727 678.412 309.15665Q678.8026 309.7504 678.83386 310.5004L677.7401 310.57852Q677.64636 309.76602 677.13074 309.35977Q676.63074 308.9379 675.64636 308.9379Q674.6151 308.9379 674.14636 309.3129Q673.6776 309.6879 673.6776 310.21915Q673.6776 310.6879 674.00574 310.98477Q674.33386 311.28165 675.70886 311.59415Q677.0995 311.90665 677.6151 312.14102Q678.3651 312.5004 678.7245 313.03165Q679.08386 313.54727 679.08386 314.2504Q679.08386 314.9379 678.69324 315.54727Q678.3026 316.14102 677.56824 316.48477Q676.83386 316.8129 675.912 316.8129Q674.7401 316.8129 673.94324 316.48477Q673.162 316.14102 672.70886 315.45352Q672.27136 314.76602 672.25574 313.90665ZM680.50574 319.0629L680.50574 310.45352L681.45886 310.45352L681.45886 311.2504Q681.8026 310.78165 682.2245 310.54727Q682.662 310.3129 683.27136 310.3129Q684.06824 310.3129 684.6776 310.71915Q685.287 311.1254 685.58386 311.8754Q685.89636 312.6254 685.89636 313.51602Q685.89636 314.46915 685.5526 315.23477Q685.2245 316.0004 684.56824 316.40665Q683.912 316.8129 683.19324 316.8129Q682.662 316.8129 682.2401 316.59415Q681.81824 316.35977 681.5526 316.03165L681.5526 319.0629L680.50574 319.0629ZM681.45886 313.59415Q681.45886 314.79727 681.94324 315.3754Q682.4276 315.9379 683.1151 315.9379Q683.81824 315.9379 684.31824 315.34415Q684.81824 314.7504 684.81824 313.5004Q684.81824 312.3129 684.33386 311.73477Q683.8495 311.14102 683.162 311.14102Q682.4901 311.14102 681.9745 311.76602Q681.45886 312.39102 681.45886 313.59415ZM687.4901 316.67227L687.4901 310.45352L688.44324 310.45352L688.44324 311.39102Q688.8026 310.73477 689.0995 310.53165Q689.412 310.3129 689.787 310.3129Q690.31824 310.3129 690.8651 310.64102L690.50574 311.6254Q690.1151 311.39102 689.7401 311.39102Q689.38074 311.39102 689.0995 311.60977Q688.83386 311.8129 688.7245 312.1879Q688.537 312.7504 688.537 313.40665L688.537 316.67227L687.4901 316.67227ZM691.50574 309.29727L691.50574 308.07852L692.56824 308.07852L692.56824 309.29727L691.50574 309.29727ZM691.50574 316.67227L691.50574 310.45352L692.56824 310.45352L692.56824 316.67227L691.50574 316.67227ZM694.50574 316.67227L694.50574 310.45352L695.44324 310.45352L695.44324 311.32852Q696.13074 310.3129 697.4276 310.3129Q697.9901 310.3129 698.45886 310.51602Q698.94324 310.71915 699.1776 311.04727Q699.412 311.3754 699.50574 311.8129Q699.5526 312.10977 699.5526 312.84415L699.5526 316.67227L698.50574 316.67227L698.50574 312.89102Q698.50574 312.23477 698.38074 311.92227Q698.25574 311.60977 697.94324 311.42227Q697.63074 311.21915 697.20886 311.21915Q696.537 311.21915 696.037 311.65665Q695.5526 312.07852 695.5526 313.26602L695.5526 316.67227L694.50574 316.67227ZM703.8026 315.73477L703.95886 316.65665Q703.50574 316.7504 703.162 316.7504Q702.58386 316.7504 702.27136 316.57852Q701.95886 316.39102 701.81824 316.09415Q701.69324 315.79727 701.69324 314.84415L701.69324 311.26602L700.9276 311.26602L700.9276 310.45352L701.69324 310.45352L701.69324 308.90665L702.7401 308.28165L702.7401 310.45352L703.8026 310.45352L703.8026 311.26602L702.7401 311.26602L702.7401 314.90665Q702.7401 315.35977 702.787 315.48477Q702.8495 315.60977 702.9745 315.6879Q703.0995 315.76602 703.33386 315.76602Q703.52136 315.76602 703.8026 315.73477ZM712.6776 310.1879L711.63074 310.26602Q711.4901 309.64102 711.2401 309.35977Q710.8026 308.90665 710.1776 308.90665Q709.6776 308.90665 709.287 309.1879Q708.8026 309.5629 708.50574 310.26602Q708.2245 310.95352 708.20886 312.23477Q708.58386 311.65665 709.13074 311.3754Q709.69324 311.09415 710.3026 311.09415Q711.3495 311.09415 712.08386 311.8754Q712.83386 312.65665 712.83386 313.8754Q712.83386 314.6879 712.4745 315.39102Q712.13074 316.07852 711.52136 316.45352Q710.912 316.8129 710.14636 316.8129Q708.81824 316.8129 707.9901 315.84415Q707.162 314.8754 707.162 312.65665Q707.162 310.15665 708.08386 309.03165Q708.88074 308.04727 710.2401 308.04727Q711.25574 308.04727 711.89636 308.6254Q712.5526 309.1879 712.6776 310.1879ZM708.38074 313.89102Q708.38074 314.4379 708.5995 314.9379Q708.83386 315.42227 709.2401 315.6879Q709.662 315.95352 710.13074 315.95352Q710.787 315.95352 711.27136 315.42227Q711.75574 314.8754 711.75574 313.95352Q711.75574 313.0629 711.27136 312.54727Q710.8026 312.03165 710.08386 312.03165Q709.3651 312.03165 708.8651 312.54727Q708.38074 313.0629 708.38074 313.89102Z" fill-rule="nonzero"/><path fill="#4285f4" d="M234.51382 365.46167C234.51382 368.77536 231.82755 371.46167 228.51382 371.46167C225.20012 371.46167 222.51382 368.77536 222.51382 365.46167C222.51382 362.14795 225.20012 359.46167 228.51382 359.46167C231.82755 359.46167 234.51382 362.14795 234.51382 365.46167Z" fill-rule="nonzero"/><path fill="#1a1a1a" d="M242.4982 369.46167L245.79507 360.86792L247.01382 360.86792L250.52945 369.46167L249.2482 369.46167L248.23257 366.8523L244.65445 366.8523L243.70132 369.46167L242.4982 369.46167ZM244.98257 365.93042L247.88882 365.93042L246.9982 363.55542Q246.57632 362.4773 246.38882 361.77417Q246.21695 362.6023 245.92007 363.4148L244.98257 365.93042ZM254.34195 369.46167L254.34195 368.68042Q253.7482 369.6023 252.60757 369.6023Q251.85757 369.6023 251.23257 369.19604Q250.60757 368.77417 250.26382 368.0398Q249.92007 367.30542 249.92007 366.3523Q249.92007 365.43042 250.23257 364.6648Q250.54507 363.89917 251.17007 363.50854Q251.79507 363.1023 252.5607 363.1023Q253.1232 363.1023 253.5607 363.33667Q253.9982 363.57104 254.27945 363.94604L254.27945 360.86792L255.32632 360.86792L255.32632 369.46167L254.34195 369.46167ZM251.01382 366.3523Q251.01382 367.55542 251.51382 368.14917Q252.01382 368.7273 252.70132 368.7273Q253.38882 368.7273 253.8732 368.1648Q254.35757 367.6023 254.35757 366.44604Q254.35757 365.1648 253.85757 364.57104Q253.3732 363.9773 252.65445 363.9773Q251.95132 363.9773 251.48257 364.55542Q251.01382 365.11792 251.01382 366.3523ZM257.45132 369.46167L257.45132 360.86792L261.26382 360.86792Q262.42007 360.86792 263.01382 361.1023Q263.60757 361.33667 263.96695 361.93042Q264.32632 362.50854 264.32632 363.21167Q264.32632 364.13354 263.73257 364.75854Q263.13882 365.38354 261.90445 365.55542Q262.35757 365.77417 262.59195 365.9773Q263.09195 366.43042 263.52945 367.11792L265.02945 369.46167L263.59195 369.46167L262.46695 367.68042Q261.96695 366.89917 261.63882 366.49292Q261.32632 366.08667 261.0607 365.93042Q260.8107 365.75854 260.54507 365.68042Q260.35757 365.64917 259.92007 365.64917L258.59195 365.64917L258.59195 369.46167L257.45132 369.46167ZM258.59195 364.6648L261.04507 364.6648Q261.8107 364.6648 262.2482 364.50854Q262.70132 364.33667 262.92007 363.99292Q263.15445 363.63354 263.15445 363.21167Q263.15445 362.6023 262.70132 362.21167Q262.26382 361.82104 261.3107 361.82104L258.59195 361.82104L258.59195 364.6648Z" fill-rule="nonzero"/><path fill="#ea4335" d="M287.51382 359.46167L292.71 362.46167L292.71 368.46167L287.51382 371.46167L282.3177 368.46167L282.3177 362.46167Z" fill-rule="nonzero"/><path fill="#1a1a1a" d="M302.4357 369.46167L302.4357 360.86792L305.6857 360.86792Q306.52945 360.86792 306.98257 360.94604Q307.6232 361.05542 308.04507 361.3523Q308.48257 361.64917 308.73257 362.18042Q308.9982 362.71167 308.9982 363.3523Q308.9982 364.44604 308.29507 365.21167Q307.60757 365.96167 305.77945 365.96167L303.57632 365.96167L303.57632 369.46167L302.4357 369.46167ZM303.57632 364.96167L305.79507 364.96167Q306.90445 364.96167 307.35757 364.55542Q307.82632 364.13354 307.82632 363.38354Q307.82632 362.8523 307.54507 362.4773Q307.27945 362.08667 306.84195 361.96167Q306.54507 361.88354 305.77945 361.88354L303.57632 361.88354L303.57632 364.96167ZM314.34195 369.46167L314.34195 368.68042Q313.7482 369.6023 312.60757 369.6023Q311.85757 369.6023 311.23257 369.19604Q310.60757 368.77417 310.26382 368.0398Q309.92007 367.30542 309.92007 366.3523Q309.92007 365.43042 310.23257 364.6648Q310.54507 363.89917 311.17007 363.50854Q311.79507 363.1023 312.5607 363.1023Q313.1232 363.1023 313.5607 363.33667Q313.9982 363.57104 314.27945 363.94604L314.27945 360.86792L315.32632 360.86792L315.32632 369.46167L314.34195 369.46167ZM311.01382 366.3523Q311.01382 367.55542 311.51382 368.14917Q312.01382 368.7273 312.70132 368.7273Q313.38882 368.7273 313.8732 368.1648Q314.35757 367.6023 314.35757 366.44604Q314.35757 365.1648 313.85757 364.57104Q313.3732 363.9773 312.65445 363.9773Q311.95132 363.9773 311.48257 364.55542Q311.01382 365.11792 311.01382 366.3523ZM323.95132 368.5398Q324.7482 369.08667 325.40445 369.33667L325.07632 370.13354Q324.15445 369.7898 323.23257 369.07104Q322.27945 369.6023 321.1232 369.6023Q319.95132 369.6023 318.9982 369.0398Q318.0607 368.4773 317.54507 367.46167Q317.02945 366.44604 317.02945 365.1648Q317.02945 363.89917 317.54507 362.8523Q318.0607 361.80542 319.01382 361.25854Q319.96695 360.71167 321.13882 360.71167Q322.32632 360.71167 323.27945 361.2898Q324.2482 361.8523 324.7482 362.86792Q325.2482 363.88354 325.2482 365.1648Q325.2482 366.2273 324.92007 367.07104Q324.60757 367.9148 323.95132 368.5398ZM321.45132 367.08667Q322.4357 367.36792 323.07632 367.9148Q324.07632 366.99292 324.07632 365.1648Q324.07632 364.11792 323.71695 363.33667Q323.35757 362.55542 322.67007 362.13354Q321.9982 361.69604 321.15445 361.69604Q319.8732 361.69604 319.02945 362.57104Q318.20132 363.43042 318.20132 365.1648Q318.20132 366.83667 319.02945 367.74292Q319.85757 368.63354 321.15445 368.63354Q321.76382 368.63354 322.29507 368.39917Q321.76382 368.05542 321.17007 367.9148L321.45132 367.08667Z" fill-rule="nonzero"/><path fill="#fbbc04" d="M353.51382 365.46167C353.51382 368.77536 350.82755 371.46167 347.51382 371.46167C344.20013 371.46167 341.51382 368.77536 341.51382 365.46167C341.51382 362.14795 344.20013 359.46167 347.51382 359.46167C350.82755 359.46167 353.51382 362.14795 353.51382 365.46167Z" fill-rule="nonzero"/><path fill="#1a1a1a" d="M362.4357 369.46167L362.4357 360.86792L363.59195 360.86792L368.10757 367.61792L368.10757 360.86792L369.20132 360.86792L369.20132 369.46167L368.02945 369.46167L363.51382 362.71167L363.51382 369.46167L362.4357 369.46167ZM375.34195 369.46167L375.34195 368.68042Q374.7482 369.6023 373.60757 369.6023Q372.85757 369.6023 372.23257 369.19604Q371.60757 368.77417 371.26382 368.0398Q370.92007 367.30542 370.92007 366.3523Q370.92007 365.43042 371.23257 364.6648Q371.54507 363.89917 372.17007 363.50854Q372.79507 363.1023 373.5607 363.1023Q374.1232 363.1023 374.5607 363.33667Q374.9982 363.57104 375.27945 363.94604L375.27945 360.86792L376.32632 360.86792L376.32632 369.46167L375.34195 369.46167ZM372.01382 366.3523Q372.01382 367.55542 372.51382 368.14917Q373.01382 368.7273 373.70132 368.7273Q374.38882 368.7273 374.8732 368.1648Q375.35757 367.6023 375.35757 366.44604Q375.35757 365.1648 374.85757 364.57104Q374.3732 363.9773 373.65445 363.9773Q372.95132 363.9773 372.48257 364.55542Q372.01382 365.11792 372.01382 366.3523ZM378.4357 369.46167L378.4357 360.86792L381.6857 360.86792Q382.52945 360.86792 382.98257 360.94604Q383.6232 361.05542 384.04507 361.3523Q384.48257 361.64917 384.73257 362.18042Q384.9982 362.71167 384.9982 363.3523Q384.9982 364.44604 384.29507 365.21167Q383.60757 365.96167 381.77945 365.96167L379.57632 365.96167L379.57632 369.46167L378.4357 369.46167ZM379.57632 364.96167L381.79507 364.96167Q382.90445 364.96167 383.35757 364.55542Q383.82632 364.13354 383.82632 363.38354Q383.82632 362.8523 383.54507 362.4773Q383.27945 362.08667 382.84195 361.96167Q382.54507 361.88354 381.77945 361.88354L379.57632 361.88354L379.57632 364.96167Z" fill-rule="nonzero"/><path stroke="#34a853" stroke-width="4.0" stroke-linecap="butt" d="M401.51382 365.46167L413.51382 365.46167" fill-rule="nonzero"/><path fill="#1a1a1a" d="M422.4357 369.46167L422.4357 360.86792L425.6857 360.86792Q426.52945 360.86792 426.98257 360.94604Q427.6232 361.05542 428.04507 361.3523Q428.48257 361.64917 428.73257 362.18042Q428.9982 362.71167 428.9982 363.3523Q428.9982 364.44604 428.29507 365.21167Q427.60757 365.96167 425.77945 365.96167L423.57632 365.96167L423.57632 369.46167L422.4357 369.46167ZM423.57632 364.96167L425.79507 364.96167Q426.90445 364.96167 427.35757 364.55542Q427.82632 364.13354 427.82632 363.38354Q427.82632 362.8523 427.54507 362.4773Q427.27945 362.08667 426.84195 361.96167Q426.54507 361.88354 425.77945 361.88354L423.57632 361.88354L423.57632 364.96167ZM434.34195 369.46167L434.34195 368.68042Q433.7482 369.6023 432.60757 369.6023Q431.85757 369.6023 431.23257 369.19604Q430.60757 368.77417 430.26382 368.0398Q429.92007 367.30542 429.92007 366.3523Q429.92007 365.43042 430.23257 364.6648Q430.54507 363.89917 431.17007 363.50854Q431.79507 363.1023 432.5607 363.1023Q433.1232 363.1023 433.5607 363.33667Q433.9982 363.57104 434.27945 363.94604L434.27945 360.86792L435.32632 360.86792L435.32632 369.46167L434.34195 369.46167ZM431.01382 366.3523Q431.01382 367.55542 431.51382 368.14917Q432.01382 368.7273 432.70132 368.7273Q433.38882 368.7273 433.8732 368.1648Q434.35757 367.6023 434.35757 366.44604Q434.35757 365.1648 433.85757 364.57104Q433.3732 363.9773 432.65445 363.9773Q431.95132 363.9773 431.48257 364.55542Q431.01382 365.11792 431.01382 366.3523ZM437.4357 369.46167L437.4357 360.86792L440.6857 360.86792Q441.52945 360.86792 441.98257 360.94604Q442.6232 361.05542 443.04507 361.3523Q443.48257 361.64917 443.73257 362.18042Q443.9982 362.71167 443.9982 363.3523Q443.9982 364.44604 443.29507 365.21167Q442.60757 365.96167 440.77945 365.96167L438.57632 365.96167L438.57632 369.46167L437.4357 369.46167ZM438.57632 364.96167L440.79507 364.96167Q441.90445 364.96167 442.35757 364.55542Q442.82632 364.13354 442.82632 363.38354Q442.82632 362.8523 442.54507 362.4773Q442.27945 362.08667 441.84195 361.96167Q441.54507 361.88354 440.77945 361.88354L438.57632 361.88354L438.57632 364.96167Z" fill-rule="nonzero"/><path stroke="#ff6d01" stroke-width="4.0" stroke-linecap="butt" d="M460.51382 365.46167L472.51382 365.46167" fill-rule="nonzero"/><path fill="#1a1a1a" d="M485.46695 366.08667L485.46695 365.08667L489.09195 365.07104L489.09195 368.25854Q488.26382 368.93042 487.3732 369.27417Q486.48257 369.6023 485.54507 369.6023Q484.27945 369.6023 483.23257 369.07104Q482.20132 368.52417 481.67007 367.50854Q481.15445 366.4773 481.15445 365.21167Q481.15445 363.94604 481.67007 362.86792Q482.20132 361.77417 483.1857 361.25854Q484.17007 360.7273 485.45132 360.7273Q486.38882 360.7273 487.13882 361.02417Q487.88882 361.32104 488.3107 361.86792Q488.7482 362.39917 488.96695 363.27417L487.95132 363.55542Q487.7482 362.89917 487.45132 362.52417Q487.17007 362.14917 486.63882 361.93042Q486.10757 361.69604 485.46695 361.69604Q484.6857 361.69604 484.10757 361.93042Q483.54507 362.1648 483.1857 362.55542Q482.84195 362.94604 482.65445 363.4148Q482.32632 364.21167 482.32632 365.13354Q482.32632 366.2898 482.71695 367.07104Q483.1232 367.83667 483.8732 368.21167Q484.6232 368.58667 485.48257 368.58667Q486.21695 368.58667 486.92007 368.30542Q487.6232 368.00854 487.98257 367.69604L487.98257 366.08667L485.46695 366.08667ZM490.27945 369.46167L490.27945 360.86792L491.34195 360.86792L491.34195 369.46167L490.27945 369.46167ZM492.92007 366.3523Q492.92007 364.61792 493.8732 363.7898Q494.67007 363.1023 495.82632 363.1023Q497.10757 363.1023 497.92007 363.94604Q498.7482 364.77417 498.7482 366.25854Q498.7482 367.46167 498.38882 368.14917Q498.02945 368.83667 497.32632 369.2273Q496.63882 369.6023 495.82632 369.6023Q494.52945 369.6023 493.71695 368.77417Q492.92007 367.93042 492.92007 366.3523ZM493.9982 366.3523Q493.9982 367.5398 494.51382 368.13354Q495.04507 368.7273 495.82632 368.7273Q496.6232 368.7273 497.13882 368.13354Q497.65445 367.5398 497.65445 366.32104Q497.65445 365.1648 497.1232 364.57104Q496.60757 363.9773 495.82632 363.9773Q495.04507 363.9773 494.51382 364.57104Q493.9982 365.14917 493.9982 366.3523ZM499.88882 367.6023L500.92007 367.44604Q501.01382 368.07104 501.40445 368.39917Q501.8107 368.7273 502.54507 368.7273Q503.26382 368.7273 503.60757 368.44604Q503.96695 368.14917 503.96695 367.74292Q503.96695 367.38354 503.65445 367.18042Q503.4357 367.0398 502.57632 366.82104Q501.42007 366.52417 500.96695 366.32104Q500.52945 366.1023 500.29507 365.7273Q500.0607 365.3523 500.0607 364.88354Q500.0607 364.4773 500.2482 364.11792Q500.4357 363.75854 500.76382 363.52417Q501.01382 363.3523 501.4357 363.2273Q501.85757 363.1023 502.35757 363.1023Q503.07632 363.1023 503.6232 363.32104Q504.1857 363.52417 504.45132 363.88354Q504.71695 364.24292 504.8107 364.83667L503.77945 364.9773Q503.71695 364.50854 503.3732 364.24292Q503.04507 363.96167 502.42007 363.96167Q501.70132 363.96167 501.38882 364.21167Q501.07632 364.44604 501.07632 364.77417Q501.07632 364.9773 501.20132 365.13354Q501.34195 365.30542 501.60757 365.4148Q501.76382 365.4773 502.54507 365.68042Q503.67007 365.99292 504.10757 366.18042Q504.54507 366.36792 504.79507 366.7273Q505.04507 367.08667 505.04507 367.63354Q505.04507 368.1648 504.73257 368.63354Q504.4357 369.08667 503.85757 369.3523Q503.27945 369.6023 502.54507 369.6023Q501.32632 369.6023 500.6857 369.1023Q500.0607 368.58667 499.88882 367.6023ZM506.88882 367.6023L507.92007 367.44604Q508.01382 368.07104 508.40445 368.39917Q508.8107 368.7273 509.54507 368.7273Q510.26382 368.7273 510.60757 368.44604Q510.96695 368.14917 510.96695 367.74292Q510.96695 367.38354 510.65445 367.18042Q510.4357 367.0398 509.57632 366.82104Q508.42007 366.52417 507.96695 366.32104Q507.52945 366.1023 507.29507 365.7273Q507.0607 365.3523 507.0607 364.88354Q507.0607 364.4773 507.2482 364.11792Q507.4357 363.75854 507.76382 363.52417Q508.01382 363.3523 508.4357 363.2273Q508.85757 363.1023 509.35757 363.1023Q510.07632 363.1023 510.6232 363.32104Q511.1857 363.52417 511.45132 363.88354Q511.71695 364.24292 511.8107 364.83667L510.77945 364.9773Q510.71695 364.50854 510.3732 364.24292Q510.04507 363.96167 509.42007 363.96167Q508.70132 363.96167 508.38882 364.21167Q508.07632 364.44604 508.07632 364.77417Q508.07632 364.9773 508.20132 365.13354Q508.34195 365.30542 508.60757 365.4148Q508.76382 365.4773 509.54507 365.68042Q510.67007 365.99292 511.10757 366.18042Q511.54507 366.36792 511.79507 366.7273Q512.04504 367.08667 512.04504 367.63354Q512.04504 368.1648 511.73257 368.63354Q511.4357 369.08667 510.85757 369.3523Q510.27945 369.6023 509.54507 369.6023Q508.32632 369.6023 507.6857 369.1023Q507.0607 368.58667 506.88882 367.6023ZM518.37317 368.69604Q517.7794 369.19604 517.23254 369.39917Q516.7013 369.6023 516.0763 369.6023Q515.04504 369.6023 514.49817 369.1023Q513.9513 368.6023 513.9513 367.82104Q513.9513 367.36792 514.1544 366.99292Q514.35754 366.6023 514.7013 366.38354Q515.04504 366.14917 515.4669 366.0398Q515.7638 365.94604 516.4044 365.86792Q517.67004 365.7273 518.2794 365.50854Q518.2794 365.2898 518.2794 365.24292Q518.2794 364.58667 517.98254 364.32104Q517.5763 363.9773 516.7794 363.9773Q516.04504 363.9773 515.68567 364.24292Q515.3263 364.49292 515.1544 365.14917L514.12317 365.00854Q514.2638 364.3523 514.5919 363.94604Q514.92004 363.5398 515.5294 363.32104Q516.1388 363.1023 516.93567 363.1023Q517.73254 363.1023 518.23254 363.2898Q518.73254 363.4773 518.9669 363.75854Q519.2013 364.0398 519.29504 364.4773Q519.3419 364.74292 519.3419 365.44604L519.3419 366.8523Q519.3419 368.32104 519.4044 368.71167Q519.48254 369.1023 519.68567 369.46167L518.5763 369.46167Q518.42004 369.13354 518.37317 368.69604ZM518.2794 366.33667Q517.7013 366.57104 516.56067 366.74292Q515.9044 366.83667 515.6388 366.96167Q515.37317 367.07104 515.2169 367.2898Q515.0763 367.50854 515.0763 367.7898Q515.0763 368.21167 515.3888 368.49292Q515.7169 368.77417 516.3263 368.77417Q516.93567 368.77417 517.4044 368.50854Q517.8888 368.24292 518.10754 367.77417Q518.2794 367.4148 518.2794 366.7273L518.2794 366.33667ZM521.29504 369.46167L521.29504 363.24292L522.24817 363.24292L522.24817 364.18042Q522.60754 363.52417 522.9044 363.32104Q523.2169 363.1023 523.5919 363.1023Q524.12317 363.1023 524.67004 363.43042L524.31067 364.4148Q523.92004 364.18042 523.54504 364.18042Q523.18567 364.18042 522.9044 364.39917Q522.6388 364.6023 522.5294 364.9773Q522.3419 365.5398 522.3419 366.19604L522.3419 369.46167L521.29504 369.46167ZM525.31067 362.08667L525.31067 360.86792L526.37317 360.86792L526.37317 362.08667L525.31067 362.08667ZM525.31067 369.46167L525.31067 363.24292L526.37317 363.24292L526.37317 369.46167L525.31067 369.46167ZM527.92004 366.3523Q527.92004 364.61792 528.87317 363.7898Q529.67004 363.1023 530.8263 363.1023Q532.10754 363.1023 532.92004 363.94604Q533.74817 364.77417 533.74817 366.25854Q533.74817 367.46167 533.3888 368.14917Q533.0294 368.83667 532.3263 369.2273Q531.6388 369.6023 530.8263 369.6023Q529.5294 369.6023 528.7169 368.77417Q527.92004 367.93042 527.92004 366.3523ZM528.99817 366.3523Q528.99817 367.5398 529.5138 368.13354Q530.04504 368.7273 530.8263 368.7273Q531.62317 368.7273 532.1388 368.13354Q532.6544 367.5398 532.6544 366.32104Q532.6544 365.1648 532.12317 364.57104Q531.60754 363.9773 530.8263 363.9773Q530.04504 363.9773 529.5138 364.57104Q528.99817 365.14917 528.99817 366.3523Z" fill-rule="nonzero"/><path fill="#757575" d="M20.934376 38.168858L20.934376 23.856358L23.79375 23.856358L27.16875 33.981358Q27.6375 35.403233 27.85625 36.106358Q28.10625 35.325108 28.621876 33.809483L32.04375 23.856358L34.590626 23.856358L34.590626 38.168858L32.778126 38.168858L32.778126 26.184483L28.60625 38.168858L26.903126 38.168858L22.7625 25.981358L22.7625 38.168858L20.934376 38.168858ZM37.996876 38.168858L37.996876 23.856358L43.3875 23.856358Q44.825 23.856358 45.575 23.981358Q46.621876 24.168858 47.340626 24.668858Q48.059376 25.153233 48.48125 26.043858Q48.91875 26.934483 48.91875 27.996983Q48.91875 29.825108 47.746876 31.090733Q46.590626 32.340733 43.559376 32.340733L39.8875 32.340733L39.8875 38.168858L37.996876 38.168858ZM39.8875 30.653233L43.590626 30.653233Q45.41875 30.653233 46.184376 29.981358Q46.965626 29.293858 46.965626 28.043858Q46.965626 27.153233 46.5125 26.512608Q46.059376 25.871983 45.325 25.668858Q44.840626 25.543858 43.54375 25.543858L39.8875 25.543858L39.8875 30.653233ZM61.215626 33.153233L63.10625 33.621983Q62.5125 35.965733 60.965626 37.200108Q59.41875 38.418858 57.16875 38.418858Q54.85625 38.418858 53.403126 37.481358Q51.965626 36.528233 51.2 34.746983Q50.45 32.950108 50.45 30.903233Q50.45 28.668858 51.29375 27.012608Q52.153126 25.340733 53.73125 24.481358Q55.309376 23.606358 57.2 23.606358Q59.35625 23.606358 60.809376 24.700108Q62.278126 25.793858 62.85625 27.778233L60.996876 28.215733Q60.496876 26.653233 59.54375 25.950108Q58.60625 25.231358 57.16875 25.231358Q55.5125 25.231358 54.403126 26.028233Q53.29375 26.809483 52.840626 28.153233Q52.403126 29.481358 52.403126 30.887608Q52.403126 32.715733 52.934376 34.090733Q53.465626 35.450108 54.590626 36.121983Q55.715626 36.793858 57.0125 36.793858Q58.60625 36.793858 59.715626 35.871983Q60.825 34.950108 61.215626 33.153233ZM70.90312 38.168858L69.1375 38.168858L69.1375 26.965733Q68.5125 27.575108 67.48125 28.184483Q66.45 28.778233 65.62187 29.090733L65.62187 27.387608Q67.10625 26.700108 68.2 25.715733Q69.30937 24.715733 69.7625 23.793858L70.90312 23.793858L70.90312 38.168858ZM81.90312 38.168858L80.1375 38.168858L80.1375 26.965733Q79.5125 27.575108 78.48125 28.184483Q77.45 28.778233 76.62187 29.090733L76.62187 27.387608Q78.10625 26.700108 79.2 25.715733Q80.30937 24.715733 80.7625 23.793858L81.90312 23.793858L81.90312 38.168858ZM92.09062 33.871983L92.09062 32.106358L97.48125 32.106358L97.48125 33.871983L92.09062 33.871983ZM116.21562 33.153233L118.10625 33.621983Q117.5125 35.965733 115.96562 37.200108Q114.41875 38.418858 112.16875 38.418858Q109.85625 38.418858 108.40312 37.481358Q106.96562 36.528233 106.2 34.746983Q105.45 32.950108 105.45 30.903233Q105.45 28.668858 106.29375 27.012608Q107.15312 25.340733 108.73125 24.481358Q110.30937 23.606358 112.2 23.606358Q114.35625 23.606358 115.80937 24.700108Q117.27812 25.793858 117.85625 27.778233L115.99687 28.215733Q115.49687 26.653233 114.54375 25.950108Q113.60625 25.231358 112.16875 25.231358Q110.5125 25.231358 109.40312 26.028233Q108.29375 26.809483 107.84062 28.153233Q107.40312 29.481358 107.40312 30.887608Q107.40312 32.715733 107.93437 34.090733Q108.46562 35.450108 109.59062 36.121983Q110.71562 36.793858 112.0125 36.793858Q113.60625 36.793858 114.71562 35.871983Q115.825 34.950108 116.21562 33.153233ZM119.12187 32.981358Q119.12187 30.106358 120.71562 28.715733Q122.05937 27.559483 123.98125 27.559483Q126.12187 27.559483 127.46562 28.965733Q128.825 30.371983 128.825 32.840733Q128.825 34.840733 128.23125 35.996983Q127.6375 37.137608 126.48125 37.778233Q125.34062 38.403233 123.98125 38.403233Q121.79375 38.403233 120.45 37.012608Q119.12187 35.606358 119.12187 32.981358ZM120.91875 32.981358Q120.91875 34.981358 121.77812 35.965733Q122.65312 36.950108 123.98125 36.950108Q125.29375 36.950108 126.15312 35.965733Q127.02812 34.965733 127.02812 32.918858Q127.02812 30.996983 126.15312 30.012608Q125.27812 29.012608 123.98125 29.012608Q122.65312 29.012608 121.77812 30.012608Q120.91875 30.996983 120.91875 32.981358ZM130.74687 38.168858L130.74687 27.793858L132.325 27.793858L132.325 29.371983Q132.93437 28.262608 133.45 27.918858Q133.96562 27.559483 134.575 27.559483Q135.46562 27.559483 136.3875 28.121983L135.77812 29.762608Q135.1375 29.371983 134.49687 29.371983Q133.91875 29.371983 133.45 29.731358Q132.99687 30.075108 132.79375 30.684483Q132.5125 31.621983 132.5125 32.731358L132.5125 38.168858L130.74687 38.168858ZM137.74687 38.168858L137.74687 27.793858L139.325 27.793858L139.325 29.371983Q139.93437 28.262608 140.45 27.918858Q140.96562 27.559483 141.575 27.559483Q142.46562 27.559483 143.3875 28.121983L142.77812 29.762608Q142.1375 29.371983 141.49687 29.371983Q140.91875 29.371983 140.45 29.731358Q139.99687 30.075108 139.79375 30.684483Q139.5125 31.621983 139.5125 32.731358L139.5125 38.168858L137.74687 38.168858ZM151.87187 34.825108L153.68437 35.059483Q153.2625 36.637608 152.09062 37.528233Q150.93437 38.403233 149.12187 38.403233Q146.85625 38.403233 145.5125 37.012608Q144.18437 35.606358 144.18437 33.075108Q144.18437 30.450108 145.52812 29.012608Q146.87187 27.559483 149.02812 27.559483Q151.10625 27.559483 152.41875 28.981358Q153.74687 30.387608 153.74687 32.965733Q153.74687 33.121983 153.73125 33.434483L145.99687 33.434483Q146.09062 35.137608 146.96562 36.043858Q147.84062 36.950108 149.1375 36.950108Q150.10625 36.950108 150.77812 36.450108Q151.46562 35.934483 151.87187 34.825108ZM146.09062 31.981358L151.8875 31.981358Q151.77812 30.684483 151.23125 30.028233Q150.3875 29.012608 149.04375 29.012608Q147.84062 29.012608 147.0125 29.825108Q146.18437 30.621983 146.09062 31.981358ZM159.60625 36.590733L159.85625 38.153233Q159.12187 38.309483 158.52812 38.309483Q157.575 38.309483 157.04375 38.012608Q156.52812 37.700108 156.30937 37.215733Q156.09062 36.715733 156.09062 35.137608L156.09062 29.168858L154.80937 29.168858L154.80937 27.793858L156.09062 27.793858L156.09062 25.231358L157.84062 24.168858L157.84062 27.793858L159.60625 27.793858L159.60625 29.168858L157.84062 29.168858L157.84062 35.231358Q157.84062 35.981358 157.93437 36.200108Q158.02812 36.403233 158.23125 36.543858Q158.45 36.668858 158.84062 36.668858Q159.12187 36.668858 159.60625 36.590733ZM165.60625 36.590733L165.85625 38.153233Q165.12187 38.309483 164.52812 38.309483Q163.575 38.309483 163.04375 38.012608Q162.52812 37.700108 162.30937 37.215733Q162.09062 36.715733 162.09062 35.137608L162.09062 29.168858L160.80937 29.168858L160.80937 27.793858L162.09062 27.793858L162.09062 25.231358L163.84062 24.168858L163.84062 27.793858L165.60625 27.793858L165.60625 29.168858L163.84062 29.168858L163.84062 35.231358Q163.84062 35.981358 163.93437 36.200108Q164.02812 36.403233 164.23125 36.543858Q164.45 36.668858 164.84062 36.668858Q165.12187 36.668858 165.60625 36.590733ZM174.87187 34.825108L176.68437 35.059483Q176.2625 36.637608 175.09062 37.528233Q173.93437 38.403233 172.12187 38.403233Q169.85625 38.403233 168.5125 37.012608Q167.18437 35.606358 167.18437 33.075108Q167.18437 30.450108 168.52812 29.012608Q169.87187 27.559483 172.02812 27.559483Q174.10625 27.559483 175.41875 28.981358Q176.74687 30.387608 176.74687 32.965733Q176.74687 33.121983 176.73125 33.434483L168.99687 33.434483Q169.09062 35.137608 169.96562 36.043858Q170.84062 36.950108 172.1375 36.950108Q173.10625 36.950108 173.77812 36.450108Q174.46562 35.934483 174.87187 34.825108ZM169.09062 31.981358L174.8875 31.981358Q174.77812 30.684483 174.23125 30.028233Q173.3875 29.012608 172.04375 29.012608Q170.84062 29.012608 170.0125 29.825108Q169.18437 30.621983 169.09062 31.981358ZM177.84062 38.168858L177.84062 36.746983L184.45 29.168858Q183.325 29.215733 182.46562 29.215733L178.23125 29.215733L178.23125 27.793858L186.71562 27.793858L186.71562 28.965733L181.09062 35.543858L180.0125 36.746983Q181.18437 36.653233 182.23125 36.653233L187.02812 36.653233L187.02812 38.168858L177.84062 38.168858ZM186.84062 38.168858L186.84062 36.746983L193.45 29.168858Q192.325 29.215733 191.46562 29.215733L187.23125 29.215733L187.23125 27.793858L195.71562 27.793858L195.71562 28.965733L190.09062 35.543858L189.0125 36.746983Q190.18437 36.653233 191.23125 36.653233L196.02812 36.653233L196.02812 38.168858L186.84062 38.168858ZM203.54375 36.887608Q202.55937 37.715733 201.65312 38.059483Q200.74687 38.403233 199.71562 38.403233Q198.0125 38.403233 197.09062 37.575108Q196.16875 36.731358 196.16875 35.434483Q196.16875 34.668858 196.5125 34.043858Q196.87187 33.418858 197.43437 33.043858Q197.99687 32.653233 198.7 32.450108Q199.21562 32.325108 200.2625 32.184483Q202.3875 31.934483 203.3875 31.590733Q203.40312 31.231358 203.40312 31.121983Q203.40312 30.059483 202.90312 29.606358Q202.23125 29.012608 200.90312 29.012608Q199.65312 29.012608 199.05937 29.450108Q198.48125 29.887608 198.2 30.996983L196.48125 30.762608Q196.71562 29.653233 197.24687 28.981358Q197.77812 28.293858 198.79375 27.934483Q199.80937 27.559483 201.15312 27.559483Q202.48125 27.559483 203.30937 27.871983Q204.1375 28.184483 204.52812 28.668858Q204.91875 29.137608 205.075 29.856358Q205.16875 30.309483 205.16875 31.481358L205.16875 33.825108Q205.16875 36.278233 205.27812 36.934483Q205.3875 37.575108 205.73125 38.168858L203.8875 38.168858Q203.62187 37.621983 203.54375 36.887608ZM203.3875 32.965733Q202.43437 33.356358 200.5125 33.621983Q199.43437 33.778233 198.98125 33.981358Q198.54375 34.168858 198.29375 34.543858Q198.04375 34.918858 198.04375 35.387608Q198.04375 36.090733 198.575 36.559483Q199.10625 37.028233 200.1375 37.028233Q201.15312 37.028233 201.93437 36.590733Q202.73125 36.137608 203.10625 35.371983Q203.3875 34.762608 203.3875 33.606358L203.3875 32.965733ZM213.12187 32.981358Q213.12187 30.106358 214.71562 28.715733Q216.05937 27.559483 217.98125 27.559483Q220.12187 27.559483 221.46562 28.965733Q222.825 30.371983 222.825 32.840733Q222.825 34.840733 222.23125 35.996983Q221.6375 37.137608 220.48125 37.778233Q219.34062 38.403233 217.98125 38.403233Q215.79375 38.403233 214.45 37.012608Q213.12187 35.606358 213.12187 32.981358ZM214.91875 32.981358Q214.91875 34.981358 215.77812 35.965733Q216.65312 36.950108 217.98125 36.950108Q219.29375 36.950108 220.15312 35.965733Q221.02812 34.965733 221.02812 32.918858Q221.02812 30.996983 220.15312 30.012608Q219.27812 29.012608 217.98125 29.012608Q216.65312 29.012608 215.77812 30.012608Q214.91875 30.996983 214.91875 32.981358ZM224.74687 38.168858L224.74687 27.793858L226.325 27.793858L226.325 29.371983Q226.93437 28.262608 227.45 27.918858Q227.96562 27.559483 228.575 27.559483Q229.46562 27.559483 230.3875 28.121983L229.77812 29.762608Q229.1375 29.371983 228.49687 29.371983Q227.91875 29.371983 227.45 29.731358Q226.99687 30.075108 226.79375 30.684483Q226.5125 31.621983 226.5125 32.731358L226.5125 38.168858L224.74687 38.168858ZM235.60625 36.590733L235.85625 38.153233Q235.12187 38.309483 234.52812 38.309483Q233.575 38.309483 233.04375 38.012608Q232.52812 37.700108 232.30937 37.215733Q232.09062 36.715733 232.09062 35.137608L232.09062 29.168858L230.80937 29.168858L230.80937 27.793858L232.09062 27.793858L232.09062 25.231358L233.84062 24.168858L233.84062 27.793858L235.60625 27.793858L235.60625 29.168858L233.84062 29.168858L233.84062 35.231358Q233.84062 35.981358 233.93437 36.200108Q234.02812 36.403233 234.23125 36.543858Q234.45 36.668858 234.84062 36.668858Q235.12187 36.668858 235.60625 36.590733ZM237.12187 32.981358Q237.12187 30.106358 238.71562 28.715733Q240.05937 27.559483 241.98125 27.559483Q244.12187 27.559483 245.46562 28.965733Q246.825 30.371983 246.825 32.840733Q246.825 34.840733 246.23125 35.996983Q245.6375 37.137608 244.48125 37.778233Q243.34062 38.403233 241.98125 38.403233Q239.79375 38.403233 238.45 37.012608Q237.12187 35.606358 237.12187 32.981358ZM238.91875 32.981358Q238.91875 34.981358 239.77812 35.965733Q240.65312 36.950108 241.98125 36.950108Q243.29375 36.950108 244.15312 35.965733Q245.02812 34.965733 245.02812 32.918858Q245.02812 30.996983 244.15312 30.012608Q243.27812 29.012608 241.98125 29.012608Q240.65312 29.012608 239.77812 30.012608Q238.91875 30.996983 238.91875 32.981358ZM248.45 39.028233L250.15312 39.278233Q250.2625 40.075108 250.74687 40.434483Q251.40312 40.918858 252.54375 40.918858Q253.7625 40.918858 254.41875 40.434483Q255.09062 39.950108 255.325 39.075108Q255.46562 38.528233 255.45 36.809483Q254.29375 38.168858 252.575 38.168858Q250.43437 38.168858 249.2625 36.621983Q248.09062 35.075108 248.09062 32.918858Q248.09062 31.434483 248.62187 30.184483Q249.16875 28.934483 250.18437 28.246983Q251.21562 27.559483 252.59062 27.559483Q254.41875 27.559483 255.62187 29.043858L255.62187 27.793858L257.23126 27.793858L257.23126 36.762608Q257.23126 39.184483 256.73126 40.184483Q256.2469 41.200108 255.16875 41.778233Q254.10625 42.371983 252.54375 42.371983Q250.7 42.371983 249.54375 41.543858Q248.40312 40.715733 248.45 39.028233ZM249.90312 32.793858Q249.90312 34.840733 250.71562 35.778233Q251.52812 36.715733 252.74687 36.715733Q253.95 36.715733 254.7625 35.778233Q255.59062 34.840733 255.59062 32.856358Q255.59062 30.950108 254.74687 29.981358Q253.90312 29.012608 252.71562 29.012608Q251.54375 29.012608 250.71562 29.965733Q249.90312 30.918858 249.90312 32.793858ZM259.7469 38.168858L259.7469 27.793858L261.325 27.793858L261.325 29.371983Q261.9344 28.262608 262.45 27.918858Q262.96564 27.559483 263.575 27.559483Q264.46564 27.559483 265.3875 28.121983L264.77814 29.762608Q264.1375 29.371983 263.4969 29.371983Q262.91876 29.371983 262.45 29.731358Q261.9969 30.075108 261.79376 30.684483Q261.5125 31.621983 261.5125 32.731358L261.5125 38.168858L259.7469 38.168858ZM273.54376 36.887608Q272.5594 37.715733 271.65314 38.059483Q270.7469 38.403233 269.71564 38.403233Q268.0125 38.403233 267.09064 37.575108Q266.16876 36.731358 266.16876 35.434483Q266.16876 34.668858 266.5125 34.043858Q266.8719 33.418858 267.4344 33.043858Q267.9969 32.653233 268.7 32.450108Q269.21564 32.325108 270.2625 32.184483Q272.3875 31.934483 273.3875 31.590733Q273.40314 31.231358 273.40314 31.121983Q273.40314 30.059483 272.90314 29.606358Q272.23126 29.012608 270.90314 29.012608Q269.65314 29.012608 269.0594 29.450108Q268.48126 29.887608 268.2 30.996983L266.48126 30.762608Q266.71564 29.653233 267.2469 28.981358Q267.77814 28.293858 268.79376 27.934483Q269.8094 27.559483 271.15314 27.559483Q272.48126 27.559483 273.3094 27.871983Q274.1375 28.184483 274.52814 28.668858Q274.91876 29.137608 275.075 29.856358Q275.16876 30.309483 275.16876 31.481358L275.16876 33.825108Q275.16876 36.278233 275.27814 36.934483Q275.3875 37.575108 275.73126 38.168858L273.8875 38.168858Q273.6219 37.621983 273.54376 36.887608ZM273.3875 32.965733Q272.4344 33.356358 270.5125 33.621983Q269.4344 33.778233 268.98126 33.981358Q268.54376 34.168858 268.29376 34.543858Q268.04376 34.918858 268.04376 35.387608Q268.04376 36.090733 268.575 36.559483Q269.10626 37.028233 270.1375 37.028233Q271.15314 37.028233 271.9344 36.590733Q272.73126 36.137608 273.10626 35.371983Q273.3875 34.762608 273.3875 33.606358L273.3875 32.965733ZM278.1844 38.168858L278.1844 29.168858L276.6375 29.168858L276.6375 27.793858L278.1844 27.793858L278.1844 26.700108Q278.1844 25.653233 278.3719 25.137608Q278.6219 24.450108 279.2625 24.028233Q279.90314 23.606358 281.0594 23.606358Q281.8094 23.606358 282.7 23.778233L282.4344 25.309483Q281.8875 25.215733 281.40314 25.215733Q280.60626 25.215733 280.2625 25.559483Q279.9344 25.903233 279.9344 26.840733L279.9344 27.793858L281.96564 27.793858L281.96564 29.168858L279.9344 29.168858L279.9344 38.168858L278.1844 38.168858ZM283.77814 25.871983L283.77814 23.856358L285.54376 23.856358L285.54376 25.871983L283.77814 25.871983ZM283.77814 38.168858L283.77814 27.793858L285.54376 27.793858L285.54376 38.168858L283.77814 38.168858ZM294.54376 34.371983L296.2625 34.590733Q295.98126 36.387608 294.8094 37.403233Q293.65314 38.403233 291.95 38.403233Q289.825 38.403233 288.52814 37.012608Q287.23126 35.621983 287.23126 33.028233Q287.23126 31.340733 287.77814 30.090733Q288.34064 28.825108 289.48126 28.200108Q290.6219 27.559483 291.96564 27.559483Q293.65314 27.559483 294.71564 28.418858Q295.79376 29.278233 296.10626 30.840733L294.3875 31.106358Q294.15314 30.059483 293.52814 29.543858Q292.90314 29.012608 292.02814 29.012608Q290.7 29.012608 289.8719 29.965733Q289.04376 30.918858 289.04376 32.965733Q289.04376 35.059483 289.84064 36.012608Q290.6375 36.950108 291.9344 36.950108Q292.96564 36.950108 293.65314 36.325108Q294.35626 35.684483 294.54376 34.371983ZM304.54376 36.887608Q303.5594 37.715733 302.65314 38.059483Q301.7469 38.403233 300.71564 38.403233Q299.0125 38.403233 298.09064 37.575108Q297.16876 36.731358 297.16876 35.434483Q297.16876 34.668858 297.5125 34.043858Q297.8719 33.418858 298.4344 33.043858Q298.9969 32.653233 299.7 32.450108Q300.21564 32.325108 301.2625 32.184483Q303.3875 31.934483 304.3875 31.590733Q304.40314 31.231358 304.40314 31.121983Q304.40314 30.059483 303.90314 29.606358Q303.23126 29.012608 301.90314 29.012608Q300.65314 29.012608 300.0594 29.450108Q299.48126 29.887608 299.2 30.996983L297.48126 30.762608Q297.71564 29.653233 298.2469 28.981358Q298.77814 28.293858 299.79376 27.934483Q300.8094 27.559483 302.15314 27.559483Q303.48126 27.559483 304.3094 27.871983Q305.1375 28.184483 305.52814 28.668858Q305.91876 29.137608 306.075 29.856358Q306.16876 30.309483 306.16876 31.481358L306.16876 33.825108Q306.16876 36.278233 306.27814 36.934483Q306.3875 37.575108 306.73126 38.168858L304.8875 38.168858Q304.6219 37.621983 304.54376 36.887608ZM304.3875 32.965733Q303.4344 33.356358 301.5125 33.621983Q300.4344 33.778233 299.98126 33.981358Q299.54376 34.168858 299.29376 34.543858Q299.04376 34.918858 299.04376 35.387608Q299.04376 36.090733 299.575 36.559483Q300.10626 37.028233 301.1375 37.028233Q302.15314 37.028233 302.9344 36.590733Q303.73126 36.137608 304.10626 35.371983Q304.3875 34.762608 304.3875 33.606358L304.3875 32.965733Z" fill-rule="nonzero"/></svg>